{"glyphs":{"0":{"ha":1006,"x_min":0,"x_max":0,"o":"m 501 -17 b 808 128 626 -17 728 32 b 926 486 887 225 926 344 l 926 489 b 809 845 926 631 887 749 b 504 989 731 941 629 989 b 198 844 379 989 277 941 b 79 486 119 747 79 628 l 79 483 b 197 127 79 342 118 223 b 501 -17 275 31 376 -17 z m 504 138 b 324 238 430 138 370 171 b 256 486 278 305 256 388 l 256 489 b 324 736 256 588 278 670 b 501 835 369 802 428 835 b 681 734 575 835 634 801 b 750 486 727 667 750 584 l 750 483 b 683 237 750 385 728 303 b 504 138 638 171 578 138 z "},"1":{"ha":550,"x_min":0,"x_max":0,"o":"m 247 78 b 272 18 247 55 256 35 b 332 -7 289 1 309 -7 b 392 17 355 -7 375 1 b 417 78 408 34 417 54 l 417 900 b 392 960 417 924 409 944 b 332 985 376 977 356 985 l 329 985 b 246 969 309 985 281 980 l 99 922 b 42 849 61 912 42 888 b 64 798 42 829 49 812 b 117 776 79 784 96 776 b 147 781 128 776 138 778 l 247 811 z "},"2":{"ha":851,"x_min":0,"x_max":0,"o":"m 60 81 b 85 22 60 56 68 36 b 151 0 103 7 125 0 l 703 0 b 756 22 723 0 741 7 b 778 75 770 37 778 55 b 756 128 778 95 770 113 b 703 150 741 143 723 150 l 308 150 l 508 317 b 706 508 603 394 669 457 b 761 693 743 559 761 621 l 761 696 b 672 906 761 783 731 853 b 440 986 613 959 536 986 b 256 947 367 986 306 973 b 118 829 207 921 161 882 b 99 776 105 813 99 796 b 122 722 99 755 106 737 b 176 699 137 706 155 699 b 236 725 200 699 220 707 b 428 833 295 797 359 833 b 540 792 473 833 511 820 b 585 682 570 765 585 728 b 545 562 585 639 572 599 b 403 419 519 524 471 477 l 104 165 b 60 81 75 141 60 113 z "},"3":{"ha":858,"x_min":0,"x_max":0,"o":"m 432 -17 b 678 70 533 -17 615 12 b 772 292 741 128 772 202 l 772 294 b 691 485 772 378 745 441 b 486 567 637 529 569 556 l 715 804 b 764 897 748 837 764 868 b 740 951 764 919 756 938 b 679 972 725 965 704 972 l 182 972 b 128 950 161 972 143 965 b 107 897 114 935 107 918 b 129 845 107 877 114 859 b 182 824 144 831 162 824 l 535 824 l 307 581 b 271 511 283 556 271 533 b 292 459 271 491 278 473 b 344 438 307 445 324 438 l 379 438 b 542 398 448 438 502 424 b 603 288 583 372 603 335 l 603 285 b 555 178 603 241 587 206 b 435 138 523 151 483 138 b 214 231 350 138 276 169 b 157 253 197 245 178 253 b 99 228 135 253 116 245 b 75 171 83 212 75 193 b 103 110 75 145 84 125 b 432 -17 190 25 300 -17 z "},"4":{"ha":947,"x_min":0,"x_max":0,"o":"m 572 74 b 596 16 572 50 580 31 b 654 -7 612 1 631 -7 b 713 16 677 -7 697 1 b 736 74 728 31 736 50 l 736 218 l 811 218 b 862 238 831 218 848 225 b 882 288 875 252 882 268 b 862 338 882 307 875 324 b 811 358 848 351 831 358 l 736 358 l 736 904 b 712 963 736 927 728 947 b 653 986 696 978 676 986 b 596 973 630 986 611 982 b 549 931 581 964 565 950 l 92 389 b 54 299 67 359 54 329 b 78 241 54 275 62 256 b 138 218 95 226 114 218 l 572 218 z m 253 358 l 572 743 l 572 358 z "},"5":{"ha":865,"x_min":0,"x_max":0,"o":"m 428 -17 b 684 74 532 -17 618 14 b 783 313 750 135 783 214 l 783 315 b 689 542 783 414 752 490 b 444 621 626 595 544 621 b 290 593 393 621 341 612 l 306 821 l 671 821 b 725 843 692 821 710 828 b 747 896 740 858 747 875 b 725 950 747 917 740 935 b 671 972 710 965 692 972 l 231 972 b 176 951 209 972 191 965 b 153 896 162 936 154 918 l 132 546 b 165 471 130 513 141 488 b 246 438 197 449 224 438 b 303 454 249 438 268 443 b 413 471 339 465 375 471 b 558 427 473 471 521 456 b 614 310 595 398 614 359 l 614 307 b 561 185 614 256 596 215 b 425 139 526 154 481 139 b 214 221 352 139 281 166 b 164 238 200 232 183 238 b 106 213 142 238 122 229 b 82 156 90 197 82 178 b 117 89 82 130 94 107 b 428 -17 207 19 311 -17 z "},"6":{"ha":911,"x_min":0,"x_max":0,"o":"m 468 -17 b 726 77 571 -17 657 15 b 829 314 795 140 829 219 l 829 317 b 733 540 829 411 797 486 b 490 622 668 595 588 622 b 257 525 401 622 324 590 b 324 748 262 617 284 691 b 490 833 365 805 420 833 b 657 779 547 833 602 815 b 700 767 672 771 686 767 b 758 790 722 767 741 774 b 782 846 774 805 782 824 b 739 919 782 876 768 901 b 496 989 670 966 589 989 b 188 840 363 989 261 939 b 79 460 116 741 79 614 l 79 457 b 109 231 79 363 89 288 b 197 86 129 173 158 125 b 468 -17 266 18 356 -17 z m 464 132 b 319 181 405 132 356 148 b 263 306 281 214 263 256 l 263 308 b 317 430 263 356 281 397 b 460 479 353 463 400 479 b 603 431 519 479 567 463 b 658 310 640 399 658 359 l 658 307 b 606 181 658 256 641 214 b 464 132 570 148 523 132 z "},"7":{"ha":846,"x_min":0,"x_max":0,"o":"m 190 69 b 216 14 190 46 199 28 b 278 -7 233 0 254 -7 b 360 50 312 -7 339 12 l 763 814 b 786 896 778 844 786 871 b 765 952 786 920 779 939 b 708 972 751 966 732 972 l 163 972 b 109 950 141 972 123 965 b 88 897 95 935 88 918 b 109 844 88 877 95 859 b 163 822 123 830 141 822 l 583 822 l 206 122 b 190 69 195 104 190 86 z "},"8":{"ha":875,"x_min":0,"x_max":0,"o":"m 438 -14 b 704 63 546 -14 635 12 b 808 268 774 115 808 183 l 808 271 b 633 504 808 374 750 451 b 775 721 728 554 775 626 l 775 724 b 679 911 775 799 743 861 b 438 986 615 961 535 986 b 196 911 340 986 260 961 b 100 724 132 861 100 799 l 100 721 b 242 504 100 626 147 554 b 67 268 125 455 67 376 l 67 265 b 172 63 67 182 102 115 b 438 -14 241 12 330 -14 z m 438 561 b 313 601 388 561 346 575 b 264 706 280 628 264 663 l 264 708 b 313 804 264 746 280 778 b 438 843 345 830 387 843 b 563 803 488 843 530 830 b 611 707 595 777 611 745 l 611 704 b 562 601 611 663 595 628 b 438 561 529 575 488 561 z m 438 129 b 290 172 375 129 326 143 b 235 275 253 200 235 234 l 235 278 b 292 384 235 321 254 357 b 438 425 331 411 379 425 b 583 384 496 425 544 411 b 642 278 622 357 642 321 l 642 275 b 586 171 642 233 623 199 b 438 129 549 143 500 129 z "},"9":{"ha":911,"x_min":0,"x_max":0,"o":"m 415 -17 b 721 129 545 -17 647 32 b 832 513 795 226 832 354 l 832 515 b 715 886 832 683 793 806 b 444 989 645 955 555 989 b 183 893 338 989 251 957 b 82 653 116 829 82 749 l 82 650 b 176 426 82 556 113 482 b 426 342 239 370 323 342 b 654 444 521 342 597 376 b 588 223 651 353 629 279 b 419 139 546 167 490 139 b 242 199 357 139 298 159 b 194 213 226 208 210 213 b 138 190 172 213 153 205 b 114 135 122 175 114 157 b 153 64 114 104 127 81 b 415 -17 232 10 320 -17 z m 451 485 b 307 533 391 485 343 501 b 253 658 271 566 253 607 l 253 661 b 305 790 253 713 270 756 b 446 842 340 825 387 842 b 593 791 507 842 556 825 b 649 663 630 757 649 714 l 649 660 b 595 535 649 611 631 569 b 451 485 559 502 512 485 z "},"¤":{"ha":694,"x_min":0,"x_max":0,"o":"m 0 -278 l 694 -278 l 694 1111 l 0 1111 z m 99 1042 l 596 1042 l 347 500 z m 69 -106 l 69 939 l 308 417 z m 625 939 l 625 -106 l 386 417 z m 347 333 l 596 -208 l 99 -208 z "},"²":{"ha":694,"x_min":0,"x_max":0,"o":"m 0 -278 l 694 -278 l 694 1111 l 0 1111 z m 99 1042 l 596 1042 l 347 500 z m 69 -106 l 69 939 l 308 417 z m 625 939 l 625 -106 l 386 417 z m 347 333 l 596 -208 l 99 -208 z "},"³":{"ha":694,"x_min":0,"x_max":0,"o":"m 0 -278 l 694 -278 l 694 1111 l 0 1111 z m 99 1042 l 596 1042 l 347 500 z m 69 -106 l 69 939 l 308 417 z m 625 939 l 625 -106 l 386 417 z m 347 333 l 596 -208 l 99 -208 z "},"µ":{"ha":694,"x_min":0,"x_max":0,"o":"m 0 -278 l 694 -278 l 694 1111 l 0 1111 z m 99 1042 l 596 1042 l 347 500 z m 69 -106 l 69 939 l 308 417 z m 625 939 l 625 -106 l 386 417 z m 347 333 l 596 -208 l 99 -208 z "},"¹":{"ha":694,"x_min":0,"x_max":0,"o":"m 0 -278 l 694 -278 l 694 1111 l 0 1111 z m 99 1042 l 596 1042 l 347 500 z m 69 -106 l 69 939 l 308 417 z m 625 939 l 625 -106 l 386 417 z m 347 333 l 596 -208 l 99 -208 z "}," ":{"ha":694,"x_min":0,"x_max":0,"o":"m 0 -278 l 694 -278 l 694 1111 l 0 1111 z m 99 1042 l 596 1042 l 347 500 z m 69 -106 l 69 939 l 308 417 z m 625 939 l 625 -106 l 386 417 z m 347 333 l 596 -208 l 99 -208 z "}," ":{"ha":694,"x_min":0,"x_max":0,"o":"m 0 -278 l 694 -278 l 694 1111 l 0 1111 z m 99 1042 l 596 1042 l 347 500 z m 69 -106 l 69 939 l 308 417 z m 625 939 l 625 -106 l 386 417 z m 347 333 l 596 -208 l 99 -208 z "}," ":{"ha":694,"x_min":0,"x_max":0,"o":"m 0 -278 l 694 -278 l 694 1111 l 0 1111 z m 99 1042 l 596 1042 l 347 500 z m 69 -106 l 69 939 l 308 417 z m 625 939 l 625 -106 l 386 417 z m 347 333 l 596 -208 l 99 -208 z "},"―":{"ha":694,"x_min":0,"x_max":0,"o":"m 0 -278 l 694 -278 l 694 1111 l 0 1111 z m 99 1042 l 596 1042 l 347 500 z m 69 -106 l 69 939 l 308 417 z m 625 939 l 625 -106 l 386 417 z m 347 333 l 596 -208 l 99 -208 z "},"‖":{"ha":694,"x_min":0,"x_max":0,"o":"m 0 -278 l 694 -278 l 694 1111 l 0 1111 z m 99 1042 l 596 1042 l 347 500 z m 69 -106 l 69 939 l 308 417 z m 625 939 l 625 -106 l 386 417 z m 347 333 l 596 -208 l 99 -208 z "},"‗":{"ha":694,"x_min":0,"x_max":0,"o":"m 0 -278 l 694 -278 l 694 1111 l 0 1111 z m 99 1042 l 596 1042 l 347 500 z m 69 -106 l 69 939 l 308 417 z m 625 939 l 625 -106 l 386 417 z m 347 333 l 596 -208 l 99 -208 z "},"‛":{"ha":694,"x_min":0,"x_max":0,"o":"m 0 -278 l 694 -278 l 694 1111 l 0 1111 z m 99 1042 l 596 1042 l 347 500 z m 69 -106 l 69 939 l 308 417 z m 625 939 l 625 -106 l 386 417 z m 347 333 l 596 -208 l 99 -208 z "},"‟":{"ha":694,"x_min":0,"x_max":0,"o":"m 0 -278 l 694 -278 l 694 1111 l 0 1111 z m 99 1042 l 596 1042 l 347 500 z m 69 -106 l 69 939 l 308 417 z m 625 939 l 625 -106 l 386 417 z m 347 333 l 596 -208 l 99 -208 z "},"‣":{"ha":694,"x_min":0,"x_max":0,"o":"m 0 -278 l 694 -278 l 694 1111 l 0 1111 z m 99 1042 l 596 1042 l 347 500 z m 69 -106 l 69 939 l 308 417 z m 625 939 l 625 -106 l 386 417 z m 347 333 l 596 -208 l 99 -208 z "},"․":{"ha":694,"x_min":0,"x_max":0,"o":"m 0 -278 l 694 -278 l 694 1111 l 0 1111 z m 99 1042 l 596 1042 l 347 500 z m 69 -106 l 69 939 l 308 417 z m 625 939 l 625 -106 l 386 417 z m 347 333 l 596 -208 l 99 -208 z "},"‥":{"ha":694,"x_min":0,"x_max":0,"o":"m 0 -278 l 694 -278 l 694 1111 l 0 1111 z m 99 1042 l 596 1042 l 347 500 z m 69 -106 l 69 939 l 308 417 z m 625 939 l 625 -106 l 386 417 z m 347 333 l 596 -208 l 99 -208 z "},"℡":{"ha":694,"x_min":0,"x_max":0,"o":"m 0 -278 l 694 -278 l 694 1111 l 0 1111 z m 99 1042 l 596 1042 l 347 500 z m 69 -106 l 69 939 l 308 417 z m 625 939 l 625 -106 l 386 417 z m 347 333 l 596 -208 l 99 -208 z "}," ":{"ha":417,"x_min":0,"x_max":0,"o":""},"!":{"ha":419,"x_min":0,"x_max":0,"o":"m 160 350 b 175 314 161 335 166 323 b 210 300 184 305 196 300 b 245 314 224 300 235 305 b 261 350 255 323 260 335 l 310 917 b 298 959 312 933 308 947 b 260 976 288 971 275 976 l 160 976 b 122 959 144 976 131 971 b 111 917 113 947 109 933 z m 111 103 l 111 89 b 140 21 111 62 121 39 b 210 -7 159 2 182 -7 b 281 21 238 -7 262 2 b 308 89 299 39 308 62 l 308 103 b 281 171 308 130 299 152 b 210 199 262 189 238 199 b 140 171 182 199 159 189 b 111 103 121 152 111 130 z "},"\"":{"ha":676,"x_min":0,"x_max":0,"o":"m 392 601 b 403 563 391 586 395 573 b 438 549 412 553 424 549 b 488 592 461 549 477 563 l 589 900 b 594 931 593 915 594 925 b 582 964 594 944 590 956 b 550 976 574 972 563 976 l 494 976 b 440 954 472 976 454 969 b 415 899 425 939 417 921 z m 86 601 b 99 563 85 586 89 573 b 133 549 108 553 119 549 b 183 592 156 549 173 563 l 285 900 b 290 931 288 915 290 925 b 278 964 290 944 286 956 b 244 976 269 972 258 976 l 190 976 b 135 954 168 976 150 969 b 111 899 121 939 113 921 z "},"#":{"ha":972,"x_min":0,"x_max":0,"o":"m 158 78 b 174 18 155 55 160 35 b 229 -7 189 1 207 -7 b 278 10 249 -7 265 -1 b 303 53 292 22 300 36 l 332 224 l 550 224 l 524 78 b 540 19 520 56 525 36 b 596 -7 555 2 574 -7 b 644 10 614 -7 630 -1 b 668 53 657 21 665 35 l 697 224 l 801 224 b 853 245 822 224 839 231 b 874 296 867 259 874 276 b 853 347 874 316 867 333 b 801 368 839 361 822 368 l 722 368 l 764 610 l 853 610 b 903 631 872 610 889 617 b 925 682 918 646 925 663 b 903 733 925 702 918 719 b 853 754 889 747 872 754 l 789 754 l 813 894 b 797 953 816 916 811 935 b 742 979 782 970 764 979 b 693 963 723 979 707 974 b 668 919 679 951 671 937 l 640 754 l 422 754 l 447 894 b 430 953 450 917 444 936 b 375 979 416 971 397 979 b 327 963 356 979 341 974 b 303 919 314 951 306 937 l 275 754 l 169 754 b 119 733 150 754 133 747 b 97 682 104 718 97 701 b 119 631 97 663 104 646 b 169 610 133 617 150 610 l 250 610 l 208 368 l 119 368 b 68 347 99 368 82 361 b 47 296 54 332 47 315 b 68 244 47 275 54 258 b 119 224 82 231 99 224 l 183 224 z m 357 368 l 399 610 l 615 610 l 574 368 z "},"$":{"ha":892,"x_min":0,"x_max":0,"o":"m 396 1000 l 396 971 b 185 888 309 963 238 936 b 104 706 131 841 104 780 b 175 525 104 629 128 569 b 401 419 222 481 298 446 l 401 146 b 196 239 333 158 264 189 b 150 254 183 249 168 254 b 96 232 129 254 111 247 b 74 178 81 217 74 199 b 111 111 74 149 86 127 b 396 3 198 50 293 14 l 396 -83 b 414 -126 396 -100 402 -114 b 457 -143 426 -137 440 -143 b 499 -126 474 -143 488 -137 b 517 -83 511 -114 517 -100 l 517 0 b 732 85 606 8 678 37 b 813 271 786 134 813 196 b 741 449 813 345 789 404 b 511 557 693 494 617 530 l 511 824 b 654 763 556 813 604 793 b 696 750 668 754 682 750 b 751 772 717 750 735 757 b 774 826 766 787 774 805 b 732 893 774 855 760 877 b 517 969 665 935 594 960 l 517 1000 b 499 1042 517 1017 511 1031 b 457 1060 488 1054 474 1060 b 414 1042 440 1060 426 1054 b 396 1000 402 1031 396 1017 z m 649 261 b 613 179 649 228 637 200 b 511 140 590 158 556 145 l 511 393 b 619 339 563 377 599 359 b 649 261 639 319 649 293 z m 268 715 b 302 794 268 747 279 773 b 401 832 325 816 358 828 l 401 586 b 296 640 350 603 314 621 b 268 715 277 660 268 685 z "},"%":{"ha":1179,"x_min":0,"x_max":0,"o":"m 294 486 b 460 558 362 486 417 510 b 525 735 503 606 525 665 l 525 738 b 462 912 525 806 504 864 b 297 983 420 959 365 983 b 131 911 230 983 174 959 b 67 735 88 863 67 804 l 67 732 b 131 558 67 663 88 605 b 294 486 173 510 228 486 z m 214 47 b 229 9 214 32 219 20 b 268 -7 239 -2 252 -7 b 317 18 289 -7 306 1 l 954 889 b 967 925 963 901 967 913 b 951 963 967 940 961 953 b 911 979 940 974 927 979 b 864 954 889 979 873 971 l 226 83 b 214 47 218 71 214 59 z m 882 -11 b 1048 62 950 -11 1005 13 b 1113 238 1091 110 1113 169 l 1113 240 b 1049 415 1113 309 1091 367 b 885 486 1006 462 951 486 b 719 414 817 486 762 462 b 654 238 676 366 654 307 l 654 235 b 718 60 654 166 675 108 b 882 -11 761 13 815 -11 z m 297 593 b 221 634 267 593 241 607 b 190 735 200 661 190 695 l 190 738 b 219 836 190 776 200 809 b 294 876 238 863 263 876 b 371 835 325 876 350 863 b 401 735 391 808 401 775 l 401 732 b 373 633 401 693 392 660 b 297 593 354 606 329 593 z m 885 96 b 808 137 854 96 829 109 b 778 238 788 164 778 198 l 778 240 b 806 339 778 279 787 312 b 882 379 825 366 850 379 b 958 338 913 379 938 366 b 989 238 979 311 989 277 l 989 235 b 960 136 989 196 979 163 b 885 96 941 109 916 96 z "},"&":{"ha":967,"x_min":0,"x_max":0,"o":"m 833 -14 b 887 8 855 -14 872 -6 b 908 63 901 23 908 41 b 882 121 908 84 900 103 l 774 229 b 879 400 812 283 847 340 b 889 438 886 413 889 425 b 867 488 889 457 882 474 b 815 510 853 503 836 510 b 751 469 785 510 763 496 b 671 331 724 414 697 368 l 506 499 b 718 751 647 552 718 637 l 718 754 b 646 922 718 821 694 877 b 460 989 598 966 536 989 b 257 917 375 989 308 965 b 181 744 206 870 181 812 l 181 742 b 261 539 181 675 207 607 b 54 267 123 480 54 389 l 54 264 b 144 63 54 181 84 113 b 372 -14 203 12 280 -14 b 672 115 483 -14 583 29 l 774 13 b 833 -14 791 -5 811 -14 z m 414 590 b 340 735 365 644 340 692 l 340 738 b 373 822 340 772 351 800 b 457 854 395 843 423 854 b 536 824 489 854 516 844 b 567 744 556 803 567 777 l 567 742 b 529 654 567 707 554 678 b 414 590 504 630 466 609 z m 389 128 b 272 168 342 128 303 141 b 226 269 242 195 226 229 l 226 272 b 357 435 226 343 270 397 l 574 214 b 389 128 513 156 452 128 z "},"'":{"ha":374,"x_min":0,"x_max":0,"o":"m 86 601 b 99 563 85 586 89 573 b 133 549 108 553 119 549 b 185 592 157 549 175 563 l 286 900 b 292 931 290 915 292 925 b 278 964 292 944 287 956 b 244 976 270 972 258 976 l 190 976 b 135 954 168 976 150 969 b 111 899 121 939 113 921 z "},"(":{"ha":613,"x_min":0,"x_max":0,"o":"m 481 -187 b 525 -167 497 -187 512 -181 b 544 -119 538 -153 544 -137 b 517 -62 544 -95 535 -76 b 319 142 428 0 362 69 b 256 399 277 216 256 301 b 319 655 256 496 277 581 b 517 860 362 728 428 797 b 544 917 535 874 544 893 b 525 964 544 934 538 950 b 481 985 512 978 497 985 b 440 975 462 985 449 981 b 88 399 205 834 88 642 b 440 -178 88 155 205 -37 b 481 -187 449 -184 462 -187 z "},")":{"ha":613,"x_min":0,"x_max":0,"o":"m 131 -187 b 171 -178 149 -187 163 -184 b 525 399 407 -37 525 155 b 171 975 525 642 407 834 b 131 985 163 981 149 985 b 86 964 114 985 99 978 b 67 917 73 950 67 934 b 96 860 67 894 76 875 b 293 655 185 797 250 728 b 357 399 336 581 357 496 b 293 142 357 301 336 216 b 96 -62 250 69 185 0 b 67 -119 76 -77 67 -96 b 86 -167 67 -137 73 -153 b 131 -187 99 -181 114 -187 z "},"*":{"ha":597,"x_min":0,"x_max":0,"o":"m 256 575 b 265 538 254 560 257 548 b 299 524 274 528 285 524 b 332 539 313 524 324 529 b 342 576 340 549 344 562 l 328 700 l 432 624 b 465 610 446 614 457 610 b 499 624 478 610 489 614 b 513 656 508 633 513 644 b 481 700 513 676 502 691 l 358 753 l 481 807 b 513 850 502 816 513 831 b 499 883 513 863 508 874 b 467 896 491 891 480 896 b 432 882 456 896 444 891 l 328 806 l 342 931 b 332 967 344 945 340 958 b 299 982 324 977 313 982 b 265 967 285 982 274 977 b 256 929 257 956 254 944 l 269 806 l 165 882 b 132 896 153 891 142 896 b 99 882 119 896 108 891 b 85 850 89 873 85 862 b 117 807 85 831 95 816 l 239 753 l 117 700 b 85 657 95 691 85 676 b 99 624 85 644 89 633 b 131 610 108 614 119 610 b 165 624 140 610 151 614 l 269 700 z "},"+":{"ha":881,"x_min":0,"x_max":0,"o":"m 361 219 b 384 163 361 197 369 178 b 440 140 399 148 418 140 b 496 163 462 140 480 148 b 519 219 512 178 519 197 l 519 413 l 717 413 b 771 435 738 413 756 420 b 793 489 786 450 793 468 b 770 542 793 509 785 527 b 717 565 755 558 737 565 l 519 565 l 519 758 b 496 815 519 781 512 799 b 440 838 480 830 462 838 b 384 815 418 838 399 830 b 361 758 369 799 361 781 l 361 565 l 164 565 b 110 542 144 565 126 558 b 88 489 95 527 88 509 b 110 435 88 468 95 450 b 164 413 125 420 143 413 l 361 413 z "},",":{"ha":374,"x_min":0,"x_max":0,"o":"m 42 -162 b 85 -201 42 -188 56 -201 b 215 -142 130 -201 174 -181 b 283 61 261 -94 283 -27 l 283 76 b 257 166 283 114 275 144 b 183 199 239 188 215 199 b 115 172 156 199 133 190 b 89 106 98 155 89 132 l 89 94 b 112 35 89 71 97 51 b 168 0 127 18 146 6 b 74 -125 171 -62 139 -104 b 42 -162 52 -130 42 -142 z "},"-":{"ha":567,"x_min":0,"x_max":0,"o":"m 153 343 l 414 343 b 472 367 436 343 455 351 b 496 425 488 384 496 403 b 472 484 496 448 488 468 b 414 508 455 500 436 508 l 153 508 b 95 484 131 508 111 500 b 71 425 79 468 71 448 b 95 367 71 403 79 384 b 153 343 111 351 131 343 z "},".":{"ha":374,"x_min":0,"x_max":0,"o":"m 89 103 l 89 89 b 117 21 89 62 98 39 b 188 -7 135 2 159 -7 b 257 21 215 -7 238 2 b 285 89 275 39 285 62 l 285 103 b 257 171 285 130 275 152 b 188 199 238 189 215 199 b 117 171 159 199 135 189 b 89 103 98 152 89 130 z "},"/":{"ha":724,"x_min":0,"x_max":0,"o":"m 0 -121 b 19 -166 0 -138 6 -153 b 67 -185 32 -178 48 -185 b 126 -146 94 -185 113 -172 l 696 1018 b 703 1051 700 1032 703 1043 b 683 1097 703 1069 696 1084 b 638 1115 670 1109 655 1115 b 576 1076 610 1115 589 1102 l 8 -87 b 0 -121 3 -99 0 -110 z "},":":{"ha":388,"x_min":0,"x_max":0,"o":"m 96 644 l 96 632 b 124 563 96 604 105 581 b 194 535 142 544 166 535 b 264 563 222 535 245 544 b 292 632 282 581 292 604 l 292 644 b 264 714 292 672 282 695 b 194 742 245 732 222 742 b 124 714 166 742 142 732 b 96 644 105 695 96 672 z m 96 103 l 96 89 b 124 21 96 62 105 39 b 194 -7 142 2 166 -7 b 264 21 222 -7 245 2 b 292 89 282 39 292 62 l 292 103 b 264 171 292 130 282 152 b 194 199 245 189 222 199 b 124 171 166 199 142 189 b 96 103 105 152 96 130 z "},";":{"ha":388,"x_min":0,"x_max":0,"o":"m 96 644 l 96 632 b 124 563 96 604 105 581 b 194 535 142 544 166 535 b 264 563 222 535 245 544 b 292 632 282 581 292 604 l 292 644 b 264 714 292 672 282 695 b 194 742 245 732 222 742 b 124 714 166 742 142 732 b 96 644 105 695 96 672 z m 49 -162 b 92 -201 49 -188 63 -201 b 222 -142 137 -201 181 -181 b 290 61 268 -94 290 -27 l 290 76 b 264 166 290 114 281 144 b 190 199 246 188 222 199 b 122 172 163 199 140 190 b 96 106 105 155 96 132 l 96 94 b 119 35 96 71 103 51 b 175 0 134 18 153 6 b 81 -125 178 -62 146 -104 b 49 -162 59 -130 49 -142 z "},"<":{"ha":881,"x_min":0,"x_max":0,"o":"m 690 133 b 743 153 712 133 729 140 b 764 204 757 167 764 184 b 717 275 764 237 748 260 l 260 490 l 717 704 b 764 774 748 719 764 742 b 744 825 764 794 757 811 b 696 844 730 839 714 845 b 653 833 682 844 668 841 l 151 588 b 85 494 107 567 85 536 l 85 483 b 151 390 85 442 107 411 l 653 144 b 690 133 668 137 680 133 z "},"=":{"ha":881,"x_min":0,"x_max":0,"o":"m 176 585 l 704 585 b 759 608 725 585 744 592 b 782 663 774 623 782 641 b 759 717 782 684 774 702 b 704 740 744 733 725 740 l 176 740 b 122 717 155 740 137 733 b 99 663 106 702 99 684 b 122 608 99 641 106 623 b 176 585 137 592 155 585 z m 176 238 l 704 238 b 759 260 725 238 744 245 b 782 315 774 276 782 294 b 759 370 782 337 774 355 b 704 393 744 385 725 393 l 176 393 b 122 370 155 393 137 385 b 99 315 106 355 99 337 b 122 260 99 294 106 276 b 176 238 137 245 155 238 z "},">":{"ha":881,"x_min":0,"x_max":0,"o":"m 190 844 b 138 824 169 844 151 838 b 117 774 124 811 117 794 b 164 703 117 741 132 718 l 621 488 l 164 272 b 117 204 132 258 117 236 b 137 153 117 184 123 167 b 185 133 150 139 166 132 b 228 144 199 133 213 137 l 728 390 b 796 483 773 411 796 442 l 796 494 b 728 588 796 536 773 567 l 228 833 b 190 844 213 841 200 844 z "},"?":{"ha":751,"x_min":0,"x_max":0,"o":"m 349 300 b 388 316 364 300 378 305 b 408 356 399 327 406 340 l 414 419 b 694 700 601 452 694 545 l 694 703 b 605 908 694 789 665 857 b 368 985 545 959 466 985 b 74 869 253 985 155 946 b 46 810 55 854 46 834 b 69 756 46 788 53 770 b 124 733 84 741 102 733 b 175 753 142 733 159 740 b 364 829 231 804 294 829 b 481 793 413 829 452 817 b 524 697 509 769 524 737 l 524 694 b 321 544 524 607 456 557 b 278 522 302 543 288 535 b 267 475 268 509 264 494 l 281 356 b 300 316 282 340 289 327 b 340 300 311 305 325 300 z m 242 103 l 242 89 b 269 21 242 62 251 39 b 340 -7 288 2 312 -7 b 411 21 369 -7 393 2 b 439 89 430 39 439 62 l 439 103 b 411 171 439 130 430 152 b 340 199 393 189 369 199 b 269 171 312 199 288 189 b 242 103 251 152 242 130 z "},"@":{"ha":1361,"x_min":0,"x_max":0,"o":"m 693 -225 b 1049 -128 821 -225 939 -193 b 1061 -107 1057 -124 1061 -117 b 1055 -90 1061 -100 1059 -95 b 1039 -82 1051 -84 1045 -82 b 1024 -86 1032 -82 1027 -83 b 693 -172 923 -144 813 -172 b 289 -12 530 -172 395 -119 b 129 381 182 94 129 225 b 288 774 129 534 182 665 b 682 936 394 882 525 936 b 1072 786 836 936 966 886 b 1232 439 1179 686 1232 570 b 1179 228 1232 348 1214 278 b 1049 154 1144 179 1100 154 b 969 181 1015 154 989 163 b 940 253 950 198 940 222 b 947 313 940 265 943 285 l 1000 610 b 985 670 1004 634 999 654 b 933 694 972 686 955 694 b 861 625 894 694 869 671 l 857 600 b 661 703 813 669 747 703 b 442 601 579 703 506 669 b 346 356 378 534 346 452 b 418 166 346 278 370 215 b 597 93 466 117 526 93 b 813 190 678 93 750 125 b 1018 93 853 125 922 93 b 1210 183 1095 93 1159 123 b 1288 439 1262 242 1288 328 b 1240 646 1288 510 1272 579 b 1113 822 1209 713 1166 771 b 920 943 1060 872 996 913 b 682 989 845 974 765 989 b 251 810 513 989 369 929 b 74 381 133 690 74 547 b 251 -48 74 213 133 70 b 693 -225 370 -166 517 -225 z m 635 214 b 529 253 591 214 556 227 b 489 364 502 280 489 317 b 546 519 489 425 508 477 b 681 583 584 562 629 583 b 785 542 722 583 757 569 b 826 433 813 514 826 478 b 769 279 826 374 807 323 b 635 214 730 236 686 214 z "},"A":{"ha":1074,"x_min":0,"x_max":0,"o":"m 58 72 b 81 16 58 50 66 31 b 138 -7 97 1 115 -7 b 217 47 175 -7 202 11 l 299 235 l 771 235 l 850 53 b 933 -7 867 13 894 -7 b 991 17 956 -7 976 1 b 1014 75 1006 32 1014 52 b 1004 111 1014 87 1011 99 l 643 917 b 542 986 622 963 588 986 l 533 986 b 431 917 486 986 452 963 l 69 111 b 58 72 62 96 58 83 z m 364 386 l 535 779 l 706 386 z "},"B":{"ha":1003,"x_min":0,"x_max":0,"o":"m 125 86 b 150 25 125 62 133 42 b 211 0 167 8 187 0 l 575 0 b 838 69 685 0 773 23 b 935 267 902 116 935 181 l 935 269 b 742 506 935 383 870 462 b 881 722 834 554 881 626 l 881 725 b 815 886 881 789 859 843 b 561 972 758 944 673 972 l 211 972 b 150 947 187 972 167 964 b 125 886 133 931 125 910 z m 293 563 l 293 821 l 539 821 b 665 788 594 821 636 810 b 710 697 695 766 710 736 l 710 694 b 660 596 710 651 693 618 b 526 563 628 574 583 563 z m 293 151 l 293 418 l 564 418 b 764 288 697 418 764 375 l 764 285 b 715 185 764 241 747 208 b 576 151 682 163 636 151 z "},"C":{"ha":1025,"x_min":0,"x_max":0,"o":"m 576 -17 b 929 114 713 -17 830 27 b 957 175 948 131 957 151 b 933 231 957 196 949 215 b 876 254 916 246 898 254 b 825 235 857 254 840 248 b 582 142 752 173 671 142 b 353 242 490 142 414 175 b 261 486 292 308 261 390 l 261 489 b 353 733 261 585 292 666 b 582 832 414 799 490 832 b 814 744 664 832 742 803 b 865 728 829 733 846 728 b 926 752 889 728 909 736 b 950 811 942 768 950 788 b 917 879 950 840 939 863 b 583 989 821 952 710 989 b 224 843 438 989 318 940 b 82 486 129 746 82 627 l 82 483 b 224 128 82 343 129 224 b 576 -17 318 31 436 -17 z "},"D":{"ha":1086,"x_min":0,"x_max":0,"o":"m 125 86 b 150 25 125 62 133 42 b 211 0 167 8 187 0 l 488 0 b 859 139 638 0 762 46 b 1004 486 956 231 1004 347 l 1004 489 b 859 834 1004 627 956 742 b 488 972 762 926 638 972 l 211 972 b 150 947 187 972 167 964 b 125 886 133 931 125 910 z m 296 156 l 296 817 l 488 817 b 732 724 588 817 670 786 b 825 486 794 662 825 582 l 825 483 b 732 247 825 387 794 308 b 488 156 670 186 588 156 z "},"E":{"ha":931,"x_min":0,"x_max":0,"o":"m 211 0 l 783 0 b 838 22 805 0 823 7 b 860 76 852 37 860 55 b 837 131 860 98 852 116 b 783 153 822 145 804 153 l 296 153 l 296 414 l 714 414 b 768 436 735 414 753 421 b 790 489 783 451 790 469 b 768 544 790 510 783 528 b 714 567 753 559 735 567 l 296 567 l 296 819 l 776 819 b 831 842 798 819 816 827 b 853 896 845 856 853 875 b 831 950 853 917 845 935 b 776 972 816 965 798 972 l 211 972 b 150 947 187 972 167 964 b 125 886 133 931 125 910 l 125 86 b 150 25 125 62 133 42 b 211 0 167 8 187 0 z "},"F":{"ha":911,"x_min":0,"x_max":0,"o":"m 125 78 b 150 17 125 54 133 34 b 211 -7 167 1 187 -7 b 272 17 235 -7 255 1 b 296 78 288 34 296 54 l 296 396 l 715 396 b 770 419 737 396 755 403 b 793 474 785 434 793 452 b 770 528 793 495 785 513 b 715 551 755 544 737 551 l 296 551 l 296 817 l 778 817 b 833 840 799 817 817 824 b 856 894 848 855 856 873 b 833 949 856 916 848 934 b 778 972 817 965 799 972 l 211 972 b 150 947 187 972 167 964 b 125 886 133 931 125 910 z "},"G":{"ha":1089,"x_min":0,"x_max":0,"o":"m 586 -17 b 932 89 711 -17 826 19 b 992 197 972 114 992 150 l 992 457 b 967 518 992 481 983 501 b 906 543 950 535 930 543 l 635 543 b 581 521 613 543 595 536 b 558 468 566 506 558 488 b 581 416 558 448 566 430 b 635 394 595 402 613 394 l 826 394 l 826 213 b 592 139 761 163 682 139 b 353 237 494 139 414 172 b 261 486 292 302 261 385 l 261 489 b 352 731 261 583 291 664 b 576 832 413 798 488 832 b 813 756 664 832 743 806 b 865 736 831 743 849 736 b 925 761 888 736 908 744 b 950 821 942 778 950 798 b 915 890 950 850 938 873 b 583 989 824 956 713 989 b 224 842 439 989 319 940 b 82 486 129 744 82 625 l 82 483 b 222 126 82 340 128 221 b 586 -17 315 31 436 -17 z "},"H":{"ha":1056,"x_min":0,"x_max":0,"o":"m 125 78 b 150 17 125 54 133 34 b 211 -7 167 1 187 -7 b 272 17 235 -7 255 1 b 296 78 288 34 296 54 l 296 410 l 760 410 l 760 78 b 784 17 760 54 768 34 b 844 -7 800 1 820 -7 b 906 17 869 -7 889 1 b 931 78 922 34 931 54 l 931 894 b 906 955 931 919 922 939 b 844 979 889 971 869 979 b 784 955 820 979 800 971 b 760 894 768 939 760 919 l 760 568 l 296 568 l 296 894 b 272 955 296 919 288 939 b 211 979 255 971 235 979 b 150 955 187 979 167 971 b 125 894 133 939 125 919 z "},"I":{"ha":440,"x_min":0,"x_max":0,"o":"m 135 78 b 160 17 135 54 143 34 b 221 -7 176 1 197 -7 b 281 17 244 -7 264 1 b 306 78 297 34 306 54 l 306 894 b 281 955 306 919 297 939 b 221 979 264 971 244 979 b 160 955 197 979 176 971 b 135 894 143 939 135 919 z "},"J":{"ha":778,"x_min":0,"x_max":0,"o":"m 340 -14 b 576 72 440 -14 519 15 b 668 331 638 133 668 219 l 668 894 b 643 954 668 918 660 938 b 582 979 626 971 606 979 b 521 954 558 979 538 971 b 496 894 504 938 496 918 l 496 336 b 454 192 496 272 482 224 b 339 144 426 160 388 144 b 181 219 281 144 229 169 b 128 239 165 232 147 239 b 69 215 105 239 85 231 b 46 157 54 200 46 180 b 75 93 46 132 56 111 b 340 -14 146 22 235 -14 z "},"K":{"ha":990,"x_min":0,"x_max":0,"o":"m 125 78 b 150 17 125 54 133 34 b 211 -7 167 1 187 -7 b 272 17 235 -7 255 1 b 296 78 288 34 296 54 l 296 279 l 454 432 l 767 33 b 839 -7 787 6 811 -7 b 900 17 863 -7 883 1 b 925 76 917 34 925 53 b 901 138 925 97 917 117 l 574 544 l 876 836 b 907 900 897 855 907 876 b 885 956 907 921 900 940 b 828 979 870 971 851 979 b 757 947 800 979 776 969 l 296 483 l 296 894 b 272 955 296 919 288 939 b 211 979 255 971 235 979 b 150 955 187 979 167 971 b 125 894 133 939 125 919 z "},"L":{"ha":860,"x_min":0,"x_max":0,"o":"m 125 86 b 150 25 125 62 133 42 b 211 0 167 8 187 0 l 736 0 b 791 23 757 0 776 8 b 814 78 806 38 814 56 b 791 133 814 99 806 117 b 736 156 776 148 757 156 l 296 156 l 296 894 b 272 955 296 919 288 939 b 211 979 255 971 235 979 b 150 955 187 979 167 971 b 125 894 133 939 125 919 z "},"M":{"ha":1206,"x_min":0,"x_max":0,"o":"m 125 76 b 149 17 125 53 133 34 b 208 -7 164 1 184 -7 b 269 17 232 -7 253 1 b 293 76 285 34 293 53 l 293 658 l 529 304 b 600 260 549 275 572 260 b 672 304 629 260 653 275 l 910 661 l 910 78 b 935 18 910 55 918 35 b 994 -7 951 1 971 -7 b 1056 17 1019 -7 1039 1 b 1081 78 1072 34 1081 54 l 1081 892 b 1056 953 1081 916 1072 936 b 994 978 1039 969 1019 978 l 976 978 b 899 933 943 978 917 963 l 603 471 l 308 932 b 229 978 289 963 263 978 l 211 978 b 150 953 187 978 167 969 b 125 892 133 936 125 916 z "},"N":{"ha":1097,"x_min":0,"x_max":0,"o":"m 125 76 b 150 17 125 53 133 34 b 210 -7 167 1 187 -7 b 269 17 233 -7 253 1 b 293 76 285 34 293 53 l 293 693 l 793 46 b 882 -6 820 12 850 -6 l 889 -6 b 948 19 912 -6 932 3 b 972 79 964 35 972 55 l 972 896 b 947 955 972 919 964 939 b 888 979 931 971 911 979 b 828 955 864 979 845 971 b 804 896 812 939 804 919 l 804 299 l 318 928 b 229 978 291 961 262 978 l 211 978 b 150 953 187 978 167 969 b 125 892 133 936 125 916 z "},"O":{"ha":1181,"x_min":0,"x_max":0,"o":"m 589 -17 b 954 131 736 -17 858 32 b 1099 486 1050 229 1099 347 l 1099 489 b 956 843 1099 628 1051 746 b 592 989 860 940 739 989 b 226 842 444 989 323 940 b 82 486 130 744 82 625 l 82 483 b 225 129 82 344 130 226 b 589 -17 320 32 442 -17 z m 592 142 b 355 242 496 142 417 175 b 261 486 292 308 261 390 l 261 489 b 353 733 261 585 292 666 b 589 832 415 799 494 832 b 826 731 684 832 763 798 b 919 486 888 664 919 582 l 919 483 b 827 240 919 387 889 306 b 592 142 766 175 687 142 z "},"P":{"ha":928,"x_min":0,"x_max":0,"o":"m 125 78 b 150 17 125 54 133 34 b 211 -7 167 1 187 -7 b 272 17 235 -7 255 1 b 296 78 288 34 296 54 l 296 313 l 489 313 b 767 400 601 313 694 342 b 878 644 841 458 878 540 l 878 647 b 778 883 878 745 844 824 b 508 972 711 943 621 972 l 211 972 b 150 947 187 972 167 964 b 125 886 133 931 125 910 z m 296 467 l 296 817 l 494 817 b 648 772 559 817 610 802 b 704 643 685 741 704 699 l 704 640 b 647 515 704 589 685 548 b 494 467 609 483 558 467 z "},"Q":{"ha":1181,"x_min":0,"x_max":0,"o":"m 589 -17 b 885 75 700 -17 799 14 l 954 13 b 1014 -12 971 -4 991 -12 b 1071 12 1036 -12 1055 -4 b 1094 69 1087 28 1094 47 b 1063 136 1094 95 1084 118 l 1000 188 b 1099 486 1066 276 1099 376 l 1099 489 b 956 843 1099 628 1051 746 b 592 989 860 940 739 989 b 226 842 444 989 323 940 b 82 486 130 744 82 625 l 82 483 b 225 129 82 344 130 226 b 589 -17 320 32 442 -17 z m 639 289 l 760 186 b 592 142 710 156 654 142 b 355 242 496 142 417 175 b 261 486 292 308 261 390 l 261 489 b 353 733 261 585 292 666 b 589 832 415 799 494 832 b 826 731 684 832 763 798 b 919 486 888 664 919 582 l 919 483 b 872 299 919 415 904 353 l 747 413 b 688 438 728 429 708 438 b 631 413 665 438 646 429 b 607 356 615 397 607 378 b 639 289 607 330 618 307 z "},"R":{"ha":1004,"x_min":0,"x_max":0,"o":"m 125 78 b 150 17 125 54 133 34 b 211 -7 167 1 187 -7 b 272 17 235 -7 255 1 b 296 78 288 34 296 54 l 296 339 l 511 339 l 747 38 b 831 -7 769 8 797 -7 b 888 15 852 -7 871 0 b 913 72 904 30 913 49 b 885 138 913 93 903 114 l 699 372 b 860 477 767 394 821 428 b 919 663 900 526 919 588 l 919 665 b 839 875 919 750 893 819 b 558 972 772 940 679 972 l 211 972 b 150 947 187 972 167 964 b 125 886 133 931 125 910 z m 296 490 l 296 817 l 544 817 b 693 775 608 817 658 803 b 746 656 728 747 746 707 l 746 653 b 692 535 746 604 728 564 b 546 490 656 505 607 490 z "},"S":{"ha":889,"x_min":0,"x_max":0,"o":"m 465 -14 b 717 64 569 -14 653 12 b 813 276 781 116 813 187 l 813 279 b 738 460 813 357 788 417 b 501 564 688 503 609 538 b 316 628 409 586 347 608 b 269 717 285 649 269 679 l 269 719 b 313 802 269 753 284 780 b 428 835 341 824 380 835 b 651 761 501 835 575 810 b 696 749 665 753 680 749 b 753 772 718 749 737 756 b 776 828 769 787 776 806 b 739 896 776 859 764 882 b 431 986 648 956 545 986 b 192 908 333 986 254 960 b 99 704 130 855 99 788 l 99 701 b 119 588 99 658 105 620 b 183 507 132 556 154 529 b 283 453 213 485 246 467 b 422 411 320 439 367 425 b 597 349 509 391 568 370 b 642 263 627 327 642 299 l 642 260 b 595 172 642 224 626 194 b 469 138 564 149 522 138 b 197 238 372 138 281 171 b 147 253 183 248 167 253 b 90 230 125 253 106 245 b 67 174 75 215 67 196 b 100 108 67 146 78 124 b 465 -14 209 27 331 -14 z "},"T":{"ha":900,"x_min":0,"x_max":0,"o":"m 364 78 b 389 18 364 55 372 35 b 450 -7 406 1 426 -7 b 511 18 474 -7 494 1 b 536 78 528 35 536 55 l 536 814 l 774 814 b 828 838 795 814 813 822 b 851 893 844 853 851 872 b 828 949 851 914 844 933 b 774 972 813 964 795 972 l 128 972 b 72 949 106 972 87 964 b 49 893 56 933 49 914 b 72 838 49 872 56 853 b 128 814 87 822 106 814 l 364 814 z "},"U":{"ha":1051,"x_min":0,"x_max":0,"o":"m 524 -15 b 831 97 654 -15 756 22 b 942 421 905 171 942 279 l 942 894 b 917 955 942 919 933 939 b 857 979 900 971 880 979 b 796 955 833 979 813 971 b 771 894 779 939 771 919 l 771 413 b 706 212 771 325 749 258 b 526 143 663 166 603 143 b 345 215 449 143 388 167 b 281 419 302 262 281 331 l 281 894 b 256 955 281 919 272 939 b 196 979 239 971 219 979 b 135 955 172 979 151 971 b 110 894 118 939 110 919 l 110 413 b 220 94 110 274 147 168 b 524 -15 294 21 395 -15 z "},"V":{"ha":1018,"x_min":0,"x_max":0,"o":"m 504 -14 l 514 -14 b 613 56 560 -14 593 9 l 954 861 b 963 897 960 874 963 886 b 938 956 963 920 954 940 b 878 979 922 971 902 979 b 826 963 858 979 841 974 b 796 924 812 953 801 939 l 511 217 l 231 918 b 143 979 215 959 186 979 b 82 955 119 979 99 971 b 57 896 65 939 57 919 b 67 856 57 884 60 870 l 407 56 b 504 -14 426 9 459 -14 z "},"W":{"ha":1526,"x_min":0,"x_max":0,"o":"m 353 57 b 442 -14 370 10 400 -14 l 458 -14 b 547 57 501 -14 531 10 l 764 692 l 981 57 b 1068 -14 997 10 1026 -14 l 1085 -14 b 1174 57 1127 -14 1157 10 l 1461 863 b 1469 897 1467 875 1469 887 b 1444 956 1469 920 1461 940 b 1385 979 1428 971 1408 979 b 1301 918 1344 979 1316 959 l 1078 249 l 858 914 b 772 982 844 959 816 982 l 760 982 b 674 914 718 982 689 959 l 454 249 l 231 917 b 199 962 225 935 215 950 b 146 979 184 973 166 979 b 84 955 122 979 101 971 b 58 896 67 939 58 919 b 65 863 58 885 61 874 z "},"X":{"ha":992,"x_min":0,"x_max":0,"o":"m 75 72 b 99 15 75 49 83 30 b 153 -7 114 0 132 -7 b 236 40 184 -7 212 9 l 493 375 l 754 35 b 832 -7 775 7 801 -7 b 892 17 856 -7 876 1 b 917 76 909 32 917 52 b 890 140 917 96 908 117 l 604 497 l 876 836 b 903 901 894 858 903 880 b 879 957 903 924 895 942 b 825 979 863 972 845 979 b 742 932 793 979 765 963 l 499 614 l 253 938 b 175 979 232 965 206 979 b 115 956 151 979 131 971 b 90 896 98 940 90 920 b 117 832 90 876 99 855 l 389 494 l 100 136 b 75 72 83 113 75 92 z "},"Y":{"ha":967,"x_min":0,"x_max":0,"o":"m 399 78 b 423 17 399 54 407 34 b 483 -7 439 1 459 -7 b 544 17 507 -7 528 1 b 569 78 561 34 569 54 l 569 382 l 901 836 b 925 897 917 857 925 878 b 901 956 925 920 917 940 b 842 981 886 972 866 981 b 760 929 810 981 783 963 l 485 538 l 214 928 b 131 979 191 962 163 979 b 69 956 106 979 86 971 b 44 897 53 940 44 920 b 64 838 44 877 51 857 l 399 378 z "},"Z":{"ha":975,"x_min":0,"x_max":0,"o":"m 161 0 l 818 0 b 872 22 839 0 857 7 b 894 75 887 37 894 55 b 872 128 894 95 887 113 b 818 151 857 144 839 151 l 313 151 l 861 814 b 892 893 881 840 892 866 l 892 897 b 869 950 892 918 884 935 b 815 972 853 965 836 972 l 176 972 b 124 949 156 972 138 965 b 101 896 109 934 101 916 b 124 843 101 875 109 858 b 176 821 138 828 156 821 l 664 821 l 117 158 b 85 79 95 134 85 108 l 85 75 b 108 22 85 55 92 37 b 161 0 123 7 141 0 z "},"[":{"ha":632,"x_min":0,"x_max":0,"o":"m 122 -97 b 146 -156 122 -120 130 -140 b 204 -181 162 -172 181 -181 l 490 -181 b 537 -161 508 -181 523 -174 b 557 -114 550 -148 557 -132 b 538 -68 557 -96 550 -81 b 490 -49 525 -55 509 -49 l 283 -49 l 283 840 l 490 840 b 538 860 509 840 525 847 b 557 906 550 873 557 888 b 537 953 557 924 550 940 b 490 972 523 966 508 972 l 204 972 b 146 948 181 972 162 964 b 122 889 130 932 122 912 z "},"\\":{"ha":724,"x_min":0,"x_max":0,"o":"m 724 -121 b 715 -87 724 -110 721 -99 l 147 1076 b 86 1115 134 1102 114 1115 b 40 1097 69 1115 53 1109 b 21 1051 27 1084 21 1069 b 28 1018 21 1043 23 1032 l 597 -146 b 657 -185 610 -172 630 -185 b 704 -166 675 -185 691 -178 b 724 -121 717 -153 724 -138 z "},"]":{"ha":632,"x_min":0,"x_max":0,"o":"m 510 889 b 485 948 510 912 502 932 b 426 972 469 964 450 972 l 140 972 b 94 953 123 972 107 966 b 75 906 81 940 75 924 b 94 859 75 887 81 872 b 140 840 107 847 123 840 l 349 840 l 349 -49 l 140 -49 b 94 -67 123 -49 107 -55 b 75 -114 81 -80 75 -95 b 94 -161 75 -132 81 -148 b 140 -181 107 -174 123 -181 l 426 -181 b 485 -156 450 -181 469 -172 b 510 -97 502 -140 510 -120 z "},"^":{"ha":694,"x_min":0,"x_max":0,"o":"m 346 868 l 446 739 b 494 690 464 715 481 699 b 547 678 508 682 526 678 b 586 706 573 678 586 687 b 571 747 586 718 581 731 l 439 928 b 353 978 414 961 385 978 l 340 978 b 256 928 307 978 279 961 l 124 747 b 107 706 113 732 107 719 b 146 678 107 687 120 678 b 197 690 166 678 183 682 b 246 739 211 699 227 715 z "},"_":{"ha":833,"x_min":0,"x_max":0,"o":"m -3 -222 l 836 -222 b 883 -203 855 -222 870 -216 b 901 -157 895 -190 901 -175 b 883 -111 901 -139 895 -124 b 836 -92 870 -98 855 -92 l -3 -92 b -49 -111 -21 -92 -37 -98 b -68 -157 -62 -124 -68 -139 b -49 -203 -68 -175 -62 -190 b -3 -222 -37 -216 -21 -222 z "},"`":{"ha":694,"x_min":0,"x_max":0,"o":"m 407 819 b 450 849 436 819 450 829 b 438 879 450 857 446 867 l 358 1001 b 292 1042 342 1028 319 1042 b 224 1024 269 1042 246 1036 b 192 988 203 1013 192 1000 b 215 946 192 974 200 960 l 310 857 b 407 819 336 832 368 819 z "},"a":{"ha":815,"x_min":0,"x_max":0,"o":"m 317 -15 b 556 92 417 -15 496 20 l 556 64 b 578 14 556 44 563 28 b 638 -7 594 0 613 -7 b 696 16 661 -7 680 1 b 719 74 712 31 719 50 l 719 435 b 640 661 719 534 693 609 b 397 743 588 716 506 743 b 161 700 316 743 237 729 b 115 633 131 688 115 666 b 136 584 115 614 122 597 b 186 564 150 571 167 564 b 213 568 194 564 203 565 b 375 597 262 588 316 597 b 510 556 434 597 479 584 b 557 438 541 529 557 489 l 557 419 b 360 450 493 440 427 450 b 139 390 267 450 194 430 b 57 214 84 349 57 291 l 57 211 b 133 45 57 141 82 85 b 317 -15 183 5 244 -15 z m 364 107 b 261 137 322 107 288 117 b 221 218 234 157 221 184 l 221 221 b 267 310 221 259 236 289 b 393 343 297 332 339 343 b 560 314 454 343 510 333 l 560 264 b 504 151 560 218 541 180 b 364 107 467 122 420 107 z "},"b":{"ha":932,"x_min":0,"x_max":0,"o":"m 106 76 b 130 17 106 53 114 34 b 189 -7 146 1 166 -7 b 249 17 212 -7 232 1 b 274 76 265 34 274 53 l 274 114 b 524 -15 338 28 422 -15 b 763 88 616 -15 696 19 b 864 365 830 157 864 250 l 864 368 b 763 646 864 485 830 577 b 524 749 695 714 615 749 b 274 611 422 749 338 703 l 274 938 b 249 997 274 961 266 980 b 189 1021 233 1013 213 1021 b 129 997 165 1021 145 1013 b 106 938 113 980 106 961 z m 483 131 b 333 197 425 131 375 153 b 269 365 291 241 269 297 l 269 368 b 333 537 269 437 291 493 b 483 603 375 581 425 603 b 632 538 542 603 591 581 b 693 368 673 494 693 438 l 693 365 b 633 195 693 295 673 238 b 483 131 592 152 543 131 z "},"c":{"ha":793,"x_min":0,"x_max":0,"o":"m 444 -17 b 711 88 550 -17 639 18 b 735 140 727 100 735 118 b 714 192 735 161 728 178 b 663 214 700 207 683 214 b 617 196 646 214 631 208 b 453 131 566 152 511 131 b 295 199 389 131 336 153 b 233 365 254 244 233 300 l 233 368 b 294 533 233 433 254 488 b 446 601 335 579 386 601 b 603 539 500 601 553 581 b 653 522 618 528 634 522 b 708 544 674 522 692 530 b 731 599 723 559 731 577 b 704 657 731 622 722 641 b 447 749 634 718 548 749 b 174 636 338 749 247 711 b 65 365 102 561 65 471 l 65 363 b 174 94 65 257 101 167 b 444 -17 246 20 336 -17 z "},"d":{"ha":932,"x_min":0,"x_max":0,"o":"m 826 938 b 802 997 826 961 818 980 b 742 1021 786 1013 766 1021 b 683 997 719 1021 699 1013 b 658 938 666 980 658 961 l 658 619 b 408 749 593 706 509 749 b 169 646 316 749 236 714 b 68 368 102 577 68 485 l 68 365 b 169 88 68 250 102 157 b 408 -15 237 19 317 -15 b 658 122 510 -15 594 31 l 658 76 b 683 17 658 53 666 34 b 743 -7 699 1 719 -7 b 802 17 766 -7 786 1 b 826 76 818 34 826 53 z m 449 603 b 599 537 507 603 557 581 b 661 368 640 493 661 437 l 661 365 b 599 197 661 297 640 241 b 449 131 557 153 507 131 b 299 196 390 131 341 152 b 238 365 258 239 238 296 l 238 368 b 299 539 238 439 258 496 b 449 603 339 581 389 603 z "},"e":{"ha":839,"x_min":0,"x_max":0,"o":"m 232 418 b 294 558 239 475 260 522 b 422 611 329 593 371 611 b 551 557 476 611 519 593 b 608 418 584 521 603 475 z m 706 81 b 728 132 720 95 728 113 b 708 181 728 151 721 168 b 661 200 695 194 680 200 b 618 185 645 200 631 195 b 444 121 566 142 508 121 b 304 170 389 121 342 137 b 233 307 266 203 243 249 l 693 307 b 749 330 715 307 734 315 b 772 388 765 345 772 364 b 735 556 772 447 760 503 b 617 692 711 609 671 655 b 424 749 562 730 498 749 b 167 638 320 749 234 712 b 65 367 99 563 65 473 l 65 364 b 173 90 65 252 101 160 b 442 -17 245 19 334 -17 b 706 81 545 -17 633 16 z "},"f":{"ha":522,"x_min":0,"x_max":0,"o":"m 143 76 b 167 17 143 53 151 34 b 226 -7 184 1 203 -7 b 286 17 250 -7 269 1 b 311 76 303 34 311 53 l 311 589 l 439 589 b 489 609 458 589 475 596 b 510 658 503 622 510 639 b 490 708 510 678 503 694 b 439 728 476 721 459 728 l 308 728 l 308 768 b 406 879 308 842 341 879 b 440 876 416 879 427 878 b 490 896 460 875 476 882 b 511 946 504 910 511 926 b 494 993 511 964 505 980 b 453 1015 482 1006 469 1013 b 368 1022 427 1020 399 1022 b 203 964 297 1022 242 1003 b 143 783 163 924 143 864 l 143 729 l 114 729 b 64 708 94 729 78 722 b 43 658 50 694 43 678 b 64 609 43 639 50 622 b 114 589 78 596 94 589 l 143 589 z "},"g":{"ha":932,"x_min":0,"x_max":0,"o":"m 432 -225 b 733 -126 567 -225 668 -192 b 826 150 795 -64 826 28 l 826 657 b 802 717 826 680 818 700 b 742 742 786 733 766 742 b 683 717 719 742 699 734 b 658 658 666 701 658 681 l 658 624 b 401 749 589 707 503 749 b 167 654 312 749 234 717 b 68 404 101 591 68 508 l 68 401 b 167 152 68 298 101 215 b 401 58 232 90 311 58 b 660 193 504 58 590 103 l 660 136 b 600 -31 660 63 640 7 b 428 -89 560 -70 503 -89 b 203 -31 347 -89 272 -69 b 172 -24 194 -26 183 -24 b 122 -44 153 -24 136 -31 b 101 -93 108 -58 101 -75 b 149 -160 101 -125 117 -148 b 432 -225 238 -203 333 -225 z m 446 201 b 298 258 388 201 338 220 b 238 403 258 295 238 344 l 238 406 b 297 551 238 465 257 513 b 446 607 337 588 387 607 b 598 550 505 607 556 588 b 661 406 640 512 661 464 l 661 403 b 598 258 661 344 640 296 b 446 201 556 220 505 201 z "},"h":{"ha":861,"x_min":0,"x_max":0,"o":"m 106 76 b 130 17 106 53 114 34 b 189 -7 146 1 166 -7 b 249 17 213 -7 233 1 b 274 76 266 34 274 53 l 274 414 b 319 547 274 470 289 515 b 439 596 350 580 390 596 b 555 549 489 596 528 580 b 596 417 582 518 596 474 l 596 76 b 620 17 596 53 604 34 b 681 -7 636 1 656 -7 b 740 17 705 -7 725 1 b 764 76 756 34 764 53 l 764 468 b 694 673 764 554 741 622 b 503 749 648 723 584 749 b 274 621 409 749 333 706 l 274 938 b 249 997 274 961 265 980 b 189 1021 232 1013 212 1021 b 130 997 166 1021 146 1013 b 106 938 114 980 106 961 z "},"i":{"ha":397,"x_min":0,"x_max":0,"o":"m 103 922 b 130 862 103 897 112 877 b 199 839 148 847 171 839 b 267 862 226 839 249 847 b 294 922 285 877 294 897 l 294 931 b 267 990 294 956 285 975 b 199 1013 249 1005 226 1013 b 130 990 171 1013 148 1005 b 103 931 112 975 103 956 z m 115 76 b 140 17 115 53 123 34 b 199 -7 156 1 175 -7 b 259 17 223 -7 243 1 b 283 76 275 34 283 53 l 283 657 b 258 717 283 680 275 700 b 199 742 242 733 222 742 b 140 717 175 742 156 734 b 115 657 123 701 115 681 z "},"j":{"ha":397,"x_min":0,"x_max":0,"o":"m 81 -226 b 230 -172 144 -226 194 -208 b 283 -10 266 -136 283 -82 l 283 657 b 258 717 283 680 275 700 b 199 742 242 733 222 742 b 140 717 175 742 156 734 b 115 657 123 701 115 681 l 115 -10 b 53 -89 115 -62 94 -89 l 49 -89 b 43 -87 46 -88 44 -87 b -4 -107 25 -87 9 -94 b -24 -157 -17 -120 -24 -137 b 68 -226 -24 -201 7 -225 z m 103 922 b 130 862 103 897 112 877 b 199 839 148 847 171 839 b 267 862 226 839 249 847 b 294 922 285 877 294 897 l 294 931 b 267 990 294 956 285 975 b 199 1013 249 1005 226 1013 b 130 990 171 1013 148 1005 b 103 931 112 975 103 956 z "},"k":{"ha":806,"x_min":0,"x_max":0,"o":"m 106 76 b 130 17 106 53 114 34 b 189 -7 146 1 166 -7 b 249 17 213 -7 233 1 b 274 76 266 34 274 53 l 274 204 l 385 310 l 594 31 b 668 -7 614 6 638 -7 b 724 15 690 -7 709 0 b 747 69 740 29 747 47 b 725 125 747 86 740 105 l 503 415 l 697 594 b 735 665 722 618 735 641 b 714 719 735 687 728 705 b 661 742 700 734 682 742 b 589 706 637 742 613 730 l 274 396 l 274 938 b 249 997 274 961 265 980 b 189 1021 232 1013 212 1021 b 130 997 166 1021 146 1013 b 106 938 114 980 106 961 z "},"l":{"ha":397,"x_min":0,"x_max":0,"o":"m 115 76 b 140 17 115 53 123 34 b 199 -7 156 1 175 -7 b 259 17 223 -7 243 1 b 283 76 275 34 283 53 l 283 938 b 258 997 283 961 275 980 b 199 1021 242 1013 222 1021 b 140 997 175 1021 156 1013 b 115 938 123 980 115 961 z "},"m":{"ha":1319,"x_min":0,"x_max":0,"o":"m 106 76 b 130 17 106 53 114 34 b 189 -7 146 1 166 -7 b 249 17 213 -7 233 1 b 274 76 266 34 274 53 l 274 414 b 317 547 274 469 288 514 b 431 596 345 579 383 596 b 540 549 478 596 514 580 b 579 418 566 518 579 475 l 579 76 b 603 17 579 53 587 34 b 664 -7 620 1 640 -7 b 723 17 687 -7 707 1 b 747 76 739 34 747 53 l 747 414 b 790 548 747 471 762 516 b 904 596 819 580 857 596 b 1014 550 951 596 988 581 b 1053 417 1040 519 1053 475 l 1053 76 b 1077 17 1053 53 1061 34 b 1138 -7 1093 1 1113 -7 b 1197 17 1161 -7 1180 1 b 1221 76 1213 34 1221 53 l 1221 468 b 1153 675 1221 557 1198 626 b 964 749 1107 724 1044 749 b 717 619 864 749 781 706 b 497 749 674 706 601 749 b 274 622 409 749 335 706 l 274 657 b 249 717 274 680 266 700 b 189 742 233 733 213 742 b 130 717 166 742 146 734 b 106 657 114 701 106 681 z "},"n":{"ha":861,"x_min":0,"x_max":0,"o":"m 106 76 b 130 17 106 53 114 34 b 189 -7 146 1 166 -7 b 249 17 213 -7 233 1 b 274 76 266 34 274 53 l 274 414 b 319 547 274 470 289 515 b 439 596 350 580 390 596 b 555 549 489 596 528 580 b 596 417 582 518 596 474 l 596 76 b 620 17 596 53 604 34 b 681 -7 636 1 656 -7 b 740 17 705 -7 725 1 b 764 76 756 34 764 53 l 764 468 b 694 673 764 554 741 622 b 503 749 648 723 584 749 b 274 621 409 749 333 706 l 274 657 b 249 717 274 680 266 700 b 189 742 233 733 213 742 b 130 717 166 742 146 734 b 106 657 114 701 106 681 z "},"o":{"ha":913,"x_min":0,"x_max":0,"o":"m 454 -17 b 735 95 566 -17 660 21 b 847 365 810 170 847 260 l 847 368 b 735 638 847 474 810 563 b 457 749 661 712 568 749 b 178 637 346 749 253 711 b 65 365 103 562 65 472 l 65 363 b 176 94 65 257 102 167 b 454 -17 250 20 343 -17 z m 457 131 b 297 199 393 131 340 153 b 233 365 255 245 233 300 l 233 368 b 294 534 233 434 254 489 b 454 601 335 579 388 601 b 615 533 519 601 573 578 b 679 365 658 487 679 431 l 679 363 b 618 198 679 298 659 243 b 457 131 577 153 524 131 z "},"p":{"ha":932,"x_min":0,"x_max":0,"o":"m 106 -146 b 130 -205 106 -169 114 -189 b 189 -229 146 -221 166 -229 b 249 -205 213 -229 233 -221 b 274 -146 266 -189 274 -169 l 274 114 b 524 -15 338 28 422 -15 b 763 88 616 -15 696 19 b 864 365 830 157 864 250 l 864 368 b 763 646 864 485 830 577 b 524 749 695 714 615 749 b 274 611 422 749 338 703 l 274 657 b 249 717 274 680 266 700 b 189 742 233 733 213 742 b 130 717 166 742 146 734 b 106 657 114 701 106 681 z m 483 131 b 333 197 425 131 375 153 b 269 365 291 241 269 297 l 269 368 b 333 537 269 437 291 493 b 483 603 375 581 425 603 b 632 538 542 603 591 581 b 693 368 673 494 693 438 l 693 365 b 633 195 693 295 673 238 b 483 131 592 152 543 131 z "},"q":{"ha":932,"x_min":0,"x_max":0,"o":"m 826 657 b 802 717 826 680 818 700 b 742 742 786 733 766 742 b 683 717 719 742 699 734 b 658 658 666 701 658 681 l 658 619 b 408 749 593 706 509 749 b 169 646 316 749 236 714 b 68 368 102 577 68 485 l 68 365 b 169 88 68 250 102 157 b 408 -15 237 19 317 -15 b 658 122 510 -15 594 31 l 658 -146 b 683 -205 658 -169 666 -189 b 743 -229 699 -221 719 -229 b 802 -205 766 -229 786 -221 b 826 -146 818 -189 826 -169 z m 449 603 b 599 537 507 603 557 581 b 661 368 640 493 661 437 l 661 365 b 599 197 661 297 640 241 b 449 131 557 153 507 131 b 299 196 390 131 341 152 b 238 365 258 239 238 296 l 238 368 b 299 539 238 439 258 496 b 449 603 339 581 389 603 z "},"r":{"ha":574,"x_min":0,"x_max":0,"o":"m 106 76 b 130 17 106 53 114 34 b 189 -7 146 1 166 -7 b 249 17 212 -7 232 1 b 274 76 265 34 274 53 l 274 293 b 328 491 274 377 292 443 b 475 579 364 539 413 568 b 523 606 494 583 510 592 b 542 660 535 621 542 638 b 519 720 542 685 534 705 b 458 743 505 735 484 743 b 354 698 422 743 388 728 b 274 582 321 668 294 629 l 274 657 b 249 717 274 680 266 700 b 189 742 233 733 213 742 b 130 717 166 742 146 734 b 106 657 114 701 106 681 z "},"s":{"ha":696,"x_min":0,"x_max":0,"o":"m 357 -14 b 553 46 437 -14 502 6 b 629 217 604 86 629 143 l 629 219 b 610 303 629 251 623 279 b 553 364 597 327 578 347 b 483 403 529 381 506 394 b 401 433 461 413 434 423 b 388 438 399 434 394 436 b 274 483 337 454 299 469 b 236 538 249 496 236 514 l 236 540 b 264 592 236 562 245 579 b 339 613 282 606 307 613 b 511 563 389 613 446 596 b 544 554 522 557 533 554 b 594 574 564 554 580 561 b 614 622 607 587 614 603 b 574 686 614 651 600 672 b 343 746 499 726 422 746 b 156 685 268 746 206 725 b 82 522 107 644 82 590 l 82 519 b 101 432 82 486 88 457 b 157 370 113 407 132 386 b 228 332 182 354 206 341 b 311 304 250 323 278 313 b 328 299 315 303 320 301 b 475 201 426 269 475 237 l 475 199 b 445 141 475 175 465 155 b 361 119 425 127 397 119 b 150 190 291 119 220 143 b 114 200 139 197 127 200 b 65 180 94 200 78 193 b 46 132 52 166 46 150 b 78 74 46 104 56 85 b 357 -14 163 15 256 -14 z "},"t":{"ha":571,"x_min":0,"x_max":0,"o":"m 351 -12 b 467 7 391 -12 430 -6 b 511 72 496 19 511 41 b 490 122 511 92 504 108 b 440 142 476 135 460 142 b 424 140 439 142 434 141 b 399 138 415 138 406 138 b 308 229 338 138 308 168 l 308 589 l 440 589 b 492 610 461 589 478 596 b 514 661 507 624 514 641 b 492 713 514 681 507 699 b 440 733 478 726 461 733 l 308 733 l 308 858 b 284 917 308 881 300 901 b 225 942 268 934 248 942 b 165 917 202 942 182 934 b 140 858 149 901 140 881 l 140 733 l 113 733 b 61 713 92 733 75 726 b 40 661 47 699 40 681 b 61 610 40 641 47 624 b 113 589 75 596 92 589 l 140 589 l 140 203 b 351 -12 140 59 211 -12 z "},"u":{"ha":861,"x_min":0,"x_max":0,"o":"m 757 657 b 732 717 757 680 749 700 b 672 742 715 733 695 742 b 612 717 648 742 628 733 b 588 657 596 700 588 680 l 588 319 b 542 187 588 263 572 219 b 422 139 511 155 471 139 b 306 185 372 139 334 154 b 265 317 279 216 265 260 l 265 657 b 241 717 265 680 257 700 b 181 742 225 733 205 742 b 122 717 157 742 138 733 b 97 657 105 700 97 680 l 97 267 b 167 61 97 181 120 112 b 358 -15 213 10 277 -15 b 588 114 453 -15 529 28 l 588 76 b 613 17 588 53 596 34 b 672 -7 629 1 649 -7 b 732 17 695 -7 715 1 b 757 76 749 34 757 53 z "},"v":{"ha":814,"x_min":0,"x_max":0,"o":"m 507 60 l 751 621 b 761 661 758 634 761 647 b 738 719 761 684 753 703 b 679 742 722 734 702 742 b 600 683 643 742 617 722 l 408 194 l 219 681 b 136 742 203 721 175 742 b 78 717 114 742 94 734 b 53 661 61 701 53 682 b 63 619 53 653 56 639 l 307 60 b 403 -14 328 11 360 -14 l 411 -14 b 507 60 453 -14 485 11 z "},"w":{"ha":1185,"x_min":0,"x_max":0,"o":"m 351 -12 l 357 -12 b 447 60 402 -12 432 12 l 592 496 l 735 60 b 826 -12 750 12 780 -12 l 832 -12 b 925 63 876 -12 907 13 l 1125 626 b 1132 664 1130 640 1132 653 b 1109 719 1132 685 1124 703 b 1053 742 1094 734 1075 742 b 971 676 1011 742 984 720 l 828 231 l 683 675 b 597 742 669 719 641 742 l 588 742 b 501 675 544 742 515 719 l 358 231 l 217 675 b 135 742 203 719 175 742 b 76 719 111 742 91 734 b 53 664 60 703 53 685 b 61 621 53 650 56 636 l 258 63 b 351 -12 275 13 306 -12 z "},"x":{"ha":796,"x_min":0,"x_max":0,"o":"m 67 64 b 90 12 67 44 74 26 b 144 -10 105 -3 123 -10 b 218 33 169 -10 194 5 l 396 263 l 574 33 b 651 -10 595 5 621 -10 b 706 12 673 -10 691 -3 b 729 68 722 26 729 45 b 701 132 729 88 720 109 l 496 375 l 694 613 b 718 669 710 631 718 650 b 695 722 718 690 710 707 b 639 743 680 736 661 743 b 567 700 613 743 589 729 l 399 485 l 233 701 b 156 743 211 729 185 743 b 101 722 134 743 116 736 b 78 665 85 707 78 688 b 106 601 78 646 87 625 l 299 372 l 90 122 b 67 64 75 105 67 85 z "},"y":{"ha":815,"x_min":0,"x_max":0,"o":"m 239 -226 b 383 -180 298 -226 346 -211 b 486 -21 420 -149 455 -96 l 754 622 b 761 663 759 636 761 650 b 738 719 761 685 753 703 b 681 742 722 734 703 742 b 600 678 644 742 617 720 l 417 190 l 219 678 b 138 742 203 720 175 742 b 78 718 113 742 94 734 b 54 660 62 702 54 683 b 64 619 54 648 57 634 l 336 11 l 331 -4 b 287 -65 317 -33 302 -53 b 226 -82 272 -76 251 -82 b 168 -72 211 -82 191 -79 b 138 -67 157 -69 147 -67 b 90 -86 119 -67 103 -73 b 69 -136 76 -99 69 -116 b 122 -206 69 -170 87 -194 b 239 -226 157 -219 196 -226 z "},"z":{"ha":778,"x_min":0,"x_max":0,"o":"m 150 0 l 647 0 b 697 20 667 0 683 7 b 717 68 710 34 717 50 b 697 117 717 88 710 104 b 647 138 683 131 667 138 l 286 138 l 678 582 b 714 663 702 609 714 636 l 714 667 b 691 715 714 686 706 702 b 633 733 676 727 656 733 l 150 733 b 101 713 131 733 114 727 b 81 664 87 700 81 683 b 101 616 81 645 87 629 b 150 596 114 603 131 596 l 496 596 l 106 151 b 68 71 81 125 68 99 l 68 68 b 92 19 68 49 76 32 b 150 0 107 6 127 0 z "},"{":{"ha":676,"x_min":0,"x_max":0,"o":"m 535 -187 b 589 -178 556 -192 574 -189 b 611 -131 604 -167 611 -151 b 572 -74 611 -101 598 -82 b 447 -7 508 -54 467 -32 b 418 106 428 18 418 56 b 419 156 418 115 419 132 b 421 208 420 181 421 198 b 385 331 421 260 409 301 b 276 399 362 360 325 383 b 385 467 325 414 361 437 b 421 589 409 496 421 537 b 419 641 421 599 420 616 b 418 692 419 666 418 682 b 447 804 418 742 428 779 b 572 871 467 829 508 851 b 611 928 598 879 611 898 b 589 975 611 948 604 964 b 535 985 574 986 556 989 b 322 888 432 963 361 930 b 263 717 282 845 263 788 b 264 668 263 710 263 694 b 265 617 265 642 265 625 b 235 503 265 565 255 527 b 135 465 216 480 182 467 b 83 445 113 464 95 458 b 64 399 70 433 64 417 b 83 352 64 380 70 365 b 135 332 95 340 113 333 b 235 294 181 331 214 319 b 265 182 255 270 265 233 b 264 131 265 174 265 156 b 263 82 263 105 263 88 b 322 -90 263 10 282 -48 b 535 -187 361 -133 432 -165 z "},"|":{"ha":460,"x_min":0,"x_max":0,"o":"m 163 -118 b 182 -165 163 -137 169 -152 b 229 -185 195 -178 211 -185 b 277 -165 248 -185 264 -178 b 297 -118 291 -152 297 -137 l 297 1049 b 277 1096 297 1067 291 1083 b 229 1115 264 1109 248 1115 b 182 1096 211 1115 195 1109 b 163 1049 169 1083 163 1067 z "},"}":{"ha":676,"x_min":0,"x_max":0,"o":"m 142 985 b 88 975 120 989 102 986 b 65 928 73 964 65 948 b 106 871 65 898 79 879 b 230 804 169 851 211 829 b 258 692 249 779 258 742 b 257 641 258 682 258 666 b 256 589 256 616 256 599 b 291 467 256 537 267 496 b 400 399 315 437 351 414 b 292 331 352 383 316 360 b 256 208 268 301 256 260 b 257 156 256 198 256 181 b 258 106 258 132 258 115 b 230 -7 258 56 249 18 b 106 -74 211 -32 169 -54 b 65 -131 79 -82 65 -101 b 88 -178 65 -151 73 -167 b 142 -187 102 -189 120 -192 b 355 -90 244 -165 316 -133 b 414 82 394 -48 414 10 b 413 131 414 88 413 105 b 411 182 412 156 411 174 b 442 294 411 233 421 270 b 543 332 462 319 496 331 b 594 352 564 333 581 340 b 613 399 606 365 613 380 b 594 445 613 417 606 433 b 543 465 581 458 564 464 b 442 503 496 467 462 480 b 411 617 421 527 411 565 b 413 668 411 625 412 642 b 414 717 413 694 414 710 b 355 888 414 788 394 845 b 142 985 316 930 244 963 z "},"~":{"ha":688,"x_min":0,"x_max":0,"o":"m 186 343 b 251 388 202 373 224 388 b 340 360 265 388 295 378 b 450 332 386 341 422 332 b 536 363 486 332 515 342 b 592 458 557 384 576 416 b 597 490 595 467 597 477 b 582 523 597 502 592 513 b 546 538 572 533 560 538 b 501 508 526 538 512 528 b 436 465 486 480 464 465 b 347 492 422 465 393 474 b 238 519 302 510 265 519 b 151 488 201 519 173 509 b 96 393 130 467 112 436 b 90 363 92 386 90 375 b 106 329 90 350 95 338 b 142 315 116 320 128 315 b 186 343 161 315 176 325 z "}," ":{"ha":417,"x_min":0,"x_max":0,"o":""},"¡":{"ha":419,"x_min":0,"x_max":0,"o":"m 261 622 b 245 658 260 637 255 649 b 210 672 235 668 224 672 b 175 658 196 672 184 668 b 160 622 166 649 161 637 l 111 56 b 122 13 109 39 113 25 b 160 -4 131 2 144 -4 l 260 -4 b 298 13 275 -4 288 2 b 310 56 308 25 312 39 z m 308 871 l 308 883 b 281 951 308 910 299 933 b 210 979 262 970 238 979 b 140 951 182 979 159 970 b 111 883 121 933 111 910 l 111 871 b 140 801 111 843 121 820 b 210 774 159 783 182 774 b 281 801 238 774 262 783 b 308 871 299 820 308 843 z "},"¢":{"ha":807,"x_min":0,"x_max":0,"o":"m 304 57 b 316 6 300 38 304 21 b 363 -15 328 -8 343 -15 b 421 33 395 -15 414 1 l 436 111 l 446 111 b 715 218 551 111 641 147 b 738 269 730 231 738 248 b 717 319 738 289 731 306 b 669 340 704 333 688 340 b 622 324 653 340 637 335 b 458 257 573 280 519 258 l 547 710 b 617 665 569 700 592 686 b 664 649 630 654 645 649 b 717 670 684 649 702 656 b 739 724 731 684 739 702 b 714 781 739 747 731 766 b 582 857 671 817 627 842 l 593 915 b 582 966 598 935 594 952 b 536 988 570 980 555 988 b 476 939 503 988 483 971 l 464 875 l 453 875 b 181 764 344 875 254 838 b 72 493 109 690 72 600 l 72 490 b 141 270 72 409 95 335 b 319 133 187 205 246 159 z m 236 493 l 236 496 b 295 659 236 560 256 614 b 442 729 334 704 383 727 l 354 281 b 267 366 317 300 288 328 b 236 493 247 403 236 446 z "},"£":{"ha":894,"x_min":0,"x_max":0,"o":"m 81 60 b 99 17 81 43 87 29 b 146 0 111 6 126 0 l 754 0 b 808 22 775 0 793 7 b 829 74 822 36 829 53 b 808 127 829 95 822 113 b 754 149 793 141 775 149 l 371 149 l 371 386 l 651 386 b 702 407 671 386 688 393 b 724 458 716 421 724 438 b 702 509 724 478 716 495 b 651 531 688 523 671 531 l 371 531 l 371 654 b 417 789 371 712 386 756 b 519 828 444 815 479 828 b 668 756 573 828 623 804 b 729 729 684 738 704 729 b 790 753 753 729 773 737 b 814 813 806 770 814 789 b 788 874 814 836 805 856 b 517 986 717 949 627 986 b 283 900 417 986 339 957 b 197 658 226 843 197 762 l 197 531 l 153 531 b 101 509 132 531 115 523 b 81 458 88 495 81 478 b 101 407 81 438 88 421 b 153 386 115 393 132 386 l 197 386 l 197 142 l 126 121 b 81 60 96 111 81 90 z "},"¥":{"ha":953,"x_min":0,"x_max":0,"o":"m 558 367 l 772 367 b 815 385 789 367 803 373 b 833 428 827 397 833 411 b 815 472 833 445 827 460 b 772 490 803 484 789 490 l 604 490 l 863 840 b 883 900 876 859 883 879 b 860 958 883 924 875 943 b 801 979 844 972 825 979 b 724 931 771 979 745 963 l 478 569 l 235 932 b 154 979 213 963 187 979 b 94 956 130 979 110 971 b 69 899 78 940 69 921 b 90 840 69 879 76 860 l 346 490 l 181 490 b 138 472 164 490 150 484 b 119 428 125 460 119 445 b 138 385 119 411 125 397 b 181 367 150 373 164 367 l 394 367 l 394 265 l 181 265 b 138 247 164 265 150 259 b 119 203 125 235 119 220 b 138 160 119 186 125 172 b 181 142 150 148 164 142 l 394 142 l 394 75 b 418 17 394 52 402 32 b 476 -7 434 1 453 -7 b 535 17 500 -7 519 1 b 558 75 550 32 558 52 l 558 142 l 772 142 b 815 160 789 142 803 148 b 833 203 827 172 833 186 b 815 247 833 220 827 235 b 772 265 803 259 789 265 l 558 265 z "},"§":{"ha":878,"x_min":0,"x_max":0,"o":"m 453 -14 b 653 42 537 -14 604 5 b 726 189 702 79 726 128 l 726 192 b 649 324 726 248 700 292 b 797 485 748 350 797 403 l 797 488 b 729 608 797 538 775 578 b 497 690 684 638 606 665 b 351 737 425 707 376 722 b 314 788 326 751 314 768 l 314 790 b 343 840 314 811 324 827 b 426 858 363 852 390 858 b 626 781 498 858 564 832 b 669 765 638 770 653 765 b 719 785 689 765 705 772 b 739 833 732 798 739 814 b 714 886 739 854 731 871 b 425 986 634 953 538 986 b 226 931 341 986 274 968 b 153 783 177 895 153 845 l 153 781 b 229 649 153 725 178 681 b 81 488 130 623 81 569 l 81 485 b 149 364 81 435 103 394 b 381 282 195 333 272 306 b 525 237 451 266 499 251 b 564 185 551 222 564 205 l 564 182 b 535 133 564 162 554 145 b 451 114 515 120 488 114 b 251 192 380 114 313 140 b 208 208 238 203 224 208 b 159 188 189 208 172 202 b 139 139 146 175 139 158 b 164 86 139 119 147 101 b 453 -14 244 19 340 -14 z m 539 386 b 396 411 507 386 460 394 b 269 456 337 426 294 441 b 232 508 244 470 232 488 l 232 511 b 262 565 232 532 242 550 b 339 586 282 579 307 586 b 483 561 369 586 418 578 b 608 517 542 546 583 531 b 646 464 633 502 646 484 l 646 461 b 616 408 646 440 636 422 b 539 386 596 393 570 386 z "},"¨":{"ha":694,"x_min":0,"x_max":0,"o":"m 486 1000 b 421 976 460 1000 438 992 b 394 914 403 959 394 939 l 394 904 b 421 843 394 879 403 859 b 486 819 438 827 460 819 b 550 843 511 819 532 827 b 576 904 568 859 576 879 l 576 914 b 550 976 576 939 568 959 b 486 1000 532 992 511 1000 z m 210 1000 b 144 976 184 1000 162 992 b 118 914 127 959 118 939 l 118 904 b 144 843 118 879 127 859 b 210 819 162 827 184 819 b 274 843 235 819 256 827 b 300 904 291 859 300 879 l 300 914 b 274 976 300 939 291 959 b 210 1000 256 992 235 1000 z "},"©":{"ha":1153,"x_min":0,"x_max":0,"o":"m 575 -17 b 932 131 715 -17 834 33 b 1079 486 1030 230 1079 348 l 1079 489 b 933 842 1079 627 1031 745 b 578 989 836 940 718 989 b 221 841 438 989 319 940 b 74 486 123 742 74 624 l 74 483 b 219 130 74 345 122 228 b 575 -17 317 32 435 -17 z m 575 33 b 256 165 448 33 342 77 b 126 483 169 252 126 358 l 126 486 b 256 806 126 611 170 718 b 578 939 343 895 450 939 b 897 808 705 939 811 895 b 1026 489 983 720 1026 614 l 1026 486 b 897 166 1026 361 983 254 b 575 33 810 78 703 33 z m 582 221 b 776 294 655 221 720 245 b 792 329 787 303 792 314 b 777 363 792 342 787 353 b 743 378 767 373 756 378 b 713 365 733 378 723 374 b 585 315 674 332 631 315 b 468 367 538 315 500 333 b 421 492 437 402 421 444 l 421 494 b 468 619 421 544 437 585 b 585 671 500 654 538 671 b 704 626 626 671 666 656 b 738 613 716 617 727 613 b 773 627 751 613 763 617 b 788 664 783 637 788 649 b 765 706 788 681 780 695 b 585 765 716 745 656 765 b 392 686 507 765 443 739 b 315 493 341 633 315 569 l 315 490 b 392 299 315 414 341 350 b 582 221 443 247 506 221 z "},"ª":{"ha":542,"x_min":0,"x_max":0,"o":"m 221 560 b 349 615 274 560 316 578 l 349 604 b 363 574 349 592 353 582 b 394 561 372 565 382 561 b 428 575 407 561 419 566 b 443 607 438 584 443 595 l 443 807 b 400 931 443 862 429 903 b 265 976 370 961 325 976 b 136 953 219 976 176 969 b 110 914 119 946 110 933 b 122 885 110 903 114 893 b 151 874 129 878 139 874 b 172 878 157 874 164 875 b 253 893 199 888 226 893 b 350 808 318 893 350 865 l 350 801 b 244 817 313 812 278 817 b 124 783 194 817 154 806 b 78 688 93 761 78 729 l 78 685 b 119 593 78 646 91 615 b 221 560 146 571 180 560 z m 107 392 l 415 392 b 444 403 426 392 436 396 b 457 432 453 411 457 421 b 444 460 457 443 453 453 b 415 472 436 468 426 472 l 107 472 b 78 460 96 472 86 468 b 67 432 71 453 67 443 b 78 403 67 421 71 411 b 107 392 86 396 96 392 z m 246 631 b 194 647 225 631 207 636 b 174 689 180 657 174 671 l 174 692 b 197 738 174 711 181 726 b 263 754 213 749 235 754 b 350 739 292 754 321 749 l 350 714 b 320 654 350 690 340 670 b 246 631 300 638 275 631 z "},"«":{"ha":842,"x_min":0,"x_max":0,"o":"m 679 58 b 728 78 699 58 715 65 b 749 128 741 92 748 108 b 731 174 749 144 743 159 l 582 368 l 728 558 b 747 606 741 573 747 589 b 728 655 747 625 741 641 b 679 675 715 668 699 675 b 617 642 653 675 632 664 l 442 415 b 421 367 428 399 421 382 b 442 318 421 353 428 337 l 621 88 b 679 58 636 68 655 58 z m 329 58 b 378 78 349 58 365 65 b 399 128 392 92 399 108 b 382 174 399 144 393 160 l 232 368 l 379 558 b 397 606 391 574 397 590 b 378 654 397 624 391 640 b 331 675 365 668 349 675 b 267 642 306 675 284 664 l 92 415 b 72 367 79 400 72 383 b 92 318 72 352 79 336 l 271 88 b 329 58 286 68 305 58 z "},"®":{"ha":531,"x_min":0,"x_max":0,"o":"m 265 500 b 436 572 332 500 389 524 b 507 743 483 619 507 676 l 507 744 b 437 915 507 811 484 868 b 265 986 390 963 333 986 b 94 915 199 986 142 962 b 24 743 47 867 24 810 l 24 742 b 94 571 24 675 47 618 b 265 500 141 524 198 500 z m 265 526 b 113 590 205 526 154 547 b 51 742 72 632 51 682 l 51 743 b 113 896 51 802 72 853 b 265 960 154 938 205 960 b 417 897 325 960 376 939 b 479 744 459 854 479 804 l 479 743 b 417 590 479 684 459 633 b 265 526 376 548 325 526 z m 165 647 b 174 626 165 639 168 632 b 196 617 180 620 188 617 b 217 626 204 617 211 620 b 226 647 223 632 226 639 l 226 701 l 267 701 l 325 629 b 350 617 333 621 342 617 b 372 625 359 617 367 619 b 381 646 378 631 381 638 b 372 668 381 655 378 663 l 335 714 b 385 790 368 728 385 753 b 357 852 385 817 375 838 b 283 874 338 866 314 874 l 196 874 b 174 865 188 874 180 871 b 165 842 168 859 165 851 z m 226 751 l 226 821 l 279 821 b 322 786 308 821 322 809 b 279 751 322 763 308 751 z "},"¯":{"ha":694,"x_min":0,"x_max":0,"o":"m 532 842 b 575 860 549 842 563 848 b 593 903 587 872 593 886 b 575 946 593 919 587 934 b 532 964 563 958 549 964 l 163 964 b 119 946 146 964 131 958 b 101 903 107 934 101 919 b 119 860 101 886 107 872 b 163 842 131 848 146 842 z "},"°":{"ha":654,"x_min":0,"x_max":0,"o":"m 328 529 b 489 597 389 529 443 552 b 558 754 535 641 558 694 l 558 757 b 489 914 558 817 535 869 b 328 981 443 958 389 981 b 166 914 267 981 213 958 b 96 757 119 869 96 817 l 96 754 b 166 597 96 694 119 641 b 328 529 213 552 267 529 z m 328 621 b 234 660 291 621 259 634 b 196 754 209 687 196 718 l 196 757 b 233 850 196 793 208 824 b 328 889 258 876 290 889 b 421 850 365 889 396 876 b 458 757 446 824 458 793 l 458 754 b 421 660 458 718 446 687 b 328 621 396 634 365 621 z "},"±":{"ha":881,"x_min":0,"x_max":0,"o":"m 364 331 b 386 276 364 309 371 291 b 440 254 401 262 419 254 b 494 276 462 254 480 262 b 517 331 509 291 517 309 l 515 518 l 710 518 b 763 540 730 518 748 525 b 785 592 777 554 785 571 b 763 644 785 612 777 629 b 710 665 748 658 730 665 l 515 665 l 517 853 b 494 907 517 874 509 892 b 440 929 480 922 462 929 b 386 907 419 929 401 922 b 364 853 371 892 364 874 l 365 665 l 169 665 b 117 644 149 665 132 658 b 96 592 103 629 96 612 b 117 540 96 571 103 554 b 169 518 132 525 149 518 l 365 518 z m 167 0 l 714 0 b 764 21 733 0 750 7 b 785 71 778 35 785 51 b 764 122 785 91 778 108 b 714 143 750 136 733 143 l 167 143 b 117 122 147 143 131 136 b 96 71 103 108 96 91 b 117 21 96 51 103 35 b 167 0 131 7 147 0 z "},"´":{"ha":694,"x_min":0,"x_max":0,"o":"m 288 819 b 386 857 326 819 359 832 l 479 946 b 503 988 495 960 503 974 b 470 1024 503 1000 492 1013 b 403 1042 448 1036 426 1042 b 336 1001 375 1042 353 1028 l 257 879 b 246 849 250 868 246 858 b 288 819 246 829 260 819 z "},"¶":{"ha":774,"x_min":0,"x_max":0,"o":"m 481 78 b 506 18 481 55 489 35 b 567 -7 522 1 543 -7 b 628 17 591 -7 611 1 b 653 78 644 34 653 54 l 653 886 b 628 947 653 910 644 931 b 567 972 611 964 591 972 l 432 972 b 159 888 319 972 228 944 b 56 657 90 831 56 754 l 56 654 b 167 422 56 554 93 477 b 456 339 241 366 337 339 l 481 339 z "},"·":{"ha":374,"x_min":0,"x_max":0,"o":"m 89 432 l 89 419 b 117 350 89 392 98 369 b 188 322 136 331 160 322 b 256 350 214 322 237 331 b 285 419 275 369 285 392 l 285 432 b 256 500 285 459 275 481 b 188 528 237 519 214 528 b 117 500 160 528 136 519 b 89 432 98 481 89 459 z "},"¸":{"ha":694,"x_min":0,"x_max":0,"o":"m 433 14 l 307 14 l 208 -129 b 197 -161 201 -139 197 -150 b 232 -202 197 -175 209 -189 b 294 -222 255 -216 276 -222 b 349 -182 319 -222 338 -209 z "},"º":{"ha":542,"x_min":0,"x_max":0,"o":"m 269 558 b 420 619 330 558 380 579 b 481 768 460 660 481 710 l 481 771 b 422 919 481 829 461 878 b 272 979 382 959 332 979 b 122 918 212 979 162 959 b 61 769 81 877 61 828 l 61 767 b 121 619 61 708 81 659 b 269 558 161 578 210 558 z m 104 392 l 438 392 b 466 403 449 392 458 396 b 478 432 474 411 478 421 b 466 460 478 443 474 453 b 438 472 458 468 449 472 l 104 472 b 76 460 93 472 84 468 b 64 432 68 453 64 443 b 76 403 64 421 68 411 b 104 392 84 396 93 392 z m 272 644 b 191 681 240 644 213 656 b 158 768 169 705 158 734 l 158 771 b 190 858 158 805 169 834 b 269 893 210 881 237 893 b 351 857 302 893 329 881 b 383 769 372 833 383 804 l 383 767 b 353 680 383 732 373 703 b 272 644 332 656 306 644 z "},"»":{"ha":842,"x_min":0,"x_max":0,"o":"m 513 675 b 463 655 493 675 477 668 b 443 606 450 641 443 625 b 460 558 443 589 449 573 l 610 364 l 463 175 b 444 128 450 159 444 144 b 464 79 444 109 451 93 b 511 58 477 65 493 58 b 575 92 536 58 557 69 l 750 317 b 771 365 764 335 771 351 b 750 415 771 380 764 397 l 571 644 b 513 675 555 665 536 675 z m 163 675 b 114 655 143 675 127 668 b 93 606 101 641 94 625 b 111 558 93 589 99 573 l 260 364 l 114 175 b 94 128 101 160 94 144 b 114 78 94 108 101 92 b 163 58 127 65 143 58 b 225 92 188 58 209 69 l 400 317 b 421 365 414 335 421 351 b 400 415 421 380 414 397 l 221 644 b 163 675 205 665 186 675 z "},"¿":{"ha":751,"x_min":0,"x_max":0,"o":"m 403 672 b 363 656 387 672 374 667 b 344 617 353 646 346 632 l 338 553 b 58 272 151 521 58 428 l 58 269 b 147 64 58 183 88 115 b 383 -12 206 13 285 -12 b 678 103 498 -12 596 26 b 706 163 696 119 706 138 b 683 217 706 184 698 202 b 628 239 667 231 649 239 b 576 219 609 239 592 232 b 388 143 520 169 457 143 b 272 179 338 143 300 155 b 229 275 243 203 229 235 l 229 278 b 431 428 229 365 296 415 b 474 451 449 431 463 438 b 485 497 484 463 488 479 l 471 617 b 451 656 469 632 463 646 b 411 672 440 667 427 672 z m 510 871 l 510 883 b 482 951 510 910 500 933 b 411 979 463 970 440 979 b 340 951 382 979 359 970 b 313 883 322 933 313 910 l 313 871 b 340 801 313 843 322 820 b 411 774 359 783 382 774 b 482 801 440 774 463 783 b 510 871 500 820 510 843 z "},"À":{"ha":1074,"x_min":0,"x_max":0,"o":"m 58 72 b 81 16 58 50 66 31 b 138 -7 97 1 115 -7 b 217 47 175 -7 202 11 l 299 235 l 771 235 l 850 53 b 933 -7 867 13 894 -7 b 991 17 956 -7 976 1 b 1014 75 1006 32 1014 52 b 1004 111 1014 87 1011 99 l 643 917 b 542 986 622 963 588 986 l 533 986 b 431 917 486 986 452 963 l 69 111 b 58 72 62 96 58 83 z m 364 386 l 535 779 l 706 386 z m 540 1060 b 583 1089 569 1060 583 1069 b 571 1119 583 1096 579 1106 l 492 1242 b 425 1282 475 1269 453 1282 b 358 1265 402 1282 379 1276 b 325 1228 336 1253 325 1241 b 349 1186 325 1214 333 1200 l 443 1097 b 540 1060 469 1072 501 1060 z "},"Á":{"ha":1074,"x_min":0,"x_max":0,"o":"m 58 72 b 81 16 58 50 66 31 b 138 -7 97 1 115 -7 b 217 47 175 -7 202 11 l 299 235 l 771 235 l 850 53 b 933 -7 867 13 894 -7 b 991 17 956 -7 976 1 b 1014 75 1006 32 1014 52 b 1004 111 1014 87 1011 99 l 643 917 b 542 986 622 963 588 986 l 533 986 b 431 917 486 986 452 963 l 69 111 b 58 72 62 96 58 83 z m 364 386 l 535 779 l 706 386 z m 531 1060 b 629 1097 569 1060 602 1072 l 722 1186 b 746 1228 738 1200 746 1214 b 713 1265 746 1241 735 1253 b 646 1282 691 1276 669 1282 b 579 1242 618 1282 596 1269 l 500 1119 b 489 1089 493 1108 489 1098 b 531 1060 489 1069 503 1060 z "},"Â":{"ha":1074,"x_min":0,"x_max":0,"o":"m 58 72 b 81 16 58 50 66 31 b 138 -7 97 1 115 -7 b 217 47 175 -7 202 11 l 299 235 l 771 235 l 850 53 b 933 -7 867 13 894 -7 b 991 17 956 -7 976 1 b 1014 75 1006 32 1014 52 b 1004 111 1014 87 1011 99 l 643 917 b 542 986 622 963 588 986 l 533 986 b 431 917 486 986 452 963 l 69 111 b 58 72 62 96 58 83 z m 364 386 l 535 779 l 706 386 z m 533 1160 l 606 1097 b 708 1060 636 1072 670 1060 b 749 1088 735 1060 749 1069 b 732 1121 749 1095 743 1106 l 640 1236 b 560 1276 619 1263 592 1276 l 510 1276 b 429 1236 478 1276 451 1263 l 338 1121 b 321 1088 326 1106 321 1095 b 358 1060 321 1069 333 1060 b 461 1097 397 1060 431 1072 z "},"Ã":{"ha":1074,"x_min":0,"x_max":0,"o":"m 58 72 b 81 16 58 50 66 31 b 138 -7 97 1 115 -7 b 217 47 175 -7 202 11 l 299 235 l 771 235 l 850 53 b 933 -7 867 13 894 -7 b 991 17 956 -7 976 1 b 1014 75 1006 32 1014 52 b 1004 111 1014 87 1011 99 l 643 917 b 542 986 622 963 588 986 l 533 986 b 431 917 486 986 452 963 l 69 111 b 58 72 62 96 58 83 z m 364 386 l 535 779 l 706 386 z m 385 1078 b 449 1122 400 1107 422 1122 b 539 1094 463 1122 494 1113 b 649 1067 584 1076 621 1067 b 734 1098 684 1067 712 1077 b 790 1193 756 1119 775 1150 b 796 1225 794 1206 796 1217 b 781 1257 796 1237 791 1248 b 744 1271 770 1266 758 1271 b 699 1243 726 1271 711 1262 b 635 1199 683 1213 662 1199 b 544 1226 620 1199 590 1208 b 435 1254 499 1245 463 1254 b 349 1223 400 1254 371 1244 b 293 1128 328 1202 309 1170 b 288 1096 289 1115 288 1104 b 303 1064 288 1084 293 1073 b 339 1050 313 1055 325 1050 b 385 1078 357 1050 373 1059 z "},"Ä":{"ha":1074,"x_min":0,"x_max":0,"o":"m 58 72 b 81 16 58 50 66 31 b 138 -7 97 1 115 -7 b 217 47 175 -7 202 11 l 299 235 l 771 235 l 850 53 b 933 -7 867 13 894 -7 b 991 17 956 -7 976 1 b 1014 75 1006 32 1014 52 b 1004 111 1014 87 1011 99 l 643 917 b 542 986 622 963 588 986 l 533 986 b 431 917 486 986 452 963 l 69 111 b 58 72 62 96 58 83 z m 364 386 l 535 779 l 706 386 z m 674 1240 b 608 1216 648 1240 626 1232 b 582 1154 591 1200 582 1179 l 582 1144 b 608 1083 582 1119 591 1099 b 674 1060 626 1068 648 1060 b 738 1083 699 1060 720 1068 b 764 1144 755 1099 764 1119 l 764 1154 b 738 1216 764 1179 755 1200 b 674 1240 720 1232 699 1240 z m 397 1240 b 332 1216 371 1240 350 1232 b 306 1154 314 1200 306 1179 l 306 1144 b 332 1083 306 1119 314 1099 b 397 1060 350 1068 371 1060 b 461 1083 422 1060 444 1068 b 488 1144 479 1099 488 1119 l 488 1154 b 461 1216 488 1179 479 1200 b 397 1240 444 1232 422 1240 z "},"Å":{"ha":1097,"x_min":0,"x_max":0,"o":"m 640 950 b 707 1071 685 979 707 1019 l 707 1074 b 659 1180 707 1114 691 1150 b 549 1225 627 1210 590 1225 b 438 1180 507 1225 470 1210 b 390 1074 406 1150 390 1114 l 390 1071 b 457 950 390 1021 413 981 l 79 108 b 69 72 73 91 69 79 b 93 16 69 50 77 31 b 150 -7 109 1 128 -7 b 229 47 186 -7 213 11 l 310 235 l 782 235 l 861 53 b 944 -7 880 13 907 -7 b 1003 17 968 -7 987 1 b 1026 75 1019 34 1026 53 b 1017 110 1026 86 1023 98 z m 549 986 b 488 1011 525 986 505 994 b 463 1071 471 1028 463 1048 l 463 1074 b 488 1133 463 1097 471 1117 b 549 1158 505 1150 525 1158 b 609 1133 572 1158 592 1150 b 635 1074 626 1117 635 1097 l 635 1071 b 609 1011 635 1048 626 1028 b 549 986 592 994 572 986 z m 375 386 l 546 779 l 717 386 z "},"Æ":{"ha":1451,"x_min":0,"x_max":0,"o":"m 47 63 b 69 12 47 42 54 25 b 122 -8 83 -2 101 -8 b 197 39 154 -8 179 7 l 310 235 l 676 235 l 676 86 b 701 25 676 62 685 42 b 763 0 718 8 738 0 l 1304 0 b 1358 22 1325 0 1344 7 b 1381 76 1373 37 1381 55 b 1358 131 1381 98 1373 116 b 1304 153 1344 145 1325 153 l 847 153 l 847 414 l 1235 414 b 1289 436 1256 414 1274 421 b 1311 489 1304 451 1311 469 b 1289 544 1311 510 1304 528 b 1235 567 1274 559 1256 567 l 847 567 l 847 819 l 1297 819 b 1351 842 1319 819 1337 827 b 1374 896 1366 856 1374 875 b 1351 950 1374 917 1366 935 b 1297 972 1335 965 1318 972 l 629 972 b 529 913 585 972 551 952 l 61 111 b 47 63 52 97 47 81 z m 397 386 l 649 824 l 676 824 l 676 386 z "},"Ç":{"ha":1025,"x_min":0,"x_max":0,"o":"m 929 114 b 957 175 948 131 957 151 b 933 231 957 196 949 215 b 876 254 916 246 898 254 b 825 235 857 254 840 248 b 582 142 752 173 671 142 b 353 242 490 142 414 175 b 261 486 292 308 261 390 l 261 489 b 353 733 261 585 292 666 b 582 832 414 799 490 832 b 814 744 664 832 742 803 b 865 728 829 733 846 728 b 926 752 889 728 909 736 b 950 811 942 768 950 788 b 917 879 950 840 939 863 b 583 989 821 952 710 989 b 224 843 438 989 318 940 b 82 486 129 746 82 627 l 82 483 b 193 162 82 360 119 253 b 478 -7 267 71 362 14 l 394 -129 b 383 -161 387 -139 383 -150 b 418 -202 383 -175 395 -189 b 481 -222 441 -216 462 -222 b 535 -182 506 -222 524 -209 l 606 -15 b 929 114 730 -11 838 32 z "},"È":{"ha":931,"x_min":0,"x_max":0,"o":"m 211 0 l 783 0 b 838 22 805 0 823 7 b 860 76 852 37 860 55 b 837 131 860 98 852 116 b 783 153 822 145 804 153 l 296 153 l 296 414 l 714 414 b 768 436 735 414 753 421 b 790 489 783 451 790 469 b 768 544 790 510 783 528 b 714 567 753 559 735 567 l 296 567 l 296 819 l 776 819 b 831 842 798 819 816 827 b 853 896 845 856 853 875 b 831 950 853 917 845 935 b 776 972 816 965 798 972 l 211 972 b 150 947 187 972 167 964 b 125 886 133 931 125 910 l 125 86 b 150 25 125 62 133 42 b 211 0 167 8 187 0 z m 492 1046 b 535 1075 520 1046 535 1056 b 522 1106 535 1082 531 1093 l 443 1228 b 376 1268 426 1255 404 1268 b 309 1251 353 1268 331 1262 b 276 1214 287 1239 276 1227 b 300 1172 276 1200 284 1186 l 394 1083 b 492 1046 420 1058 453 1046 z "},"É":{"ha":931,"x_min":0,"x_max":0,"o":"m 483 1046 b 582 1083 522 1046 555 1058 l 675 1172 b 699 1214 691 1186 699 1200 b 666 1251 699 1227 688 1239 b 599 1268 644 1262 622 1268 b 532 1228 571 1268 549 1255 l 453 1106 b 442 1075 445 1094 442 1084 b 483 1046 442 1056 456 1046 z m 211 0 l 783 0 b 838 22 805 0 823 7 b 860 76 852 37 860 55 b 837 131 860 98 852 116 b 783 153 822 145 804 153 l 296 153 l 296 414 l 714 414 b 768 436 735 414 753 421 b 790 489 783 451 790 469 b 768 544 790 510 783 528 b 714 567 753 559 735 567 l 296 567 l 296 819 l 776 819 b 831 842 798 819 816 827 b 853 896 845 856 853 875 b 831 950 853 917 845 935 b 776 972 816 965 798 972 l 211 972 b 150 947 187 972 167 964 b 125 886 133 931 125 910 l 125 86 b 150 25 125 62 133 42 b 211 0 167 8 187 0 z "},"Ê":{"ha":931,"x_min":0,"x_max":0,"o":"m 486 1146 l 558 1083 b 661 1046 589 1058 623 1046 b 701 1074 688 1046 701 1055 b 685 1107 701 1081 696 1092 l 593 1222 b 513 1263 572 1249 545 1263 l 463 1263 b 382 1222 431 1263 404 1249 l 290 1107 b 274 1074 279 1092 274 1081 b 311 1046 274 1055 286 1046 b 414 1083 350 1046 384 1058 z m 211 0 l 783 0 b 838 22 805 0 823 7 b 860 76 852 37 860 55 b 837 131 860 98 852 116 b 783 153 822 145 804 153 l 296 153 l 296 414 l 714 414 b 768 436 735 414 753 421 b 790 489 783 451 790 469 b 768 544 790 510 783 528 b 714 567 753 559 735 567 l 296 567 l 296 819 l 776 819 b 831 842 798 819 816 827 b 853 896 845 856 853 875 b 831 950 853 917 845 935 b 776 972 816 965 798 972 l 211 972 b 150 947 187 972 167 964 b 125 886 133 931 125 910 l 125 86 b 150 25 125 62 133 42 b 211 0 167 8 187 0 z "},"Ë":{"ha":931,"x_min":0,"x_max":0,"o":"m 626 1226 b 561 1202 600 1226 579 1218 b 535 1140 544 1186 535 1165 l 535 1131 b 561 1069 535 1106 544 1085 b 626 1046 579 1054 600 1046 b 690 1069 651 1046 673 1054 b 717 1131 708 1085 717 1106 l 717 1140 b 690 1202 717 1165 708 1186 b 626 1226 673 1218 651 1226 z m 350 1226 b 285 1202 324 1226 302 1218 b 258 1140 267 1186 258 1165 l 258 1131 b 285 1069 258 1106 267 1085 b 350 1046 302 1054 324 1046 b 414 1069 375 1046 396 1054 b 440 1131 431 1085 440 1106 l 440 1140 b 414 1202 440 1165 431 1186 b 350 1226 396 1218 375 1226 z m 211 0 l 783 0 b 838 22 805 0 823 7 b 860 76 852 37 860 55 b 837 131 860 98 852 116 b 783 153 822 145 804 153 l 296 153 l 296 414 l 714 414 b 768 436 735 414 753 421 b 790 489 783 451 790 469 b 768 544 790 510 783 528 b 714 567 753 559 735 567 l 296 567 l 296 819 l 776 819 b 831 842 798 819 816 827 b 853 896 845 856 853 875 b 831 950 853 917 845 935 b 776 972 816 965 798 972 l 211 972 b 150 947 187 972 167 964 b 125 886 133 931 125 910 l 125 86 b 150 25 125 62 133 42 b 211 0 167 8 187 0 z "},"Ì":{"ha":440,"x_min":0,"x_max":0,"o":"m 135 78 b 160 17 135 54 143 34 b 221 -7 176 1 197 -7 b 281 17 244 -7 264 1 b 306 78 297 34 306 54 l 306 894 b 281 955 306 919 297 939 b 221 979 264 971 244 979 b 160 955 197 979 176 971 b 135 894 143 939 135 919 z m 225 1046 b 268 1075 254 1046 268 1056 b 256 1106 268 1082 264 1093 l 176 1228 b 110 1268 160 1255 138 1268 b 42 1251 87 1268 64 1262 b 10 1214 21 1239 10 1227 b 33 1172 10 1200 18 1186 l 128 1083 b 225 1046 154 1058 186 1046 z "},"Í":{"ha":440,"x_min":0,"x_max":0,"o":"m 135 78 b 160 17 135 54 143 34 b 221 -7 176 1 197 -7 b 281 17 244 -7 264 1 b 306 78 297 34 306 54 l 306 894 b 281 955 306 919 297 939 b 221 979 264 971 244 979 b 160 955 197 979 176 971 b 135 894 143 939 135 919 z m 217 1046 b 315 1083 256 1046 288 1058 l 408 1172 b 432 1214 424 1186 432 1200 b 399 1251 432 1227 421 1239 b 332 1268 378 1262 355 1268 b 265 1228 304 1268 282 1255 l 186 1106 b 175 1075 179 1094 175 1084 b 217 1046 175 1056 189 1046 z "},"Î":{"ha":440,"x_min":0,"x_max":0,"o":"m 135 78 b 160 17 135 54 143 34 b 221 -7 176 1 197 -7 b 281 17 244 -7 264 1 b 306 78 297 34 306 54 l 306 894 b 281 955 306 919 297 939 b 221 979 264 971 244 979 b 160 955 197 979 176 971 b 135 894 143 939 135 919 z m 219 1146 l 292 1083 b 394 1046 322 1058 356 1046 b 435 1074 421 1046 435 1055 b 418 1107 435 1081 429 1092 l 326 1222 b 246 1263 305 1249 278 1263 l 196 1263 b 115 1222 164 1263 138 1249 l 24 1107 b 7 1074 13 1092 7 1081 b 44 1046 7 1055 19 1046 b 147 1083 83 1046 118 1058 z "},"Ï":{"ha":440,"x_min":0,"x_max":0,"o":"m 135 78 b 160 17 135 54 143 34 b 221 -7 176 1 197 -7 b 281 17 244 -7 264 1 b 306 78 297 34 306 54 l 306 894 b 281 955 306 919 297 939 b 221 979 264 971 244 979 b 160 955 197 979 176 971 b 135 894 143 939 135 919 z m 360 1226 b 294 1202 334 1226 312 1218 b 268 1140 277 1186 268 1165 l 268 1131 b 294 1069 268 1106 277 1085 b 360 1046 312 1054 334 1046 b 424 1069 385 1046 406 1054 b 450 1131 441 1085 450 1106 l 450 1140 b 424 1202 450 1165 441 1186 b 360 1226 406 1218 385 1226 z m 83 1226 b 18 1202 57 1226 36 1218 b -8 1140 0 1186 -8 1165 l -8 1131 b 18 1069 -8 1106 0 1085 b 83 1046 36 1054 57 1046 b 147 1069 108 1046 130 1054 b 174 1131 165 1085 174 1106 l 174 1140 b 147 1202 174 1165 165 1186 b 83 1226 130 1218 108 1226 z "},"Ð":{"ha":1128,"x_min":0,"x_max":0,"o":"m 131 565 b 77 543 109 565 91 558 b 56 489 63 528 56 510 b 78 435 56 468 63 450 b 131 413 93 420 110 413 l 167 413 l 167 86 b 192 25 167 62 175 42 b 253 0 208 8 229 0 l 529 0 b 901 139 680 0 804 46 b 1046 486 997 231 1046 347 l 1046 489 b 901 834 1046 627 997 742 b 529 972 804 926 680 972 l 253 972 b 192 947 229 972 208 964 b 167 886 175 931 167 910 l 167 565 z m 336 817 l 529 817 b 774 724 630 817 712 786 b 867 486 836 662 867 582 l 867 483 b 774 247 867 387 836 308 b 529 156 712 186 630 156 l 336 156 l 336 413 l 513 413 b 565 435 533 413 550 420 b 588 489 580 450 588 468 b 566 543 588 510 580 528 b 513 565 552 558 534 565 l 336 565 z "},"Ñ":{"ha":1097,"x_min":0,"x_max":0,"o":"m 125 76 b 150 17 125 53 133 34 b 210 -7 167 1 187 -7 b 269 17 233 -7 253 1 b 293 76 285 34 293 53 l 293 693 l 793 46 b 882 -6 820 12 850 -6 l 889 -6 b 948 19 912 -6 932 3 b 972 79 964 35 972 55 l 972 896 b 947 955 972 919 964 939 b 888 979 931 971 911 979 b 828 955 864 979 845 971 b 804 896 812 939 804 919 l 804 299 l 318 928 b 229 978 291 961 262 978 l 211 978 b 150 953 187 978 167 969 b 125 892 133 936 125 916 z m 397 1064 b 461 1108 413 1094 434 1108 b 551 1081 476 1108 506 1099 b 661 1053 597 1062 633 1053 b 747 1084 696 1053 725 1063 b 803 1179 768 1105 787 1137 b 808 1211 806 1192 808 1203 b 793 1243 808 1223 803 1234 b 757 1257 783 1252 771 1257 b 711 1229 738 1257 723 1248 b 647 1185 695 1200 674 1185 b 557 1213 632 1185 602 1194 b 447 1240 512 1231 475 1240 b 362 1209 412 1240 384 1230 b 306 1114 340 1188 321 1156 b 300 1082 302 1101 300 1090 b 315 1050 300 1070 305 1059 b 351 1036 325 1041 338 1036 b 397 1064 370 1036 385 1045 z "},"Ò":{"ha":1181,"x_min":0,"x_max":0,"o":"m 589 -17 b 954 131 736 -17 858 32 b 1099 486 1050 229 1099 347 l 1099 489 b 956 843 1099 628 1051 746 b 592 989 860 940 739 989 b 226 842 444 989 323 940 b 82 486 130 744 82 625 l 82 483 b 225 129 82 344 130 226 b 589 -17 320 32 442 -17 z m 592 142 b 355 242 496 142 417 175 b 261 486 292 308 261 390 l 261 489 b 353 733 261 585 292 666 b 589 832 415 799 494 832 b 826 731 684 832 763 798 b 919 486 888 664 919 582 l 919 483 b 827 240 919 387 889 306 b 592 142 766 175 687 142 z m 594 1060 b 638 1089 623 1060 638 1069 b 625 1119 638 1096 633 1106 l 546 1242 b 479 1282 529 1269 507 1282 b 412 1265 456 1282 434 1276 b 379 1228 390 1253 379 1241 b 403 1186 379 1214 387 1200 l 497 1097 b 594 1060 523 1072 556 1060 z "},"Ó":{"ha":1181,"x_min":0,"x_max":0,"o":"m 585 1060 b 683 1097 624 1060 656 1072 l 776 1186 b 800 1228 792 1200 800 1214 b 767 1265 800 1241 789 1253 b 700 1282 746 1276 723 1282 b 633 1242 672 1282 650 1269 l 554 1119 b 543 1089 547 1108 543 1098 b 585 1060 543 1069 557 1060 z m 589 -17 b 954 131 736 -17 858 32 b 1099 486 1050 229 1099 347 l 1099 489 b 956 843 1099 628 1051 746 b 592 989 860 940 739 989 b 226 842 444 989 323 940 b 82 486 130 744 82 625 l 82 483 b 225 129 82 344 130 226 b 589 -17 320 32 442 -17 z m 592 142 b 355 242 496 142 417 175 b 261 486 292 308 261 390 l 261 489 b 353 733 261 585 292 666 b 589 832 415 799 494 832 b 826 731 684 832 763 798 b 919 486 888 664 919 582 l 919 483 b 827 240 919 387 889 306 b 592 142 766 175 687 142 z "},"Ô":{"ha":1181,"x_min":0,"x_max":0,"o":"m 589 1160 l 661 1097 b 764 1060 692 1072 726 1060 b 804 1088 791 1060 804 1069 b 788 1121 804 1095 799 1106 l 696 1236 b 615 1276 675 1263 648 1276 l 565 1276 b 485 1236 534 1276 507 1263 l 393 1121 b 376 1088 382 1106 376 1095 b 414 1060 376 1069 389 1060 b 517 1097 453 1060 487 1072 z m 589 -17 b 954 131 736 -17 858 32 b 1099 486 1050 229 1099 347 l 1099 489 b 956 843 1099 628 1051 746 b 592 989 860 940 739 989 b 226 842 444 989 323 940 b 82 486 130 744 82 625 l 82 483 b 225 129 82 344 130 226 b 589 -17 320 32 442 -17 z m 592 142 b 355 242 496 142 417 175 b 261 486 292 308 261 390 l 261 489 b 353 733 261 585 292 666 b 589 832 415 799 494 832 b 826 731 684 832 763 798 b 919 486 888 664 919 582 l 919 483 b 827 240 919 387 889 306 b 592 142 766 175 687 142 z "},"Õ":{"ha":1181,"x_min":0,"x_max":0,"o":"m 589 -17 b 954 131 736 -17 858 32 b 1099 486 1050 229 1099 347 l 1099 489 b 956 843 1099 628 1051 746 b 592 989 860 940 739 989 b 226 842 444 989 323 940 b 82 486 130 744 82 625 l 82 483 b 225 129 82 344 130 226 b 589 -17 320 32 442 -17 z m 592 142 b 355 242 496 142 417 175 b 261 486 292 308 261 390 l 261 489 b 353 733 261 585 292 666 b 589 832 415 799 494 832 b 826 731 684 832 763 798 b 919 486 888 664 919 582 l 919 483 b 827 240 919 387 889 306 b 592 142 766 175 687 142 z m 439 1078 b 503 1122 455 1107 476 1122 b 593 1094 518 1122 548 1113 b 703 1067 638 1076 675 1067 b 788 1098 738 1067 766 1077 b 844 1193 810 1119 829 1150 b 850 1225 848 1206 850 1217 b 835 1257 850 1237 845 1248 b 799 1271 825 1266 813 1271 b 753 1243 780 1271 765 1262 b 689 1199 737 1213 716 1199 b 599 1226 674 1199 644 1208 b 489 1254 553 1245 517 1254 b 403 1223 454 1254 425 1244 b 347 1128 382 1202 363 1170 b 342 1096 344 1115 342 1104 b 357 1064 342 1084 347 1073 b 393 1050 367 1055 379 1050 b 439 1078 412 1050 427 1059 z "},"Ö":{"ha":1181,"x_min":0,"x_max":0,"o":"m 729 1240 b 664 1216 703 1240 681 1232 b 638 1154 646 1200 638 1179 l 638 1144 b 664 1083 638 1119 646 1099 b 729 1060 681 1068 703 1060 b 793 1083 754 1060 775 1068 b 819 1144 811 1099 819 1119 l 819 1154 b 793 1216 819 1179 811 1200 b 729 1240 775 1232 754 1240 z m 453 1240 b 388 1216 427 1240 405 1232 b 361 1154 370 1200 361 1179 l 361 1144 b 388 1083 361 1119 370 1099 b 453 1060 405 1068 427 1060 b 517 1083 478 1060 499 1068 b 543 1144 534 1099 543 1119 l 543 1154 b 517 1216 543 1179 534 1200 b 453 1240 499 1232 478 1240 z m 589 -17 b 954 131 736 -17 858 32 b 1099 486 1050 229 1099 347 l 1099 489 b 956 843 1099 628 1051 746 b 592 989 860 940 739 989 b 226 842 444 989 323 940 b 82 486 130 744 82 625 l 82 483 b 225 129 82 344 130 226 b 589 -17 320 32 442 -17 z m 592 142 b 355 242 496 142 417 175 b 261 486 292 308 261 390 l 261 489 b 353 733 261 585 292 666 b 589 832 415 799 494 832 b 826 731 684 832 763 798 b 919 486 888 664 919 582 l 919 483 b 827 240 919 387 889 306 b 592 142 766 175 687 142 z "},"×":{"ha":881,"x_min":0,"x_max":0,"o":"m 722 668 b 747 722 739 683 747 701 b 726 774 747 743 740 760 b 674 796 713 789 695 796 b 621 772 652 796 635 788 l 442 590 l 264 772 b 208 796 248 788 230 796 b 156 774 188 796 170 789 b 133 721 141 760 133 742 b 156 665 133 700 141 682 l 339 488 l 158 310 b 133 254 142 295 133 276 b 154 203 133 234 140 217 b 206 182 168 189 185 182 b 260 206 228 182 246 190 l 439 388 l 617 204 b 672 182 633 189 652 182 b 725 203 693 182 710 189 b 747 257 740 218 747 236 b 724 313 747 278 739 297 l 542 490 z "},"Ø":{"ha":1181,"x_min":0,"x_max":0,"o":"m 589 -17 b 954 131 736 -17 858 32 b 1099 486 1050 229 1099 347 l 1099 489 b 985 811 1099 612 1061 719 l 1050 879 b 1074 932 1066 895 1074 913 b 1056 970 1074 947 1068 959 b 1014 986 1045 981 1031 986 b 961 963 994 986 977 978 l 894 894 b 592 989 808 957 707 989 b 226 842 444 989 323 940 b 82 486 130 744 82 625 l 82 483 b 196 161 82 360 120 253 l 131 93 b 107 42 115 77 107 60 b 124 2 107 26 113 13 b 167 -14 135 -9 149 -14 b 219 10 188 -14 206 -6 l 286 76 b 589 -17 373 14 474 -17 z m 258 486 l 258 489 b 352 734 258 585 290 667 b 589 835 415 801 494 835 b 781 772 660 835 724 814 l 317 288 b 258 486 278 347 258 413 z m 592 138 b 399 199 519 138 455 158 l 864 685 b 922 486 903 624 922 557 l 922 483 b 828 238 922 387 891 305 b 592 138 766 171 687 138 z "},"Ù":{"ha":1051,"x_min":0,"x_max":0,"o":"m 524 -15 b 831 97 654 -15 756 22 b 942 421 905 171 942 279 l 942 894 b 917 955 942 919 933 939 b 857 979 900 971 880 979 b 796 955 833 979 813 971 b 771 894 779 939 771 919 l 771 413 b 706 212 771 325 749 258 b 526 143 663 166 603 143 b 345 215 449 143 388 167 b 281 419 302 262 281 331 l 281 894 b 256 955 281 919 272 939 b 196 979 239 971 219 979 b 135 955 172 979 151 971 b 110 894 118 939 110 919 l 110 413 b 220 94 110 274 147 168 b 524 -15 294 21 395 -15 z m 529 1046 b 572 1075 558 1046 572 1056 b 560 1106 572 1082 568 1093 l 481 1228 b 414 1268 464 1255 442 1268 b 347 1251 391 1268 368 1262 b 314 1214 325 1239 314 1227 b 338 1172 314 1200 322 1186 l 432 1083 b 529 1046 458 1058 490 1046 z "},"Ú":{"ha":1051,"x_min":0,"x_max":0,"o":"m 521 1046 b 619 1083 560 1046 593 1058 l 713 1172 b 736 1214 728 1186 736 1200 b 703 1251 736 1227 725 1239 b 636 1268 682 1262 659 1268 b 569 1228 608 1268 586 1255 l 490 1106 b 479 1075 483 1094 479 1084 b 521 1046 479 1056 493 1046 z m 524 -15 b 831 97 654 -15 756 22 b 942 421 905 171 942 279 l 942 894 b 917 955 942 919 933 939 b 857 979 900 971 880 979 b 796 955 833 979 813 971 b 771 894 779 939 771 919 l 771 413 b 706 212 771 325 749 258 b 526 143 663 166 603 143 b 345 215 449 143 388 167 b 281 419 302 262 281 331 l 281 894 b 256 955 281 919 272 939 b 196 979 239 971 219 979 b 135 955 172 979 151 971 b 110 894 118 939 110 919 l 110 413 b 220 94 110 274 147 168 b 524 -15 294 21 395 -15 z "},"Û":{"ha":1051,"x_min":0,"x_max":0,"o":"m 524 1146 l 596 1083 b 699 1046 626 1058 661 1046 b 739 1074 725 1046 739 1055 b 722 1107 739 1081 733 1092 l 631 1222 b 550 1263 609 1249 582 1263 l 500 1263 b 419 1222 469 1263 442 1249 l 328 1107 b 311 1074 317 1092 311 1081 b 349 1046 311 1055 324 1046 b 451 1083 388 1046 422 1058 z m 524 -15 b 831 97 654 -15 756 22 b 942 421 905 171 942 279 l 942 894 b 917 955 942 919 933 939 b 857 979 900 971 880 979 b 796 955 833 979 813 971 b 771 894 779 939 771 919 l 771 413 b 706 212 771 325 749 258 b 526 143 663 166 603 143 b 345 215 449 143 388 167 b 281 419 302 262 281 331 l 281 894 b 256 955 281 919 272 939 b 196 979 239 971 219 979 b 135 955 172 979 151 971 b 110 894 118 939 110 919 l 110 413 b 220 94 110 274 147 168 b 524 -15 294 21 395 -15 z "},"Ü":{"ha":1051,"x_min":0,"x_max":0,"o":"m 664 1226 b 599 1202 638 1226 616 1218 b 572 1140 581 1186 572 1165 l 572 1131 b 599 1069 572 1106 581 1085 b 664 1046 616 1054 638 1046 b 728 1069 689 1046 710 1054 b 754 1131 745 1085 754 1106 l 754 1140 b 728 1202 754 1165 745 1186 b 664 1226 710 1218 689 1226 z m 388 1226 b 322 1202 362 1226 340 1218 b 296 1140 305 1186 296 1165 l 296 1131 b 322 1069 296 1106 305 1085 b 388 1046 340 1054 362 1046 b 451 1069 413 1046 434 1054 b 478 1131 469 1085 478 1106 l 478 1140 b 451 1202 478 1165 469 1186 b 388 1226 434 1218 413 1226 z m 524 -15 b 831 97 654 -15 756 22 b 942 421 905 171 942 279 l 942 894 b 917 955 942 919 933 939 b 857 979 900 971 880 979 b 796 955 833 979 813 971 b 771 894 779 939 771 919 l 771 413 b 706 212 771 325 749 258 b 526 143 663 166 603 143 b 345 215 449 143 388 167 b 281 419 302 262 281 331 l 281 894 b 256 955 281 919 272 939 b 196 979 239 971 219 979 b 135 955 172 979 151 971 b 110 894 118 939 110 919 l 110 413 b 220 94 110 274 147 168 b 524 -15 294 21 395 -15 z "},"Ý":{"ha":967,"x_min":0,"x_max":0,"o":"m 399 78 b 423 17 399 54 407 34 b 483 -7 439 1 459 -7 b 544 17 507 -7 528 1 b 569 78 561 34 569 54 l 569 382 l 901 836 b 925 897 917 857 925 878 b 901 956 925 920 917 940 b 842 981 886 972 866 981 b 760 929 810 981 783 963 l 485 538 l 214 928 b 131 979 191 962 163 979 b 69 956 106 979 86 971 b 44 897 53 940 44 920 b 64 838 44 877 51 857 l 399 378 z m 479 1046 b 578 1083 518 1046 551 1058 l 671 1172 b 694 1214 687 1186 694 1200 b 662 1251 694 1227 684 1239 b 594 1268 640 1262 618 1268 b 528 1228 567 1268 544 1255 l 449 1106 b 438 1075 441 1094 438 1084 b 479 1046 438 1056 451 1046 z "},"Þ":{"ha":935,"x_min":0,"x_max":0,"o":"m 125 78 b 150 17 125 54 133 34 b 211 -7 167 1 187 -7 b 272 17 235 -7 255 1 b 296 78 288 34 296 54 l 296 161 l 489 161 b 767 248 601 161 694 190 b 878 493 841 306 878 388 l 878 496 b 778 732 878 594 844 673 b 508 821 711 791 621 821 l 296 821 l 296 894 b 272 955 296 919 288 939 b 211 979 255 971 235 979 b 150 955 187 979 167 971 b 125 894 133 939 125 919 z m 296 314 l 296 665 l 494 665 b 648 620 559 665 610 650 b 704 492 685 590 704 547 l 704 489 b 647 363 704 437 685 395 b 494 314 609 330 558 314 z "},"ß":{"ha":861,"x_min":0,"x_max":0,"o":"m 404 65 b 425 15 404 45 411 28 b 481 -4 439 2 457 -4 b 701 72 566 -2 639 23 b 793 272 762 120 793 187 l 793 275 b 582 522 793 393 723 475 b 736 760 685 579 736 658 l 736 763 b 655 949 736 838 709 900 b 436 1024 601 999 528 1024 b 194 936 334 1024 254 994 b 106 697 135 878 106 798 l 106 75 b 129 17 106 52 113 32 b 188 -7 145 1 164 -7 b 248 17 212 -7 232 1 b 272 75 264 32 272 52 l 272 703 b 315 832 272 756 287 800 b 428 881 344 864 381 881 b 530 844 470 881 504 868 b 568 747 555 819 568 787 l 568 744 b 440 569 568 675 525 617 b 404 500 416 554 404 531 b 465 426 404 463 425 438 b 625 279 572 400 625 350 l 625 276 b 464 132 625 197 571 149 b 404 65 424 123 404 100 z "},"à":{"ha":815,"x_min":0,"x_max":0,"o":"m 317 -15 b 556 92 417 -15 496 20 l 556 64 b 578 14 556 44 563 28 b 638 -7 594 0 613 -7 b 696 16 661 -7 680 1 b 719 74 712 31 719 50 l 719 435 b 640 661 719 534 693 609 b 397 743 588 716 506 743 b 161 700 316 743 237 729 b 115 633 131 688 115 666 b 136 584 115 614 122 597 b 186 564 150 571 167 564 b 213 568 194 564 203 565 b 375 597 262 588 316 597 b 510 556 434 597 479 584 b 557 438 541 529 557 489 l 557 419 b 360 450 493 440 427 450 b 139 390 267 450 194 430 b 57 214 84 349 57 291 l 57 211 b 133 45 57 141 82 85 b 317 -15 183 5 244 -15 z m 364 107 b 261 137 322 107 288 117 b 221 218 234 157 221 184 l 221 221 b 267 310 221 259 236 289 b 393 343 297 332 339 343 b 560 314 454 343 510 333 l 560 264 b 504 151 560 218 541 180 b 364 107 467 122 420 107 z m 413 819 b 456 849 441 819 456 829 b 443 879 456 857 451 867 l 364 1001 b 297 1042 347 1028 325 1042 b 230 1024 274 1042 252 1036 b 197 988 208 1013 197 1000 b 221 946 197 974 205 960 l 315 857 b 413 819 341 832 374 819 z "},"á":{"ha":815,"x_min":0,"x_max":0,"o":"m 317 -15 b 556 92 417 -15 496 20 l 556 64 b 578 14 556 44 563 28 b 638 -7 594 0 613 -7 b 696 16 661 -7 680 1 b 719 74 712 31 719 50 l 719 435 b 640 661 719 534 693 609 b 397 743 588 716 506 743 b 161 700 316 743 237 729 b 115 633 131 688 115 666 b 136 584 115 614 122 597 b 186 564 150 571 167 564 b 213 568 194 564 203 565 b 375 597 262 588 316 597 b 510 556 434 597 479 584 b 557 438 541 529 557 489 l 557 419 b 360 450 493 440 427 450 b 139 390 267 450 194 430 b 57 214 84 349 57 291 l 57 211 b 133 45 57 141 82 85 b 317 -15 183 5 244 -15 z m 364 107 b 261 137 322 107 288 117 b 221 218 234 157 221 184 l 221 221 b 267 310 221 259 236 289 b 393 343 297 332 339 343 b 560 314 454 343 510 333 l 560 264 b 504 151 560 218 541 180 b 364 107 467 122 420 107 z m 404 819 b 503 857 443 819 476 832 l 596 946 b 619 988 612 960 619 974 b 587 1024 619 1000 609 1013 b 519 1042 565 1036 543 1042 b 453 1001 492 1042 469 1028 l 374 879 b 363 849 366 868 363 858 b 404 819 363 829 376 819 z "},"â":{"ha":815,"x_min":0,"x_max":0,"o":"m 317 -15 b 556 92 417 -15 496 20 l 556 64 b 578 14 556 44 563 28 b 638 -7 594 0 613 -7 b 696 16 661 -7 680 1 b 719 74 712 31 719 50 l 719 435 b 640 661 719 534 693 609 b 397 743 588 716 506 743 b 161 700 316 743 237 729 b 115 633 131 688 115 666 b 136 584 115 614 122 597 b 186 564 150 571 167 564 b 213 568 194 564 203 565 b 375 597 262 588 316 597 b 510 556 434 597 479 584 b 557 438 541 529 557 489 l 557 419 b 360 450 493 440 427 450 b 139 390 267 450 194 430 b 57 214 84 349 57 291 l 57 211 b 133 45 57 141 82 85 b 317 -15 183 5 244 -15 z m 364 107 b 261 137 322 107 288 117 b 221 218 234 157 221 184 l 221 221 b 267 310 221 259 236 289 b 393 343 297 332 339 343 b 560 314 454 343 510 333 l 560 264 b 504 151 560 218 541 180 b 364 107 467 122 420 107 z m 407 919 l 479 857 b 582 819 510 832 544 819 b 622 847 609 819 622 829 b 606 881 622 855 617 866 l 514 996 b 433 1036 493 1023 466 1036 l 383 1036 b 303 996 352 1036 325 1023 l 211 881 b 194 847 200 866 194 855 b 232 819 194 829 207 819 b 335 857 271 819 305 832 z "},"ã":{"ha":815,"x_min":0,"x_max":0,"o":"m 317 -15 b 556 92 417 -15 496 20 l 556 64 b 578 14 556 44 563 28 b 638 -7 594 0 613 -7 b 696 16 661 -7 680 1 b 719 74 712 31 719 50 l 719 435 b 640 661 719 534 693 609 b 397 743 588 716 506 743 b 161 700 316 743 237 729 b 115 633 131 688 115 666 b 136 584 115 614 122 597 b 186 564 150 571 167 564 b 213 568 194 564 203 565 b 375 597 262 588 316 597 b 510 556 434 597 479 584 b 557 438 541 529 557 489 l 557 419 b 360 450 493 440 427 450 b 139 390 267 450 194 430 b 57 214 84 349 57 291 l 57 211 b 133 45 57 141 82 85 b 317 -15 183 5 244 -15 z m 258 838 b 322 882 274 867 295 882 b 413 854 337 882 367 873 b 522 826 458 836 494 826 b 608 858 557 826 586 837 b 664 953 629 878 648 910 b 669 985 668 966 669 976 b 654 1017 669 997 664 1007 b 618 1031 644 1026 632 1031 b 572 1003 600 1031 584 1021 b 508 958 556 973 535 958 b 418 986 494 958 463 968 b 308 1014 373 1005 336 1014 b 223 983 273 1014 245 1003 b 167 888 201 962 182 930 b 161 856 163 875 161 864 b 176 824 161 844 166 833 b 213 810 187 814 199 810 b 258 838 231 810 246 819 z m 364 107 b 261 137 322 107 288 117 b 221 218 234 157 221 184 l 221 221 b 267 310 221 259 236 289 b 393 343 297 332 339 343 b 560 314 454 343 510 333 l 560 264 b 504 151 560 218 541 180 b 364 107 467 122 420 107 z "},"ä":{"ha":815,"x_min":0,"x_max":0,"o":"m 317 -15 b 556 92 417 -15 496 20 l 556 64 b 578 14 556 44 563 28 b 638 -7 594 0 613 -7 b 696 16 661 -7 680 1 b 719 74 712 31 719 50 l 719 435 b 640 661 719 534 693 609 b 397 743 588 716 506 743 b 161 700 316 743 237 729 b 115 633 131 688 115 666 b 136 584 115 614 122 597 b 186 564 150 571 167 564 b 213 568 194 564 203 565 b 375 597 262 588 316 597 b 510 556 434 597 479 584 b 557 438 541 529 557 489 l 557 419 b 360 450 493 440 427 450 b 139 390 267 450 194 430 b 57 214 84 349 57 291 l 57 211 b 133 45 57 141 82 85 b 317 -15 183 5 244 -15 z m 364 107 b 261 137 322 107 288 117 b 221 218 234 157 221 184 l 221 221 b 267 310 221 259 236 289 b 393 343 297 332 339 343 b 560 314 454 343 510 333 l 560 264 b 504 151 560 218 541 180 b 364 107 467 122 420 107 z m 547 1000 b 482 976 521 1000 500 992 b 456 914 464 959 456 939 l 456 904 b 482 843 456 879 464 859 b 547 819 500 827 521 819 b 611 843 572 819 594 827 b 638 904 629 859 638 879 l 638 914 b 611 976 638 939 629 959 b 547 1000 594 992 572 1000 z m 271 1000 b 206 976 245 1000 223 992 b 179 914 188 959 179 939 l 179 904 b 206 843 179 879 188 859 b 271 819 223 827 245 819 b 335 843 296 819 317 827 b 361 904 352 859 361 879 l 361 914 b 335 976 361 939 352 959 b 271 1000 317 992 296 1000 z "},"å":{"ha":815,"x_min":0,"x_max":0,"o":"m 317 -15 b 556 92 417 -15 496 20 l 556 64 b 578 14 556 44 563 28 b 638 -7 594 0 613 -7 b 696 16 661 -7 680 1 b 719 74 712 31 719 50 l 719 435 b 640 661 719 534 693 609 b 397 743 588 716 506 743 b 161 700 316 743 237 729 b 115 633 131 688 115 666 b 136 584 115 614 122 597 b 186 564 150 571 167 564 b 213 568 194 564 203 565 b 375 597 262 588 316 597 b 510 556 434 597 479 584 b 557 438 541 529 557 489 l 557 419 b 360 450 493 440 427 450 b 139 390 267 450 194 430 b 57 214 84 349 57 291 l 57 211 b 133 45 57 141 82 85 b 317 -15 183 5 244 -15 z m 408 824 b 519 869 450 824 487 839 b 567 975 551 899 567 934 l 567 978 b 519 1085 567 1019 551 1055 b 408 1129 487 1114 450 1129 b 298 1085 367 1129 330 1114 b 250 978 266 1055 250 1019 l 250 975 b 298 869 250 934 266 899 b 408 824 330 839 367 824 z m 364 107 b 261 137 322 107 288 117 b 221 218 234 157 221 184 l 221 221 b 267 310 221 259 236 289 b 393 343 297 332 339 343 b 560 314 454 343 510 333 l 560 264 b 504 151 560 218 541 180 b 364 107 467 122 420 107 z m 408 890 b 348 915 385 890 365 899 b 322 975 331 932 322 952 l 322 978 b 348 1038 322 1001 331 1021 b 408 1063 365 1054 385 1063 b 469 1038 431 1063 452 1054 b 494 978 486 1021 494 1001 l 494 975 b 469 915 494 952 486 932 b 408 890 452 899 431 890 z "},"æ":{"ha":1322,"x_min":0,"x_max":0,"o":"m 714 418 b 777 558 721 475 742 522 b 906 611 812 593 855 611 b 1035 557 959 611 1002 593 b 1092 418 1067 521 1086 475 z m 361 108 b 261 138 321 108 288 118 b 221 218 234 158 221 185 l 221 221 b 265 310 221 259 236 289 b 390 343 295 332 337 343 b 551 315 446 343 500 334 b 579 203 555 277 564 240 b 361 108 512 140 439 108 z m 1188 81 b 1211 132 1203 94 1211 112 b 1192 181 1211 151 1205 168 b 1143 200 1179 194 1163 200 b 1101 185 1127 200 1113 195 b 926 121 1050 142 991 121 b 788 170 872 121 825 137 b 717 307 750 203 726 249 l 1175 307 b 1231 330 1197 307 1216 315 b 1254 388 1247 345 1254 364 b 1217 556 1254 447 1242 503 b 1099 692 1193 609 1153 655 b 910 749 1045 730 982 749 b 653 624 802 749 717 707 b 394 743 607 703 521 743 b 161 700 310 743 232 729 b 115 633 131 688 115 666 b 136 584 115 614 122 597 b 186 564 150 571 167 564 b 213 568 194 564 203 565 b 372 597 263 588 317 597 b 506 556 431 597 475 584 b 551 438 536 529 551 489 l 551 419 b 357 450 488 440 423 450 b 138 390 265 450 192 430 b 57 214 84 349 57 291 l 57 211 b 135 45 57 141 83 85 b 333 -15 188 5 254 -15 b 640 108 439 -15 541 26 b 924 -17 712 25 806 -17 b 1188 81 1027 -17 1115 16 z "},"ç":{"ha":793,"x_min":0,"x_max":0,"o":"m 711 88 b 735 140 727 100 735 118 b 714 192 735 161 728 178 b 663 214 700 207 683 214 b 617 196 646 214 631 208 b 453 131 566 152 511 131 b 295 199 389 131 336 153 b 233 365 254 244 233 300 l 233 368 b 294 533 233 433 254 488 b 446 601 335 579 386 601 b 603 539 500 601 553 581 b 653 522 618 528 634 522 b 708 544 674 522 692 530 b 731 599 723 559 731 577 b 704 657 731 622 722 641 b 447 749 634 718 548 749 b 174 636 338 749 247 711 b 65 365 102 561 65 471 l 65 363 b 144 128 65 275 91 197 b 347 -4 196 60 264 16 l 263 -129 b 251 -161 255 -139 251 -150 b 286 -202 251 -175 263 -189 b 349 -222 309 -216 330 -222 b 403 -182 374 -222 392 -209 l 475 -15 b 711 88 566 -11 644 24 z "},"è":{"ha":839,"x_min":0,"x_max":0,"o":"m 232 418 b 294 558 239 475 260 522 b 422 611 329 593 371 611 b 551 557 476 611 519 593 b 608 418 584 521 603 475 z m 706 81 b 728 132 720 95 728 113 b 708 181 728 151 721 168 b 661 200 695 194 680 200 b 618 185 645 200 631 195 b 444 121 566 142 508 121 b 304 170 389 121 342 137 b 233 307 266 203 243 249 l 693 307 b 749 330 715 307 734 315 b 772 388 765 345 772 364 b 735 556 772 447 760 503 b 617 692 711 609 671 655 b 424 749 562 730 498 749 b 167 638 320 749 234 712 b 65 367 99 563 65 473 l 65 364 b 173 90 65 252 101 160 b 442 -17 245 19 334 -17 b 706 81 545 -17 633 16 z m 425 819 b 468 849 454 819 468 829 b 456 879 468 857 464 867 l 376 1001 b 310 1042 360 1028 338 1042 b 242 1024 287 1042 264 1036 b 210 988 221 1013 210 1000 b 233 946 210 974 218 960 l 328 857 b 425 819 354 832 386 819 z "},"é":{"ha":839,"x_min":0,"x_max":0,"o":"m 417 819 b 515 857 456 819 488 832 l 608 946 b 632 988 624 960 632 974 b 599 1024 632 1000 621 1013 b 532 1042 578 1036 555 1042 b 465 1001 504 1042 482 1028 l 386 879 b 375 849 379 868 375 858 b 417 819 375 829 389 819 z m 232 418 b 294 558 239 475 260 522 b 422 611 329 593 371 611 b 551 557 476 611 519 593 b 608 418 584 521 603 475 z m 706 81 b 728 132 720 95 728 113 b 708 181 728 151 721 168 b 661 200 695 194 680 200 b 618 185 645 200 631 195 b 444 121 566 142 508 121 b 304 170 389 121 342 137 b 233 307 266 203 243 249 l 693 307 b 749 330 715 307 734 315 b 772 388 765 345 772 364 b 735 556 772 447 760 503 b 617 692 711 609 671 655 b 424 749 562 730 498 749 b 167 638 320 749 234 712 b 65 367 99 563 65 473 l 65 364 b 173 90 65 252 101 160 b 442 -17 245 19 334 -17 b 706 81 545 -17 633 16 z "},"ê":{"ha":839,"x_min":0,"x_max":0,"o":"m 419 919 l 492 857 b 594 819 522 832 556 819 b 635 847 621 819 635 829 b 618 881 635 855 629 866 l 526 996 b 446 1036 505 1023 478 1036 l 396 1036 b 315 996 364 1036 338 1023 l 224 881 b 207 847 213 866 207 855 b 244 819 207 829 219 819 b 347 857 283 819 318 832 z m 232 418 b 294 558 239 475 260 522 b 422 611 329 593 371 611 b 551 557 476 611 519 593 b 608 418 584 521 603 475 z m 706 81 b 728 132 720 95 728 113 b 708 181 728 151 721 168 b 661 200 695 194 680 200 b 618 185 645 200 631 195 b 444 121 566 142 508 121 b 304 170 389 121 342 137 b 233 307 266 203 243 249 l 693 307 b 749 330 715 307 734 315 b 772 388 765 345 772 364 b 735 556 772 447 760 503 b 617 692 711 609 671 655 b 424 749 562 730 498 749 b 167 638 320 749 234 712 b 65 367 99 563 65 473 l 65 364 b 173 90 65 252 101 160 b 442 -17 245 19 334 -17 b 706 81 545 -17 633 16 z "},"ë":{"ha":839,"x_min":0,"x_max":0,"o":"m 560 1000 b 494 976 534 1000 512 992 b 468 914 477 959 468 939 l 468 904 b 494 843 468 879 477 859 b 560 819 512 827 534 819 b 624 843 585 819 606 827 b 650 904 641 859 650 879 l 650 914 b 624 976 650 939 641 959 b 560 1000 606 992 585 1000 z m 283 1000 b 218 976 257 1000 236 992 b 192 914 200 959 192 939 l 192 904 b 218 843 192 879 200 859 b 283 819 236 827 257 819 b 347 843 308 819 330 827 b 374 904 365 859 374 879 l 374 914 b 347 976 374 939 365 959 b 283 1000 330 992 308 1000 z m 232 418 b 294 558 239 475 260 522 b 422 611 329 593 371 611 b 551 557 476 611 519 593 b 608 418 584 521 603 475 z m 706 81 b 728 132 720 95 728 113 b 708 181 728 151 721 168 b 661 200 695 194 680 200 b 618 185 645 200 631 195 b 444 121 566 142 508 121 b 304 170 389 121 342 137 b 233 307 266 203 243 249 l 693 307 b 749 330 715 307 734 315 b 772 388 765 345 772 364 b 735 556 772 447 760 503 b 617 692 711 609 671 655 b 424 749 562 730 498 749 b 167 638 320 749 234 712 b 65 367 99 563 65 473 l 65 364 b 173 90 65 252 101 160 b 442 -17 245 19 334 -17 b 706 81 545 -17 633 16 z "},"ì":{"ha":397,"x_min":0,"x_max":0,"o":"m 115 76 b 140 17 115 53 123 34 b 199 -7 156 1 175 -7 b 259 17 223 -7 243 1 b 283 76 275 34 283 53 l 283 657 b 258 717 283 680 275 700 b 199 742 242 733 222 742 b 140 717 175 742 156 734 b 115 657 123 701 115 681 z m 203 819 b 246 849 231 819 246 829 b 233 879 246 857 242 867 l 154 1001 b 88 1042 138 1028 115 1042 b 20 1024 64 1042 42 1036 b -12 988 -2 1013 -12 1000 b 11 946 -12 974 -5 960 l 106 857 b 203 819 131 832 164 819 z "},"í":{"ha":397,"x_min":0,"x_max":0,"o":"m 194 819 b 293 857 233 819 266 832 l 386 946 b 410 988 402 960 410 974 b 377 1024 410 1000 399 1013 b 310 1042 355 1036 333 1042 b 243 1001 282 1042 260 1028 l 164 879 b 153 849 156 868 153 858 b 194 819 153 829 167 819 z m 115 76 b 140 17 115 53 123 34 b 199 -7 156 1 175 -7 b 259 17 223 -7 243 1 b 283 76 275 34 283 53 l 283 657 b 258 717 283 680 275 700 b 199 742 242 733 222 742 b 140 717 175 742 156 734 b 115 657 123 701 115 681 z "},"î":{"ha":397,"x_min":0,"x_max":0,"o":"m 197 919 l 269 857 b 372 819 300 832 334 819 b 413 847 399 819 413 829 b 396 881 413 855 407 866 l 304 996 b 224 1036 283 1023 256 1036 l 174 1036 b 93 996 142 1036 115 1023 l 1 881 b -15 847 -10 866 -15 855 b 22 819 -15 829 -3 819 b 125 857 61 819 95 832 z m 115 76 b 140 17 115 53 123 34 b 199 -7 156 1 175 -7 b 259 17 223 -7 243 1 b 283 76 275 34 283 53 l 283 657 b 258 717 283 680 275 700 b 199 742 242 733 222 742 b 140 717 175 742 156 734 b 115 657 123 701 115 681 z "},"ï":{"ha":397,"x_min":0,"x_max":0,"o":"m 338 1000 b 272 976 312 1000 290 992 b 246 914 255 959 246 939 l 246 904 b 272 843 246 879 255 859 b 338 819 290 827 312 819 b 401 843 363 819 384 827 b 428 904 419 859 428 879 l 428 914 b 401 976 428 939 419 959 b 338 1000 384 992 363 1000 z m 61 1000 b -4 976 35 1000 13 992 b -31 914 -22 959 -31 939 l -31 904 b -4 843 -31 879 -22 859 b 61 819 13 827 35 819 b 125 843 86 819 107 827 b 151 904 143 859 151 879 l 151 914 b 125 976 151 939 143 959 b 61 1000 107 992 86 1000 z m 115 76 b 140 17 115 53 123 34 b 199 -7 156 1 175 -7 b 259 17 223 -7 243 1 b 283 76 275 34 283 53 l 283 657 b 258 717 283 680 275 700 b 199 742 242 733 222 742 b 140 717 175 742 156 734 b 115 657 123 701 115 681 z "},"ð":{"ha":892,"x_min":0,"x_max":0,"o":"m 581 618 b 388 675 518 656 453 675 b 158 583 296 675 219 644 b 65 346 96 522 65 443 b 172 89 65 245 101 159 b 439 -17 244 19 332 -17 b 719 92 556 -17 649 20 b 824 360 789 165 824 254 b 795 528 824 420 814 476 b 703 699 776 580 745 637 l 578 876 l 678 919 b 714 969 702 929 714 945 b 699 1008 714 984 709 997 b 661 1024 688 1018 676 1024 b 638 1018 656 1024 649 1022 l 517 965 l 501 988 b 435 1025 484 1013 462 1025 b 381 1003 413 1025 395 1018 b 358 949 366 988 358 970 b 372 904 358 932 363 917 l 246 849 b 208 799 221 839 208 823 b 224 761 208 784 213 771 b 261 746 234 751 246 746 b 285 750 270 746 278 747 l 436 817 z m 658 343 b 599 189 658 282 639 231 b 446 126 560 147 509 126 b 292 190 384 126 332 147 b 231 342 251 232 231 282 b 288 492 231 403 250 453 b 440 551 327 532 377 551 b 597 491 504 551 556 531 b 658 343 638 451 658 401 z "},"ñ":{"ha":861,"x_min":0,"x_max":0,"o":"m 106 76 b 130 17 106 53 114 34 b 189 -7 146 1 166 -7 b 249 17 213 -7 233 1 b 274 76 266 34 274 53 l 274 414 b 319 547 274 470 289 515 b 439 596 350 580 390 596 b 555 549 489 596 528 580 b 596 417 582 518 596 474 l 596 76 b 620 17 596 53 604 34 b 681 -7 636 1 656 -7 b 740 17 705 -7 725 1 b 764 76 756 34 764 53 l 764 468 b 694 673 764 554 741 622 b 503 749 648 723 584 749 b 274 621 409 749 333 706 l 274 657 b 249 717 274 680 266 700 b 189 742 233 733 213 742 b 130 717 166 742 146 734 b 106 657 114 701 106 681 z m 282 838 b 346 882 298 867 319 882 b 436 854 361 882 391 873 b 546 826 481 836 518 826 b 631 858 581 826 609 837 b 688 953 653 878 672 910 b 693 985 691 966 693 976 b 678 1017 693 997 688 1007 b 642 1031 668 1026 656 1031 b 596 1003 623 1031 608 1021 b 532 958 580 973 559 958 b 442 986 517 958 487 968 b 332 1014 396 1005 360 1014 b 247 983 297 1014 268 1003 b 190 888 225 962 206 930 b 185 856 187 875 185 864 b 200 824 185 844 190 833 b 236 810 210 814 222 810 b 282 838 255 810 270 819 z "},"ò":{"ha":913,"x_min":0,"x_max":0,"o":"m 454 -17 b 735 95 566 -17 660 21 b 847 365 810 170 847 260 l 847 368 b 735 638 847 474 810 563 b 457 749 661 712 568 749 b 178 637 346 749 253 711 b 65 365 103 562 65 472 l 65 363 b 176 94 65 257 102 167 b 454 -17 250 20 343 -17 z m 457 131 b 297 199 393 131 340 153 b 233 365 255 245 233 300 l 233 368 b 294 534 233 434 254 489 b 454 601 335 579 388 601 b 615 533 519 601 573 578 b 679 365 658 487 679 431 l 679 363 b 618 198 679 298 659 243 b 457 131 577 153 524 131 z m 460 819 b 503 849 488 819 503 829 b 490 879 503 857 499 867 l 411 1001 b 344 1042 394 1028 372 1042 b 277 1024 321 1042 299 1036 b 244 988 255 1013 244 1000 b 268 946 244 974 252 960 l 363 857 b 460 819 388 832 421 819 z "},"ó":{"ha":913,"x_min":0,"x_max":0,"o":"m 451 819 b 550 857 490 819 523 832 l 643 946 b 667 988 659 960 667 974 b 634 1024 667 1000 656 1013 b 567 1042 612 1036 590 1042 b 500 1001 539 1042 517 1028 l 421 879 b 410 849 413 868 410 858 b 451 819 410 829 424 819 z m 454 -17 b 735 95 566 -17 660 21 b 847 365 810 170 847 260 l 847 368 b 735 638 847 474 810 563 b 457 749 661 712 568 749 b 178 637 346 749 253 711 b 65 365 103 562 65 472 l 65 363 b 176 94 65 257 102 167 b 454 -17 250 20 343 -17 z m 457 131 b 297 199 393 131 340 153 b 233 365 255 245 233 300 l 233 368 b 294 534 233 434 254 489 b 454 601 335 579 388 601 b 615 533 519 601 573 578 b 679 365 658 487 679 431 l 679 363 b 618 198 679 298 659 243 b 457 131 577 153 524 131 z "},"ô":{"ha":913,"x_min":0,"x_max":0,"o":"m 454 919 l 526 857 b 629 819 557 832 591 819 b 669 847 656 819 669 829 b 653 881 669 855 664 866 l 561 996 b 481 1036 540 1023 513 1036 l 431 1036 b 350 996 399 1036 372 1023 l 258 881 b 242 847 247 866 242 855 b 279 819 242 829 254 819 b 382 857 318 819 352 832 z m 454 -17 b 735 95 566 -17 660 21 b 847 365 810 170 847 260 l 847 368 b 735 638 847 474 810 563 b 457 749 661 712 568 749 b 178 637 346 749 253 711 b 65 365 103 562 65 472 l 65 363 b 176 94 65 257 102 167 b 454 -17 250 20 343 -17 z m 457 131 b 297 199 393 131 340 153 b 233 365 255 245 233 300 l 233 368 b 294 534 233 434 254 489 b 454 601 335 579 388 601 b 615 533 519 601 573 578 b 679 365 658 487 679 431 l 679 363 b 618 198 679 298 659 243 b 457 131 577 153 524 131 z "},"õ":{"ha":913,"x_min":0,"x_max":0,"o":"m 454 -17 b 735 95 566 -17 660 21 b 847 365 810 170 847 260 l 847 368 b 735 638 847 474 810 563 b 457 749 661 712 568 749 b 178 637 346 749 253 711 b 65 365 103 562 65 472 l 65 363 b 176 94 65 257 102 167 b 454 -17 250 20 343 -17 z m 457 131 b 297 199 393 131 340 153 b 233 365 255 245 233 300 l 233 368 b 294 534 233 434 254 489 b 454 601 335 579 388 601 b 615 533 519 601 573 578 b 679 365 658 487 679 431 l 679 363 b 618 198 679 298 659 243 b 457 131 577 153 524 131 z m 304 838 b 368 882 320 867 341 882 b 458 854 383 882 413 873 b 568 826 504 836 540 826 b 653 858 603 826 632 837 b 710 953 675 878 694 910 b 715 985 713 966 715 976 b 700 1017 715 997 710 1007 b 664 1031 690 1026 678 1031 b 618 1003 645 1031 630 1021 b 554 958 602 973 581 958 b 464 986 539 958 509 968 b 354 1014 419 1005 382 1014 b 269 983 319 1014 291 1003 b 213 888 247 962 228 930 b 207 856 209 875 207 864 b 222 824 207 844 212 833 b 258 810 232 814 244 810 b 304 838 277 810 292 819 z "},"ö":{"ha":913,"x_min":0,"x_max":0,"o":"m 594 1000 b 529 976 569 1000 547 992 b 503 914 512 959 503 939 l 503 904 b 529 843 503 879 512 859 b 594 819 547 827 569 819 b 658 843 619 819 641 827 b 685 904 676 859 685 879 l 685 914 b 658 976 685 939 676 959 b 594 1000 641 992 619 1000 z m 318 1000 b 253 976 292 1000 270 992 b 226 914 235 959 226 939 l 226 904 b 253 843 226 879 235 859 b 318 819 270 827 292 819 b 382 843 343 819 364 827 b 408 904 400 859 408 879 l 408 914 b 382 976 408 939 400 959 b 318 1000 364 992 343 1000 z m 454 -17 b 735 95 566 -17 660 21 b 847 365 810 170 847 260 l 847 368 b 735 638 847 474 810 563 b 457 749 661 712 568 749 b 178 637 346 749 253 711 b 65 365 103 562 65 472 l 65 363 b 176 94 65 257 102 167 b 454 -17 250 20 343 -17 z m 457 131 b 297 199 393 131 340 153 b 233 365 255 245 233 300 l 233 368 b 294 534 233 434 254 489 b 454 601 335 579 388 601 b 615 533 519 601 573 578 b 679 365 658 487 679 431 l 679 363 b 618 198 679 298 659 243 b 457 131 577 153 524 131 z "},"÷":{"ha":881,"x_min":0,"x_max":0,"o":"m 721 417 b 772 438 741 417 758 424 b 793 489 786 453 793 469 b 772 540 793 508 786 525 b 721 561 758 554 741 561 l 160 561 b 108 540 139 561 122 554 b 88 489 94 525 88 508 b 108 438 88 469 94 453 b 160 417 122 424 139 417 z m 440 874 b 373 847 414 874 392 865 b 344 782 354 828 344 807 l 344 775 b 372 709 344 749 354 727 b 440 682 391 691 413 682 b 508 709 467 682 490 691 b 536 775 527 727 536 749 l 536 782 b 508 847 536 807 527 828 b 440 874 489 865 466 874 z m 440 296 b 372 269 413 296 391 287 b 344 203 354 251 344 229 l 344 196 b 372 131 344 170 354 148 b 440 104 391 113 413 104 b 508 131 467 104 490 113 b 536 196 527 148 536 170 l 536 203 b 508 269 536 229 527 251 b 440 296 490 287 467 296 z "},"ø":{"ha":913,"x_min":0,"x_max":0,"o":"m 454 -17 b 735 95 566 -17 660 21 b 847 365 810 170 847 260 l 847 368 b 765 604 847 456 820 535 l 807 646 b 831 699 823 663 831 681 b 815 734 831 713 825 724 b 776 749 804 744 791 749 b 724 724 758 749 740 740 l 682 681 b 457 749 616 726 541 749 b 178 637 346 749 253 711 b 65 365 103 562 65 472 l 65 363 b 146 128 65 273 92 194 l 106 86 b 82 35 90 70 82 53 b 98 -1 82 21 87 9 b 136 -17 109 -12 121 -17 b 189 8 155 -17 172 -8 l 229 50 b 454 -17 296 6 371 -17 z m 229 365 l 229 368 b 292 537 229 435 250 491 b 454 606 333 583 388 606 b 578 568 500 606 541 593 l 260 243 b 229 365 239 281 229 322 z m 457 126 b 333 163 410 126 369 138 l 651 488 b 683 365 673 450 683 410 l 683 363 b 621 195 683 297 663 241 b 457 126 579 149 525 126 z "},"ù":{"ha":861,"x_min":0,"x_max":0,"o":"m 757 657 b 732 717 757 680 749 700 b 672 742 715 733 695 742 b 612 717 648 742 628 733 b 588 657 596 700 588 680 l 588 319 b 542 187 588 263 572 219 b 422 139 511 155 471 139 b 306 185 372 139 334 154 b 265 317 279 216 265 260 l 265 657 b 241 717 265 680 257 700 b 181 742 225 733 205 742 b 122 717 157 742 138 733 b 97 657 105 700 97 680 l 97 267 b 167 61 97 181 120 112 b 358 -15 213 10 277 -15 b 588 114 453 -15 529 28 l 588 76 b 613 17 588 53 596 34 b 672 -7 629 1 649 -7 b 732 17 695 -7 715 1 b 757 76 749 34 757 53 z m 429 819 b 472 849 458 819 472 829 b 460 879 472 857 468 867 l 381 1001 b 314 1042 364 1028 342 1042 b 247 1024 291 1042 268 1036 b 214 988 225 1013 214 1000 b 238 946 214 974 222 960 l 332 857 b 429 819 358 832 390 819 z "},"ú":{"ha":861,"x_min":0,"x_max":0,"o":"m 421 819 b 519 857 460 819 493 832 l 613 946 b 636 988 628 960 636 974 b 603 1024 636 1000 625 1013 b 536 1042 582 1036 559 1042 b 469 1001 508 1042 486 1028 l 390 879 b 379 849 383 868 379 858 b 421 819 379 829 393 819 z m 757 657 b 732 717 757 680 749 700 b 672 742 715 733 695 742 b 612 717 648 742 628 733 b 588 657 596 700 588 680 l 588 319 b 542 187 588 263 572 219 b 422 139 511 155 471 139 b 306 185 372 139 334 154 b 265 317 279 216 265 260 l 265 657 b 241 717 265 680 257 700 b 181 742 225 733 205 742 b 122 717 157 742 138 733 b 97 657 105 700 97 680 l 97 267 b 167 61 97 181 120 112 b 358 -15 213 10 277 -15 b 588 114 453 -15 529 28 l 588 76 b 613 17 588 53 596 34 b 672 -7 629 1 649 -7 b 732 17 695 -7 715 1 b 757 76 749 34 757 53 z "},"û":{"ha":861,"x_min":0,"x_max":0,"o":"m 424 919 l 496 857 b 599 819 526 832 561 819 b 639 847 625 819 639 829 b 622 881 639 855 633 866 l 531 996 b 450 1036 509 1023 482 1036 l 400 1036 b 319 996 369 1036 342 1023 l 228 881 b 211 847 217 866 211 855 b 249 819 211 829 224 819 b 351 857 288 819 322 832 z m 757 657 b 732 717 757 680 749 700 b 672 742 715 733 695 742 b 612 717 648 742 628 733 b 588 657 596 700 588 680 l 588 319 b 542 187 588 263 572 219 b 422 139 511 155 471 139 b 306 185 372 139 334 154 b 265 317 279 216 265 260 l 265 657 b 241 717 265 680 257 700 b 181 742 225 733 205 742 b 122 717 157 742 138 733 b 97 657 105 700 97 680 l 97 267 b 167 61 97 181 120 112 b 358 -15 213 10 277 -15 b 588 114 453 -15 529 28 l 588 76 b 613 17 588 53 596 34 b 672 -7 629 1 649 -7 b 732 17 695 -7 715 1 b 757 76 749 34 757 53 z "},"ü":{"ha":861,"x_min":0,"x_max":0,"o":"m 564 1000 b 499 976 538 1000 516 992 b 472 914 481 959 472 939 l 472 904 b 499 843 472 879 481 859 b 564 819 516 827 538 819 b 628 843 589 819 610 827 b 654 904 645 859 654 879 l 654 914 b 628 976 654 939 645 959 b 564 1000 610 992 589 1000 z m 288 1000 b 222 976 262 1000 240 992 b 196 914 205 959 196 939 l 196 904 b 222 843 196 879 205 859 b 288 819 240 827 262 819 b 351 843 313 819 334 827 b 378 904 369 859 378 879 l 378 914 b 351 976 378 939 369 959 b 288 1000 334 992 313 1000 z m 757 657 b 732 717 757 680 749 700 b 672 742 715 733 695 742 b 612 717 648 742 628 733 b 588 657 596 700 588 680 l 588 319 b 542 187 588 263 572 219 b 422 139 511 155 471 139 b 306 185 372 139 334 154 b 265 317 279 216 265 260 l 265 657 b 241 717 265 680 257 700 b 181 742 225 733 205 742 b 122 717 157 742 138 733 b 97 657 105 700 97 680 l 97 267 b 167 61 97 181 120 112 b 358 -15 213 10 277 -15 b 588 114 453 -15 529 28 l 588 76 b 613 17 588 53 596 34 b 672 -7 629 1 649 -7 b 732 17 695 -7 715 1 b 757 76 749 34 757 53 z "},"ý":{"ha":815,"x_min":0,"x_max":0,"o":"m 239 -226 b 383 -180 298 -226 346 -211 b 486 -21 420 -149 455 -96 l 754 622 b 761 663 759 636 761 650 b 738 719 761 685 753 703 b 681 742 722 734 703 742 b 600 678 644 742 617 720 l 417 190 l 219 678 b 138 742 203 720 175 742 b 78 718 113 742 94 734 b 54 660 62 702 54 683 b 64 619 54 648 57 634 l 336 11 l 331 -4 b 287 -65 317 -33 302 -53 b 226 -82 272 -76 251 -82 b 168 -72 211 -82 191 -79 b 138 -67 157 -69 147 -67 b 90 -86 119 -67 103 -73 b 69 -136 76 -99 69 -116 b 122 -206 69 -170 87 -194 b 239 -226 157 -219 196 -226 z m 404 819 b 503 857 443 819 476 832 l 596 946 b 619 988 612 960 619 974 b 587 1024 619 1000 609 1013 b 519 1042 565 1036 543 1042 b 453 1001 492 1042 469 1028 l 374 879 b 363 849 366 868 363 858 b 404 819 363 829 376 819 z "},"þ":{"ha":932,"x_min":0,"x_max":0,"o":"m 106 -146 b 130 -205 106 -169 114 -189 b 189 -229 146 -221 166 -229 b 249 -205 213 -229 233 -221 b 274 -146 266 -189 274 -169 l 274 114 b 524 -15 338 28 422 -15 b 763 88 616 -15 696 19 b 864 365 830 157 864 250 l 864 368 b 763 646 864 485 830 577 b 524 749 695 714 615 749 b 274 611 422 749 338 703 l 274 938 b 249 997 274 961 266 980 b 189 1021 233 1013 213 1021 b 129 997 165 1021 145 1013 b 106 938 113 980 106 961 z m 483 131 b 333 197 425 131 375 153 b 269 365 291 241 269 297 l 269 368 b 333 537 269 437 291 493 b 483 603 375 581 425 603 b 632 538 542 603 591 581 b 693 368 673 494 693 438 l 693 365 b 633 195 693 295 673 238 b 483 131 592 152 543 131 z "},"ÿ":{"ha":815,"x_min":0,"x_max":0,"o":"m 239 -226 b 383 -180 298 -226 346 -211 b 486 -21 420 -149 455 -96 l 754 622 b 761 663 759 636 761 650 b 738 719 761 685 753 703 b 681 742 722 734 703 742 b 600 678 644 742 617 720 l 417 190 l 219 678 b 138 742 203 720 175 742 b 78 718 113 742 94 734 b 54 660 62 702 54 683 b 64 619 54 648 57 634 l 336 11 l 331 -4 b 287 -65 317 -33 302 -53 b 226 -82 272 -76 251 -82 b 168 -72 211 -82 191 -79 b 138 -67 157 -69 147 -67 b 90 -86 119 -67 103 -73 b 69 -136 76 -99 69 -116 b 122 -206 69 -170 87 -194 b 239 -226 157 -219 196 -226 z m 547 1000 b 482 976 521 1000 500 992 b 456 914 464 959 456 939 l 456 904 b 482 843 456 879 464 859 b 547 819 500 827 521 819 b 611 843 572 819 594 827 b 638 904 629 859 638 879 l 638 914 b 611 976 638 939 629 959 b 547 1000 594 992 572 1000 z m 271 1000 b 206 976 245 1000 223 992 b 179 914 188 959 179 939 l 179 904 b 206 843 179 879 188 859 b 271 819 223 827 245 819 b 335 843 296 819 317 827 b 361 904 352 859 361 879 l 361 914 b 335 976 361 939 352 959 b 271 1000 317 992 296 1000 z "},"Ā":{"ha":1074,"x_min":0,"x_max":0,"o":"m 58 72 b 81 16 58 50 66 31 b 138 -7 97 1 115 -7 b 217 47 175 -7 202 11 l 299 235 l 771 235 l 850 53 b 933 -7 867 13 894 -7 b 991 17 956 -7 976 1 b 1014 75 1006 32 1014 52 b 1004 111 1014 87 1011 99 l 643 917 b 542 986 622 963 588 986 l 533 986 b 431 917 486 986 452 963 l 69 111 b 58 72 62 96 58 83 z m 364 386 l 535 779 l 706 386 z m 719 1082 b 763 1100 736 1082 750 1088 b 781 1143 775 1112 781 1126 b 763 1186 781 1160 775 1174 b 719 1204 750 1198 736 1204 l 350 1204 b 307 1186 333 1204 319 1198 b 289 1143 295 1174 289 1160 b 307 1100 289 1126 295 1112 b 350 1082 319 1088 333 1082 z "},"ā":{"ha":815,"x_min":0,"x_max":0,"o":"m 317 -15 b 556 92 417 -15 496 20 l 556 64 b 578 14 556 44 563 28 b 638 -7 594 0 613 -7 b 696 16 661 -7 680 1 b 719 74 712 31 719 50 l 719 435 b 640 661 719 534 693 609 b 397 743 588 716 506 743 b 161 700 316 743 237 729 b 115 633 131 688 115 666 b 136 584 115 614 122 597 b 186 564 150 571 167 564 b 213 568 194 564 203 565 b 375 597 262 588 316 597 b 510 556 434 597 479 584 b 557 438 541 529 557 489 l 557 419 b 360 450 493 440 427 450 b 139 390 267 450 194 430 b 57 214 84 349 57 291 l 57 211 b 133 45 57 141 82 85 b 317 -15 183 5 244 -15 z m 364 107 b 261 137 322 107 288 117 b 221 218 234 157 221 184 l 221 221 b 267 310 221 259 236 289 b 393 343 297 332 339 343 b 560 314 454 343 510 333 l 560 264 b 504 151 560 218 541 180 b 364 107 467 122 420 107 z m 593 842 b 636 860 610 842 624 848 b 654 903 648 872 654 886 b 636 946 654 919 648 934 b 593 964 624 958 610 964 l 224 964 b 181 946 207 964 193 958 b 163 903 169 934 163 919 b 181 860 163 886 169 872 b 224 842 193 848 207 842 z "},"Ă":{"ha":1074,"x_min":0,"x_max":0,"o":"m 58 72 b 81 16 58 50 66 31 b 138 -7 97 1 115 -7 b 217 47 175 -7 202 11 l 299 235 l 771 235 l 850 53 b 933 -7 867 13 894 -7 b 991 17 956 -7 976 1 b 1014 75 1006 32 1014 52 b 1004 111 1014 87 1011 99 l 643 917 b 542 986 622 963 588 986 l 533 986 b 431 917 486 986 452 963 l 69 111 b 58 72 62 96 58 83 z m 364 386 l 535 779 l 706 386 z m 535 1064 b 747 1175 635 1064 706 1101 b 758 1218 755 1190 758 1204 b 742 1260 758 1235 753 1249 b 700 1278 731 1272 717 1278 b 647 1246 677 1278 659 1267 b 535 1182 625 1203 588 1182 b 422 1246 484 1182 446 1203 b 369 1278 410 1267 393 1278 b 328 1260 353 1278 339 1272 b 311 1218 317 1249 311 1235 b 322 1175 311 1204 315 1190 b 535 1064 364 1101 435 1064 z "},"ă":{"ha":815,"x_min":0,"x_max":0,"o":"m 317 -15 b 556 92 417 -15 496 20 l 556 64 b 578 14 556 44 563 28 b 638 -7 594 0 613 -7 b 696 16 661 -7 680 1 b 719 74 712 31 719 50 l 719 435 b 640 661 719 534 693 609 b 397 743 588 716 506 743 b 161 700 316 743 237 729 b 115 633 131 688 115 666 b 136 584 115 614 122 597 b 186 564 150 571 167 564 b 213 568 194 564 203 565 b 375 597 262 588 316 597 b 510 556 434 597 479 584 b 557 438 541 529 557 489 l 557 419 b 360 450 493 440 427 450 b 139 390 267 450 194 430 b 57 214 84 349 57 291 l 57 211 b 133 45 57 141 82 85 b 317 -15 183 5 244 -15 z m 364 107 b 261 137 322 107 288 117 b 221 218 234 157 221 184 l 221 221 b 267 310 221 259 236 289 b 393 343 297 332 339 343 b 560 314 454 343 510 333 l 560 264 b 504 151 560 218 541 180 b 364 107 467 122 420 107 z m 408 824 b 621 935 508 824 579 861 b 632 978 628 950 632 964 b 615 1020 632 994 626 1009 b 574 1038 604 1032 590 1038 b 521 1006 550 1038 533 1027 b 408 942 499 963 461 942 b 296 1006 357 942 320 963 b 243 1038 284 1027 266 1038 b 201 1020 226 1038 213 1032 b 185 978 190 1009 185 994 b 196 935 185 964 188 950 b 408 824 238 861 308 824 z "},"Ą":{"ha":1097,"x_min":0,"x_max":0,"o":"m 69 72 b 92 16 69 50 77 31 b 149 -7 108 1 126 -7 b 229 47 187 -7 213 11 l 310 235 l 782 235 l 881 11 b 817 -114 838 -33 817 -75 b 869 -201 817 -153 834 -182 b 994 -231 903 -221 945 -231 b 1050 -187 1031 -231 1050 -216 b 1004 -144 1050 -166 1035 -152 b 943 -87 963 -134 943 -115 b 996 6 943 -60 961 -29 b 1028 72 1017 28 1028 50 b 1018 108 1028 81 1025 94 l 656 917 b 554 986 634 963 600 986 l 544 986 b 442 917 497 986 463 963 l 81 111 b 69 72 73 93 69 80 z m 375 386 l 546 779 l 717 386 z "},"ą":{"ha":815,"x_min":0,"x_max":0,"o":"m 503 -118 b 555 -202 503 -155 520 -183 b 681 -231 590 -221 631 -231 b 736 -187 718 -231 736 -216 b 690 -144 736 -166 721 -152 b 631 -89 650 -134 631 -116 b 686 6 631 -62 649 -31 b 719 72 708 27 719 49 l 719 435 b 640 661 719 534 693 609 b 397 743 588 716 506 743 b 161 700 316 743 237 729 b 115 633 131 688 115 666 b 136 584 115 614 122 597 b 186 564 150 571 167 564 b 213 568 194 564 203 565 b 375 597 262 588 316 597 b 510 556 434 597 479 584 b 557 438 541 529 557 489 l 557 419 b 360 450 493 440 427 450 b 139 390 267 450 194 430 b 57 214 84 349 57 291 l 57 211 b 133 45 57 141 82 85 b 317 -15 183 5 244 -15 b 556 92 417 -15 496 20 l 556 90 b 576 15 556 53 563 28 b 503 -118 527 -31 503 -75 z m 364 107 b 261 137 322 107 288 117 b 221 218 234 157 221 184 l 221 221 b 267 310 221 259 236 289 b 393 343 297 332 339 343 b 560 314 454 343 510 333 l 560 264 b 504 151 560 218 541 180 b 364 107 467 122 420 107 z "},"Ć":{"ha":1025,"x_min":0,"x_max":0,"o":"m 563 1060 b 661 1097 601 1060 634 1072 l 754 1186 b 778 1228 770 1200 778 1214 b 745 1265 778 1241 767 1253 b 678 1282 723 1276 701 1282 b 611 1242 650 1282 628 1269 l 532 1119 b 521 1089 525 1108 521 1098 b 563 1060 521 1069 535 1060 z m 576 -17 b 929 114 713 -17 830 27 b 957 175 948 131 957 151 b 933 231 957 196 949 215 b 876 254 916 246 898 254 b 825 235 857 254 840 248 b 582 142 752 173 671 142 b 353 242 490 142 414 175 b 261 486 292 308 261 390 l 261 489 b 353 733 261 585 292 666 b 582 832 414 799 490 832 b 814 744 664 832 742 803 b 865 728 829 733 846 728 b 926 752 889 728 909 736 b 950 811 942 768 950 788 b 917 879 950 840 939 863 b 583 989 821 952 710 989 b 224 843 438 989 318 940 b 82 486 129 746 82 627 l 82 483 b 224 128 82 343 129 224 b 576 -17 318 31 436 -17 z "},"ć":{"ha":793,"x_min":0,"x_max":0,"o":"m 433 819 b 532 857 472 819 505 832 l 625 946 b 649 988 641 960 649 974 b 616 1024 649 1000 638 1013 b 549 1042 594 1036 572 1042 b 482 1001 521 1042 499 1028 l 403 879 b 392 849 395 868 392 858 b 433 819 392 829 406 819 z m 444 -17 b 711 88 550 -17 639 18 b 735 140 727 100 735 118 b 714 192 735 161 728 178 b 663 214 700 207 683 214 b 617 196 646 214 631 208 b 453 131 566 152 511 131 b 295 199 389 131 336 153 b 233 365 254 244 233 300 l 233 368 b 294 533 233 433 254 488 b 446 601 335 579 386 601 b 603 539 500 601 553 581 b 653 522 618 528 634 522 b 708 544 674 522 692 530 b 731 599 723 559 731 577 b 704 657 731 622 722 641 b 447 749 634 718 548 749 b 174 636 338 749 247 711 b 65 365 102 561 65 471 l 65 363 b 174 94 65 257 101 167 b 444 -17 246 20 336 -17 z "},"Ċ":{"ha":1025,"x_min":0,"x_max":0,"o":"m 576 -17 b 929 114 713 -17 830 27 b 957 175 948 131 957 151 b 933 231 957 196 949 215 b 876 254 916 246 898 254 b 825 235 857 254 840 248 b 582 142 752 173 671 142 b 353 242 490 142 414 175 b 261 486 292 308 261 390 l 261 489 b 353 733 261 585 292 666 b 582 832 414 799 490 832 b 814 744 664 832 742 803 b 865 728 829 733 846 728 b 926 752 889 728 909 736 b 950 811 942 768 950 788 b 917 879 950 840 939 863 b 583 989 821 952 710 989 b 224 843 438 989 318 940 b 82 486 129 746 82 627 l 82 483 b 224 128 82 343 129 224 b 576 -17 318 31 436 -17 z m 661 1154 b 633 1216 661 1179 652 1200 b 567 1240 615 1232 593 1240 b 501 1216 541 1240 519 1232 b 474 1154 483 1200 474 1179 l 474 1144 b 501 1083 474 1119 483 1099 b 567 1060 519 1068 541 1060 b 634 1083 594 1060 616 1068 b 661 1144 652 1099 661 1119 z "},"ċ":{"ha":793,"x_min":0,"x_max":0,"o":"m 444 -17 b 711 88 550 -17 639 18 b 735 140 727 100 735 118 b 714 192 735 161 728 178 b 663 214 700 207 683 214 b 617 196 646 214 631 208 b 453 131 566 152 511 131 b 295 199 389 131 336 153 b 233 365 254 244 233 300 l 233 368 b 294 533 233 433 254 488 b 446 601 335 579 386 601 b 603 539 500 601 553 581 b 653 522 618 528 634 522 b 708 544 674 522 692 530 b 731 599 723 559 731 577 b 704 657 731 622 722 641 b 447 749 634 718 548 749 b 174 636 338 749 247 711 b 65 365 102 561 65 471 l 65 363 b 174 94 65 257 101 167 b 444 -17 246 20 336 -17 z m 532 914 b 504 976 532 939 523 959 b 438 1000 486 992 463 1000 b 372 976 412 1000 390 992 b 344 914 353 959 344 939 l 344 904 b 372 843 344 879 353 859 b 438 819 390 827 412 819 b 505 843 464 819 487 827 b 532 904 523 859 532 879 z "},"Č":{"ha":1025,"x_min":0,"x_max":0,"o":"m 568 1178 l 496 1240 b 393 1278 466 1265 432 1278 b 353 1250 366 1278 353 1269 b 369 1217 353 1243 358 1231 l 461 1101 b 542 1061 483 1075 510 1061 l 592 1061 b 672 1101 624 1061 651 1075 l 764 1217 b 781 1250 775 1231 781 1243 b 743 1278 781 1269 768 1278 b 640 1240 705 1278 671 1265 z m 576 -17 b 929 114 713 -17 830 27 b 957 175 948 131 957 151 b 933 231 957 196 949 215 b 876 254 916 246 898 254 b 825 235 857 254 840 248 b 582 142 752 173 671 142 b 353 242 490 142 414 175 b 261 486 292 308 261 390 l 261 489 b 353 733 261 585 292 666 b 582 832 414 799 490 832 b 814 744 664 832 742 803 b 865 728 829 733 846 728 b 926 752 889 728 909 736 b 950 811 942 768 950 788 b 917 879 950 840 939 863 b 583 989 821 952 710 989 b 224 843 438 989 318 940 b 82 486 129 746 82 627 l 82 483 b 224 128 82 343 129 224 b 576 -17 318 31 436 -17 z "},"č":{"ha":793,"x_min":0,"x_max":0,"o":"m 439 938 l 367 1000 b 264 1038 337 1025 303 1038 b 224 1010 237 1038 224 1028 b 240 976 224 1002 229 991 l 332 861 b 413 821 354 834 381 821 l 463 821 b 543 861 495 821 522 834 l 635 976 b 651 1010 646 991 651 1002 b 614 1038 651 1028 639 1038 b 511 1000 576 1038 542 1025 z m 444 -17 b 711 88 550 -17 639 18 b 735 140 727 100 735 118 b 714 192 735 161 728 178 b 663 214 700 207 683 214 b 617 196 646 214 631 208 b 453 131 566 152 511 131 b 295 199 389 131 336 153 b 233 365 254 244 233 300 l 233 368 b 294 533 233 433 254 488 b 446 601 335 579 386 601 b 603 539 500 601 553 581 b 653 522 618 528 634 522 b 708 544 674 522 692 530 b 731 599 723 559 731 577 b 704 657 731 622 722 641 b 447 749 634 718 548 749 b 174 636 338 749 247 711 b 65 365 102 561 65 471 l 65 363 b 174 94 65 257 101 167 b 444 -17 246 20 336 -17 z "},"Ď":{"ha":1086,"x_min":0,"x_max":0,"o":"m 525 1164 l 453 1226 b 350 1264 423 1251 389 1264 b 310 1236 323 1264 310 1255 b 326 1203 310 1229 315 1218 l 418 1088 b 499 1047 440 1061 467 1047 l 549 1047 b 629 1088 581 1047 608 1061 l 721 1203 b 738 1236 732 1218 738 1229 b 700 1264 738 1255 725 1264 b 597 1226 662 1264 628 1251 z m 125 86 b 150 25 125 62 133 42 b 211 0 167 8 187 0 l 488 0 b 859 139 638 0 762 46 b 1004 486 956 231 1004 347 l 1004 489 b 859 834 1004 627 956 742 b 488 972 762 926 638 972 l 211 972 b 150 947 187 972 167 964 b 125 886 133 931 125 910 z m 296 156 l 296 817 l 488 817 b 732 724 588 817 670 786 b 825 486 794 662 825 582 l 825 483 b 732 247 825 387 794 308 b 488 156 670 186 588 156 z "},"ď":{"ha":932,"x_min":0,"x_max":0,"o":"m 904 788 b 913 757 903 775 906 764 b 940 746 920 750 929 746 b 981 781 960 746 973 757 l 1032 949 b 1038 981 1036 960 1038 970 b 994 1021 1038 1007 1023 1021 l 969 1021 b 926 1003 952 1021 938 1015 b 908 960 915 992 909 977 z m 826 938 b 802 997 826 961 818 980 b 742 1021 786 1013 766 1021 b 683 997 719 1021 699 1013 b 658 938 666 980 658 961 l 658 619 b 408 749 593 706 509 749 b 169 646 316 749 236 714 b 68 368 102 577 68 485 l 68 365 b 169 88 68 250 102 157 b 408 -15 237 19 317 -15 b 658 122 510 -15 594 31 l 658 76 b 683 17 658 53 666 34 b 743 -7 699 1 719 -7 b 802 17 766 -7 786 1 b 826 76 818 34 826 53 z m 449 603 b 599 537 507 603 557 581 b 661 368 640 493 661 437 l 661 365 b 599 197 661 297 640 241 b 449 131 557 153 507 131 b 299 196 390 131 341 152 b 238 365 258 239 238 296 l 238 368 b 299 539 238 439 258 496 b 449 603 339 581 389 603 z "},"Đ":{"ha":1128,"x_min":0,"x_max":0,"o":"m 131 565 b 77 543 109 565 91 558 b 56 489 63 528 56 510 b 78 435 56 468 63 450 b 131 413 93 420 110 413 l 167 413 l 167 86 b 192 25 167 62 175 42 b 253 0 208 8 229 0 l 529 0 b 901 139 680 0 804 46 b 1046 486 997 231 1046 347 l 1046 489 b 901 834 1046 627 997 742 b 529 972 804 926 680 972 l 253 972 b 192 947 229 972 208 964 b 167 886 175 931 167 910 l 167 565 z m 336 817 l 529 817 b 774 724 630 817 712 786 b 867 486 836 662 867 582 l 867 483 b 774 247 867 387 836 308 b 529 156 712 186 630 156 l 336 156 l 336 413 l 513 413 b 565 435 533 413 550 420 b 588 489 580 450 588 468 b 566 543 588 510 580 528 b 513 565 552 558 534 565 l 336 565 z "},"đ":{"ha":932,"x_min":0,"x_max":0,"o":"m 826 938 b 802 997 826 961 818 980 b 742 1021 786 1013 766 1021 b 683 997 719 1021 699 1013 b 658 938 666 980 658 961 l 658 936 l 474 936 b 438 921 460 936 448 931 b 424 886 428 911 424 899 b 438 851 424 872 428 860 b 474 836 448 841 460 836 l 658 836 l 658 619 b 408 749 593 706 509 749 b 169 646 316 749 236 714 b 68 368 102 577 68 485 l 68 365 b 169 88 68 250 102 157 b 408 -15 237 19 317 -15 b 658 122 510 -15 594 31 l 658 76 b 683 17 658 53 666 34 b 743 -7 699 1 719 -7 b 802 17 766 -7 786 1 b 826 76 818 34 826 53 l 826 836 l 879 836 b 915 851 893 836 905 841 b 929 886 924 860 929 872 b 915 921 929 899 924 911 b 879 936 905 931 893 936 l 826 936 z m 449 603 b 599 537 507 603 557 581 b 661 368 640 493 661 437 l 661 365 b 599 197 661 297 640 241 b 449 131 557 153 507 131 b 299 196 390 131 341 152 b 238 365 258 239 238 296 l 238 368 b 299 539 238 439 258 496 b 449 603 339 581 389 603 z "},"Ē":{"ha":931,"x_min":0,"x_max":0,"o":"m 211 0 l 783 0 b 838 22 805 0 823 7 b 860 76 852 37 860 55 b 837 131 860 98 852 116 b 783 153 822 145 804 153 l 296 153 l 296 414 l 714 414 b 768 436 735 414 753 421 b 790 489 783 451 790 469 b 768 544 790 510 783 528 b 714 567 753 559 735 567 l 296 567 l 296 819 l 776 819 b 831 842 798 819 816 827 b 853 896 845 856 853 875 b 831 950 853 917 845 935 b 776 972 816 965 798 972 l 211 972 b 150 947 187 972 167 964 b 125 886 133 931 125 910 l 125 86 b 150 25 125 62 133 42 b 211 0 167 8 187 0 z m 672 1068 b 715 1086 689 1068 703 1074 b 733 1129 727 1098 733 1113 b 715 1172 733 1146 727 1160 b 672 1190 703 1184 689 1190 l 303 1190 b 260 1172 286 1190 272 1184 b 242 1129 248 1160 242 1146 b 260 1086 242 1113 248 1098 b 303 1068 272 1074 286 1068 z "},"ē":{"ha":839,"x_min":0,"x_max":0,"o":"m 232 418 b 294 558 239 475 260 522 b 422 611 329 593 371 611 b 551 557 476 611 519 593 b 608 418 584 521 603 475 z m 706 81 b 728 132 720 95 728 113 b 708 181 728 151 721 168 b 661 200 695 194 680 200 b 618 185 645 200 631 195 b 444 121 566 142 508 121 b 304 170 389 121 342 137 b 233 307 266 203 243 249 l 693 307 b 749 330 715 307 734 315 b 772 388 765 345 772 364 b 735 556 772 447 760 503 b 617 692 711 609 671 655 b 424 749 562 730 498 749 b 167 638 320 749 234 712 b 65 367 99 563 65 473 l 65 364 b 173 90 65 252 101 160 b 442 -17 245 19 334 -17 b 706 81 545 -17 633 16 z m 606 842 b 649 860 622 842 637 848 b 667 903 661 872 667 886 b 649 946 667 919 661 934 b 606 964 637 958 622 964 l 236 964 b 193 946 219 964 205 958 b 175 903 181 934 175 919 b 193 860 175 886 181 872 b 236 842 205 848 219 842 z "},"Ĕ":{"ha":931,"x_min":0,"x_max":0,"o":"m 211 0 l 783 0 b 838 22 805 0 823 7 b 860 76 852 37 860 55 b 837 131 860 98 852 116 b 783 153 822 145 804 153 l 296 153 l 296 414 l 714 414 b 768 436 735 414 753 421 b 790 489 783 451 790 469 b 768 544 790 510 783 528 b 714 567 753 559 735 567 l 296 567 l 296 819 l 776 819 b 831 842 798 819 816 827 b 853 896 845 856 853 875 b 831 950 853 917 845 935 b 776 972 816 965 798 972 l 211 972 b 150 947 187 972 167 964 b 125 886 133 931 125 910 l 125 86 b 150 25 125 62 133 42 b 211 0 167 8 187 0 z m 488 1050 b 700 1161 588 1050 658 1087 b 711 1204 707 1176 711 1190 b 694 1247 711 1221 706 1235 b 653 1264 683 1258 669 1264 b 600 1232 630 1264 612 1253 b 488 1168 578 1189 540 1168 b 375 1232 437 1168 399 1189 b 322 1264 363 1253 345 1264 b 281 1247 306 1264 292 1258 b 264 1204 269 1235 264 1221 b 275 1161 264 1190 268 1176 b 488 1050 317 1087 388 1050 z "},"ĕ":{"ha":839,"x_min":0,"x_max":0,"o":"m 232 418 b 294 558 239 475 260 522 b 422 611 329 593 371 611 b 551 557 476 611 519 593 b 608 418 584 521 603 475 z m 706 81 b 728 132 720 95 728 113 b 708 181 728 151 721 168 b 661 200 695 194 680 200 b 618 185 645 200 631 195 b 444 121 566 142 508 121 b 304 170 389 121 342 137 b 233 307 266 203 243 249 l 693 307 b 749 330 715 307 734 315 b 772 388 765 345 772 364 b 735 556 772 447 760 503 b 617 692 711 609 671 655 b 424 749 562 730 498 749 b 167 638 320 749 234 712 b 65 367 99 563 65 473 l 65 364 b 173 90 65 252 101 160 b 442 -17 245 19 334 -17 b 706 81 545 -17 633 16 z m 421 824 b 633 935 521 824 592 861 b 644 978 641 950 644 964 b 628 1020 644 994 639 1009 b 586 1038 617 1032 603 1038 b 533 1006 563 1038 545 1027 b 421 942 511 963 474 942 b 308 1006 370 942 332 963 b 256 1038 296 1027 279 1038 b 214 1020 239 1038 225 1032 b 197 978 203 1009 197 994 b 208 935 197 964 201 950 b 421 824 250 861 321 824 z "},"Ė":{"ha":931,"x_min":0,"x_max":0,"o":"m 211 0 l 783 0 b 838 22 805 0 823 7 b 860 76 852 37 860 55 b 837 131 860 98 852 116 b 783 153 822 145 804 153 l 296 153 l 296 414 l 714 414 b 768 436 735 414 753 421 b 790 489 783 451 790 469 b 768 544 790 510 783 528 b 714 567 753 559 735 567 l 296 567 l 296 819 l 776 819 b 831 842 798 819 816 827 b 853 896 845 856 853 875 b 831 950 853 917 845 935 b 776 972 816 965 798 972 l 211 972 b 150 947 187 972 167 964 b 125 886 133 931 125 910 l 125 86 b 150 25 125 62 133 42 b 211 0 167 8 187 0 z m 582 1140 b 554 1202 582 1165 573 1186 b 488 1226 536 1218 513 1226 b 422 1202 462 1226 440 1218 b 394 1140 403 1186 394 1165 l 394 1131 b 422 1069 394 1106 403 1085 b 488 1046 440 1054 462 1046 b 555 1069 514 1046 537 1054 b 582 1131 573 1085 582 1106 z "},"ė":{"ha":839,"x_min":0,"x_max":0,"o":"m 232 418 b 294 558 239 475 260 522 b 422 611 329 593 371 611 b 551 557 476 611 519 593 b 608 418 584 521 603 475 z m 706 81 b 728 132 720 95 728 113 b 708 181 728 151 721 168 b 661 200 695 194 680 200 b 618 185 645 200 631 195 b 444 121 566 142 508 121 b 304 170 389 121 342 137 b 233 307 266 203 243 249 l 693 307 b 749 330 715 307 734 315 b 772 388 765 345 772 364 b 735 556 772 447 760 503 b 617 692 711 609 671 655 b 424 749 562 730 498 749 b 167 638 320 749 234 712 b 65 367 99 563 65 473 l 65 364 b 173 90 65 252 101 160 b 442 -17 245 19 334 -17 b 706 81 545 -17 633 16 z m 515 914 b 488 976 515 939 506 959 b 421 1000 469 992 447 1000 b 355 976 395 1000 373 992 b 328 914 337 959 328 939 l 328 904 b 355 843 328 879 337 859 b 421 819 373 827 395 819 b 488 843 448 819 470 827 b 515 904 506 859 515 879 z "},"Ę":{"ha":931,"x_min":0,"x_max":0,"o":"m 211 0 l 688 0 b 631 -114 650 -41 631 -79 b 683 -202 631 -154 648 -183 b 810 -231 717 -221 760 -231 b 865 -187 847 -231 865 -216 b 818 -144 865 -165 850 -151 b 758 -87 778 -134 758 -115 b 817 4 758 -60 778 -29 b 851 42 833 20 845 33 b 860 82 857 52 860 65 b 838 132 860 101 852 118 b 782 153 823 146 804 153 l 296 153 l 296 414 l 714 414 b 768 436 735 414 753 421 b 790 489 783 451 790 469 b 768 544 790 510 783 528 b 714 567 753 559 735 567 l 296 567 l 296 819 l 776 819 b 831 842 798 819 816 827 b 853 896 845 856 853 875 b 831 950 853 917 845 935 b 776 972 816 965 798 972 l 211 972 b 150 947 187 972 167 964 b 125 886 133 931 125 910 l 125 86 b 150 25 125 62 133 42 b 211 0 167 8 187 0 z "},"ę":{"ha":839,"x_min":0,"x_max":0,"o":"m 772 388 b 735 556 772 447 760 503 b 617 692 711 609 671 655 b 424 749 562 730 498 749 b 167 638 320 749 234 712 b 65 367 99 563 65 473 l 65 364 b 173 90 65 252 101 160 b 442 -17 245 19 334 -17 b 506 -11 456 -17 478 -15 b 458 -111 474 -47 458 -81 b 508 -200 458 -150 475 -180 b 638 -231 542 -220 585 -231 b 692 -187 674 -231 692 -216 b 646 -144 692 -166 676 -152 b 599 -123 625 -139 609 -132 b 585 -81 590 -114 585 -100 b 646 25 585 -48 605 -13 b 676 53 654 33 664 43 b 706 81 688 64 698 73 b 728 132 720 97 728 114 b 708 181 728 151 721 168 b 661 200 695 194 680 200 b 618 185 645 200 631 195 b 444 121 566 142 508 121 b 304 170 389 121 342 137 b 233 307 266 203 243 249 l 693 307 b 749 330 715 307 734 315 b 772 388 765 345 772 364 z m 232 418 b 294 558 239 475 260 522 b 422 611 329 593 371 611 b 551 557 476 611 519 593 b 608 418 584 521 603 475 z "},"Ě":{"ha":931,"x_min":0,"x_max":0,"o":"m 489 1164 l 417 1226 b 314 1264 387 1251 353 1264 b 274 1236 287 1264 274 1255 b 290 1203 274 1229 279 1218 l 382 1088 b 463 1047 404 1061 431 1047 l 513 1047 b 593 1088 545 1047 572 1061 l 685 1203 b 701 1236 696 1218 701 1229 b 664 1264 701 1255 689 1264 b 561 1226 626 1264 592 1251 z m 211 0 l 783 0 b 838 22 805 0 823 7 b 860 76 852 37 860 55 b 837 131 860 98 852 116 b 783 153 822 145 804 153 l 296 153 l 296 414 l 714 414 b 768 436 735 414 753 421 b 790 489 783 451 790 469 b 768 544 790 510 783 528 b 714 567 753 559 735 567 l 296 567 l 296 819 l 776 819 b 831 842 798 819 816 827 b 853 896 845 856 853 875 b 831 950 853 917 845 935 b 776 972 816 965 798 972 l 211 972 b 150 947 187 972 167 964 b 125 886 133 931 125 910 l 125 86 b 150 25 125 62 133 42 b 211 0 167 8 187 0 z "},"ě":{"ha":839,"x_min":0,"x_max":0,"o":"m 422 938 l 350 1000 b 247 1038 320 1025 286 1038 b 207 1010 220 1038 207 1028 b 224 976 207 1002 213 991 l 315 861 b 396 821 338 834 364 821 l 446 821 b 526 861 478 821 505 834 l 618 976 b 635 1010 629 991 635 1002 b 597 1038 635 1028 622 1038 b 494 1000 559 1038 525 1025 z m 232 418 b 294 558 239 475 260 522 b 422 611 329 593 371 611 b 551 557 476 611 519 593 b 608 418 584 521 603 475 z m 706 81 b 728 132 720 95 728 113 b 708 181 728 151 721 168 b 661 200 695 194 680 200 b 618 185 645 200 631 195 b 444 121 566 142 508 121 b 304 170 389 121 342 137 b 233 307 266 203 243 249 l 693 307 b 749 330 715 307 734 315 b 772 388 765 345 772 364 b 735 556 772 447 760 503 b 617 692 711 609 671 655 b 424 749 562 730 498 749 b 167 638 320 749 234 712 b 65 367 99 563 65 473 l 65 364 b 173 90 65 252 101 160 b 442 -17 245 19 334 -17 b 706 81 545 -17 633 16 z "},"Ğ":{"ha":1089,"x_min":0,"x_max":0,"o":"m 586 -17 b 932 89 711 -17 826 19 b 992 197 972 114 992 150 l 992 457 b 967 518 992 481 983 501 b 906 543 950 535 930 543 l 635 543 b 581 521 613 543 595 536 b 558 468 566 506 558 488 b 581 416 558 448 566 430 b 635 394 595 402 613 394 l 826 394 l 826 213 b 592 139 761 163 682 139 b 353 237 494 139 414 172 b 261 486 292 302 261 385 l 261 489 b 352 731 261 583 291 664 b 576 832 413 798 488 832 b 813 756 664 832 743 806 b 865 736 831 743 849 736 b 925 761 888 736 908 744 b 950 821 942 778 950 798 b 915 890 950 850 938 873 b 583 989 824 956 713 989 b 224 842 439 989 319 940 b 82 486 129 744 82 625 l 82 483 b 222 126 82 340 128 221 b 586 -17 315 31 436 -17 z m 572 1064 b 785 1175 672 1064 743 1101 b 796 1218 792 1190 796 1204 b 779 1260 796 1235 790 1249 b 738 1278 768 1272 754 1278 b 685 1246 714 1278 697 1267 b 572 1182 663 1203 625 1182 b 460 1246 521 1182 484 1203 b 407 1278 448 1267 430 1278 b 365 1260 390 1278 376 1272 b 349 1218 354 1249 349 1235 b 360 1175 349 1204 352 1190 b 572 1064 401 1101 472 1064 z "},"ğ":{"ha":932,"x_min":0,"x_max":0,"o":"m 432 -225 b 733 -126 567 -225 668 -192 b 826 150 795 -64 826 28 l 826 657 b 802 717 826 680 818 700 b 742 742 786 733 766 742 b 683 717 719 742 699 734 b 658 658 666 701 658 681 l 658 624 b 401 749 589 707 503 749 b 167 654 312 749 234 717 b 68 404 101 591 68 508 l 68 401 b 167 152 68 298 101 215 b 401 58 232 90 311 58 b 660 193 504 58 590 103 l 660 136 b 600 -31 660 63 640 7 b 428 -89 560 -70 503 -89 b 203 -31 347 -89 272 -69 b 172 -24 194 -26 183 -24 b 122 -44 153 -24 136 -31 b 101 -93 108 -58 101 -75 b 149 -160 101 -125 117 -148 b 432 -225 238 -203 333 -225 z m 446 201 b 298 258 388 201 338 220 b 238 403 258 295 238 344 l 238 406 b 297 551 238 465 257 513 b 446 607 337 588 387 607 b 598 550 505 607 556 588 b 661 406 640 512 661 464 l 661 403 b 598 258 661 344 640 296 b 446 201 556 220 505 201 z m 453 824 b 665 935 553 824 624 861 b 676 978 673 950 676 964 b 660 1020 676 994 671 1009 b 618 1038 649 1032 635 1038 b 565 1006 595 1038 577 1027 b 453 942 543 963 506 942 b 340 1006 402 942 364 963 b 288 1038 328 1027 311 1038 b 246 1020 271 1038 257 1032 b 229 978 235 1009 229 994 b 240 935 229 964 233 950 b 453 824 282 861 353 824 z "},"Ġ":{"ha":1089,"x_min":0,"x_max":0,"o":"m 586 -17 b 932 89 711 -17 826 19 b 992 197 972 114 992 150 l 992 457 b 967 518 992 481 983 501 b 906 543 950 535 930 543 l 635 543 b 581 521 613 543 595 536 b 558 468 566 506 558 488 b 581 416 558 448 566 430 b 635 394 595 402 613 394 l 826 394 l 826 213 b 592 139 761 163 682 139 b 353 237 494 139 414 172 b 261 486 292 302 261 385 l 261 489 b 352 731 261 583 291 664 b 576 832 413 798 488 832 b 813 756 664 832 743 806 b 865 736 831 743 849 736 b 925 761 888 736 908 744 b 950 821 942 778 950 798 b 915 890 950 850 938 873 b 583 989 824 956 713 989 b 224 842 439 989 319 940 b 82 486 129 744 82 625 l 82 483 b 222 126 82 340 128 221 b 586 -17 315 31 436 -17 z m 667 1154 b 639 1216 667 1179 657 1200 b 572 1240 620 1232 598 1240 b 506 1216 546 1240 524 1232 b 479 1154 488 1200 479 1179 l 479 1144 b 506 1083 479 1119 488 1099 b 572 1060 524 1068 546 1060 b 640 1083 599 1060 622 1068 b 667 1144 658 1099 667 1119 z "},"ġ":{"ha":932,"x_min":0,"x_max":0,"o":"m 432 -225 b 733 -126 567 -225 668 -192 b 826 150 795 -64 826 28 l 826 657 b 802 717 826 680 818 700 b 742 742 786 733 766 742 b 683 717 719 742 699 734 b 658 658 666 701 658 681 l 658 624 b 401 749 589 707 503 749 b 167 654 312 749 234 717 b 68 404 101 591 68 508 l 68 401 b 167 152 68 298 101 215 b 401 58 232 90 311 58 b 660 193 504 58 590 103 l 660 136 b 600 -31 660 63 640 7 b 428 -89 560 -70 503 -89 b 203 -31 347 -89 272 -69 b 172 -24 194 -26 183 -24 b 122 -44 153 -24 136 -31 b 101 -93 108 -58 101 -75 b 149 -160 101 -125 117 -148 b 432 -225 238 -203 333 -225 z m 446 201 b 298 258 388 201 338 220 b 238 403 258 295 238 344 l 238 406 b 297 551 238 465 257 513 b 446 607 337 588 387 607 b 598 550 505 607 556 588 b 661 406 640 512 661 464 l 661 403 b 598 258 661 344 640 296 b 446 201 556 220 505 201 z m 547 914 b 519 976 547 939 538 959 b 453 1000 501 992 479 1000 b 387 976 427 1000 405 992 b 360 914 369 959 360 939 l 360 904 b 387 843 360 879 369 859 b 453 819 405 827 427 819 b 520 843 480 819 502 827 b 547 904 538 859 547 879 z "},"Ģ":{"ha":1089,"x_min":0,"x_max":0,"o":"m 560 -235 b 472 -324 562 -281 532 -311 b 443 -353 453 -328 443 -338 b 479 -382 443 -372 455 -382 b 599 -336 525 -382 565 -367 b 658 -186 638 -302 658 -252 l 658 -182 b 634 -111 658 -152 650 -129 b 569 -85 618 -94 596 -85 b 508 -106 544 -85 524 -92 b 485 -158 493 -119 485 -137 l 485 -161 b 560 -235 485 -202 510 -226 z m 586 -17 b 932 89 711 -17 826 19 b 992 197 972 114 992 150 l 992 457 b 967 518 992 481 983 501 b 906 543 950 535 930 543 l 635 543 b 581 521 613 543 595 536 b 558 468 566 506 558 488 b 581 416 558 448 566 430 b 635 394 595 402 613 394 l 826 394 l 826 213 b 592 139 761 163 682 139 b 353 237 494 139 414 172 b 261 486 292 302 261 385 l 261 489 b 352 731 261 583 291 664 b 576 832 413 798 488 832 b 813 756 664 832 743 806 b 865 736 831 743 849 736 b 925 761 888 736 908 744 b 950 821 942 778 950 798 b 915 890 950 850 938 873 b 583 989 824 956 713 989 b 224 842 439 989 319 940 b 82 486 129 744 82 625 l 82 483 b 222 126 82 340 128 221 b 586 -17 315 31 436 -17 z "},"ģ":{"ha":932,"x_min":0,"x_max":0,"o":"m 463 968 b 550 1057 461 1014 490 1044 b 579 1086 569 1062 579 1071 b 543 1115 579 1106 567 1115 b 424 1069 497 1115 457 1100 b 364 919 384 1035 364 985 l 364 915 b 388 844 364 886 372 862 b 453 818 404 827 426 818 b 514 839 478 818 498 825 b 538 892 530 853 538 870 l 538 894 b 463 968 538 935 513 960 z m 432 -225 b 733 -126 567 -225 668 -192 b 826 150 795 -64 826 28 l 826 657 b 802 717 826 680 818 700 b 742 742 786 733 766 742 b 683 717 719 742 699 734 b 658 658 666 701 658 681 l 658 624 b 401 749 589 707 503 749 b 167 654 312 749 234 717 b 68 404 101 591 68 508 l 68 401 b 167 152 68 298 101 215 b 401 58 232 90 311 58 b 660 193 504 58 590 103 l 660 136 b 600 -31 660 63 640 7 b 428 -89 560 -70 503 -89 b 203 -31 347 -89 272 -69 b 172 -24 194 -26 183 -24 b 122 -44 153 -24 136 -31 b 101 -93 108 -58 101 -75 b 149 -160 101 -125 117 -148 b 432 -225 238 -203 333 -225 z m 446 201 b 298 258 388 201 338 220 b 238 403 258 295 238 344 l 238 406 b 297 551 238 465 257 513 b 446 607 337 588 387 607 b 598 550 505 607 556 588 b 661 406 640 512 661 464 l 661 403 b 598 258 661 344 640 296 b 446 201 556 220 505 201 z "},"Ħ":{"ha":1081,"x_min":0,"x_max":0,"o":"m 138 78 b 163 17 138 54 146 34 b 224 -7 179 1 200 -7 b 283 17 247 -7 267 1 b 308 78 300 34 308 54 l 308 410 l 772 410 l 772 78 b 797 17 772 54 781 34 b 857 -7 814 1 834 -7 b 918 17 881 -7 901 1 b 943 78 935 34 943 54 l 943 710 l 988 710 b 1031 728 1004 710 1019 716 b 1049 769 1043 740 1049 754 b 1031 813 1049 786 1043 800 b 988 831 1019 825 1004 831 l 943 831 l 943 894 b 918 955 943 919 935 939 b 857 979 901 971 881 979 b 797 955 834 979 814 971 b 772 894 781 939 772 919 l 772 831 l 308 831 l 308 894 b 283 955 308 919 300 939 b 224 979 267 971 247 979 b 163 955 200 979 179 971 b 138 894 146 939 138 919 l 138 831 l 92 831 b 49 813 75 831 61 825 b 31 769 37 800 31 786 b 49 728 31 754 37 740 b 92 710 61 716 75 710 l 138 710 z m 308 568 l 308 710 l 772 710 l 772 568 z "},"ħ":{"ha":861,"x_min":0,"x_max":0,"o":"m 106 76 b 130 17 106 53 114 34 b 189 -7 146 1 166 -7 b 249 17 213 -7 233 1 b 274 76 266 34 274 53 l 274 414 b 319 547 274 470 289 515 b 439 596 350 580 390 596 b 555 549 489 596 528 580 b 596 417 582 518 596 474 l 596 76 b 620 17 596 53 604 34 b 681 -7 636 1 656 -7 b 740 17 705 -7 725 1 b 764 76 756 34 764 53 l 764 468 b 694 673 764 554 741 622 b 503 749 648 723 584 749 b 274 621 409 749 333 706 l 274 836 l 458 836 b 494 851 472 836 484 841 b 508 886 503 860 508 872 b 494 921 508 899 503 911 b 458 936 484 931 472 936 l 274 936 l 274 938 b 249 997 274 961 265 980 b 189 1021 232 1013 212 1021 b 130 997 166 1021 146 1013 b 106 938 114 980 106 961 l 106 936 l 53 936 b 17 921 39 936 27 931 b 3 886 8 911 3 899 b 17 851 3 872 8 860 b 53 836 27 841 39 836 l 106 836 z "},"Ī":{"ha":440,"x_min":0,"x_max":0,"o":"m 135 78 b 160 17 135 54 143 34 b 221 -7 176 1 197 -7 b 281 17 244 -7 264 1 b 306 78 297 34 306 54 l 306 894 b 281 955 306 919 297 939 b 221 979 264 971 244 979 b 160 955 197 979 176 971 b 135 894 143 939 135 919 z m 406 1068 b 449 1086 422 1068 437 1074 b 467 1129 461 1098 467 1113 b 449 1172 467 1146 461 1160 b 406 1190 437 1184 422 1190 l 36 1190 b -7 1172 19 1190 5 1184 b -25 1129 -19 1160 -25 1146 b -7 1086 -25 1113 -19 1098 b 36 1068 5 1074 19 1068 z "},"ī":{"ha":397,"x_min":0,"x_max":0,"o":"m 115 76 b 140 17 115 53 123 34 b 199 -7 156 1 175 -7 b 259 17 223 -7 243 1 b 283 76 275 34 283 53 l 283 657 b 258 717 283 680 275 700 b 199 742 242 733 222 742 b 140 717 175 742 156 734 b 115 657 123 701 115 681 z m 383 842 b 426 860 400 842 414 848 b 444 903 438 872 444 886 b 426 946 444 919 438 934 b 383 964 414 958 400 964 l 14 964 b -29 946 -3 964 -17 958 b -47 903 -41 934 -47 919 b -29 860 -47 886 -41 872 b 14 842 -17 848 -3 842 z "},"Ĭ":{"ha":440,"x_min":0,"x_max":0,"o":"m 135 78 b 160 17 135 54 143 34 b 221 -7 176 1 197 -7 b 281 17 244 -7 264 1 b 306 78 297 34 306 54 l 306 894 b 281 955 306 919 297 939 b 221 979 264 971 244 979 b 160 955 197 979 176 971 b 135 894 143 939 135 919 z m 221 1050 b 433 1161 321 1050 392 1087 b 444 1204 441 1176 444 1190 b 428 1247 444 1221 439 1235 b 386 1264 417 1258 403 1264 b 333 1232 363 1264 345 1253 b 221 1168 311 1189 274 1168 b 108 1232 170 1168 132 1189 b 56 1264 96 1253 79 1264 b 14 1247 39 1264 25 1258 b -3 1204 3 1235 -3 1221 b 8 1161 -3 1190 1 1176 b 221 1050 50 1087 121 1050 z "},"ĭ":{"ha":397,"x_min":0,"x_max":0,"o":"m 115 76 b 140 17 115 53 123 34 b 199 -7 156 1 175 -7 b 259 17 223 -7 243 1 b 283 76 275 34 283 53 l 283 657 b 258 717 283 680 275 700 b 199 742 242 733 222 742 b 140 717 175 742 156 734 b 115 657 123 701 115 681 z m 199 824 b 411 935 299 824 369 861 b 422 978 419 950 422 964 b 406 1020 422 994 417 1009 b 364 1038 394 1032 381 1038 b 311 1006 341 1038 323 1027 b 199 942 289 963 251 942 b 86 1006 148 942 110 963 b 33 1038 74 1027 56 1038 b -8 1020 17 1038 3 1032 b -25 978 -19 1009 -25 994 b -14 935 -25 964 -21 950 b 199 824 28 861 99 824 z "},"Į":{"ha":440,"x_min":0,"x_max":0,"o":"m 93 -114 b 145 -201 93 -153 110 -182 b 272 -231 180 -221 222 -231 b 328 -187 309 -231 328 -216 b 281 -144 328 -165 312 -151 b 219 -87 240 -134 219 -115 b 274 7 219 -62 238 -30 b 306 76 295 28 306 51 l 306 894 b 281 955 306 919 297 939 b 221 979 264 971 244 979 b 160 955 197 979 176 971 b 135 894 143 939 135 919 l 135 72 b 160 15 135 49 143 30 b 93 -114 115 -32 93 -75 z "},"į":{"ha":397,"x_min":0,"x_max":0,"o":"m 283 657 b 258 717 283 680 275 700 b 199 742 242 733 222 742 b 140 717 175 742 156 734 b 115 657 123 701 115 681 l 115 71 b 140 15 115 49 124 30 b 67 -118 91 -29 67 -74 b 119 -202 67 -155 84 -183 b 244 -231 153 -221 195 -231 b 300 -187 281 -231 300 -216 b 254 -144 300 -166 285 -152 b 194 -89 214 -134 194 -116 b 250 6 194 -62 213 -31 b 283 72 272 27 283 49 z m 103 922 b 130 862 103 897 112 877 b 199 839 148 847 171 839 b 267 862 226 839 249 847 b 294 922 285 877 294 897 l 294 931 b 267 990 294 956 285 975 b 199 1013 249 1005 226 1013 b 130 990 171 1013 148 1005 b 103 931 112 975 103 956 z "},"İ":{"ha":440,"x_min":0,"x_max":0,"o":"m 135 78 b 160 17 135 54 143 34 b 221 -7 176 1 197 -7 b 281 17 244 -7 264 1 b 306 78 297 34 306 54 l 306 894 b 281 955 306 919 297 939 b 221 979 264 971 244 979 b 160 955 197 979 176 971 b 135 894 143 939 135 919 z m 315 1140 b 288 1202 315 1165 306 1186 b 221 1226 269 1218 247 1226 b 155 1202 195 1226 173 1218 b 128 1140 137 1186 128 1165 l 128 1131 b 155 1069 128 1106 137 1085 b 221 1046 173 1054 195 1046 b 288 1069 248 1046 270 1054 b 315 1131 306 1085 315 1106 z "},"ı":{"ha":397,"x_min":0,"x_max":0,"o":"m 115 76 b 140 17 115 53 123 34 b 199 -7 156 1 175 -7 b 259 17 223 -7 243 1 b 283 76 275 34 283 53 l 283 657 b 258 717 283 680 275 700 b 199 742 242 733 222 742 b 140 717 175 742 156 734 b 115 657 123 701 115 681 z "},"Ķ":{"ha":990,"x_min":0,"x_max":0,"o":"m 494 -224 b 407 -312 496 -270 467 -300 b 378 -342 388 -317 378 -327 b 414 -371 378 -361 390 -371 b 533 -325 460 -371 500 -356 b 593 -175 573 -291 593 -241 l 593 -171 b 569 -100 593 -141 585 -118 b 504 -74 553 -82 531 -74 b 443 -94 479 -74 459 -81 b 419 -147 427 -108 419 -126 l 419 -150 b 494 -224 419 -191 444 -215 z m 125 78 b 150 17 125 54 133 34 b 211 -7 167 1 187 -7 b 272 17 235 -7 255 1 b 296 78 288 34 296 54 l 296 279 l 454 432 l 767 33 b 839 -7 787 6 811 -7 b 900 17 863 -7 883 1 b 925 76 917 34 925 53 b 901 138 925 97 917 117 l 574 544 l 876 836 b 907 900 897 855 907 876 b 885 956 907 921 900 940 b 828 979 870 971 851 979 b 757 947 800 979 776 969 l 296 483 l 296 894 b 272 955 296 919 288 939 b 211 979 255 971 235 979 b 150 955 187 979 167 971 b 125 894 133 939 125 919 z "},"ķ":{"ha":806,"x_min":0,"x_max":0,"o":"m 410 -231 b 322 -319 412 -277 382 -306 b 293 -349 303 -323 293 -333 b 329 -378 293 -368 305 -378 b 449 -332 375 -378 415 -362 b 508 -182 488 -298 508 -248 l 508 -178 b 484 -107 508 -148 500 -125 b 419 -81 468 -89 446 -81 b 358 -101 394 -81 374 -87 b 335 -154 343 -115 335 -133 l 335 -157 b 410 -231 335 -198 360 -222 z m 106 76 b 130 17 106 53 114 34 b 189 -7 146 1 166 -7 b 249 17 213 -7 233 1 b 274 76 266 34 274 53 l 274 204 l 385 310 l 594 31 b 668 -7 614 6 638 -7 b 724 15 690 -7 709 0 b 747 69 740 29 747 47 b 725 125 747 86 740 105 l 503 415 l 697 594 b 735 665 722 618 735 641 b 714 719 735 687 728 705 b 661 742 700 734 682 742 b 589 706 637 742 613 730 l 274 396 l 274 938 b 249 997 274 961 265 980 b 189 1021 232 1013 212 1021 b 130 997 166 1021 146 1013 b 106 938 114 980 106 961 z "},"Ĺ":{"ha":860,"x_min":0,"x_max":0,"o":"m 235 1046 b 333 1083 274 1046 306 1058 l 426 1172 b 450 1214 442 1186 450 1200 b 417 1251 450 1227 439 1239 b 350 1268 396 1262 373 1268 b 283 1228 322 1268 300 1255 l 204 1106 b 193 1075 197 1094 193 1084 b 235 1046 193 1056 207 1046 z m 125 86 b 150 25 125 62 133 42 b 211 0 167 8 187 0 l 736 0 b 791 23 757 0 776 8 b 814 78 806 38 814 56 b 791 133 814 99 806 117 b 736 156 776 148 757 156 l 296 156 l 296 894 b 272 955 296 919 288 939 b 211 979 255 971 235 979 b 150 955 187 979 167 971 b 125 894 133 939 125 919 z "},"ĺ":{"ha":397,"x_min":0,"x_max":0,"o":"m 196 1069 b 294 1107 235 1069 268 1082 l 388 1196 b 411 1238 403 1210 411 1224 b 378 1274 411 1250 400 1263 b 311 1292 357 1286 334 1292 b 244 1251 283 1292 261 1278 l 165 1129 b 154 1099 158 1118 154 1108 b 196 1069 154 1079 168 1069 z m 115 76 b 140 17 115 53 123 34 b 199 -7 156 1 175 -7 b 259 17 223 -7 243 1 b 283 76 275 34 283 53 l 283 938 b 258 997 283 961 275 980 b 199 1021 242 1013 222 1021 b 140 997 175 1021 156 1013 b 115 938 123 980 115 961 z "},"Ļ":{"ha":860,"x_min":0,"x_max":0,"o":"m 451 -231 b 364 -319 453 -277 424 -306 b 335 -349 344 -323 335 -333 b 371 -378 335 -368 347 -378 b 490 -332 417 -378 457 -362 b 550 -182 530 -298 550 -248 l 550 -178 b 526 -107 550 -148 542 -125 b 461 -81 509 -89 488 -81 b 400 -101 436 -81 416 -87 b 376 -154 384 -115 376 -133 l 376 -157 b 451 -231 376 -198 401 -222 z m 125 86 b 150 25 125 62 133 42 b 211 0 167 8 187 0 l 736 0 b 791 23 757 0 776 8 b 814 78 806 38 814 56 b 791 133 814 99 806 117 b 736 156 776 148 757 156 l 296 156 l 296 894 b 272 955 296 919 288 939 b 211 979 255 971 235 979 b 150 955 187 979 167 971 b 125 894 133 939 125 919 z "},"ļ":{"ha":397,"x_min":0,"x_max":0,"o":"m 188 -231 b 100 -319 189 -277 160 -306 b 71 -349 81 -323 71 -333 b 107 -378 71 -368 83 -378 b 226 -332 153 -378 193 -362 b 286 -182 266 -298 286 -248 l 286 -178 b 262 -107 286 -148 278 -125 b 197 -81 246 -89 224 -81 b 136 -101 172 -81 152 -87 b 113 -154 120 -115 113 -133 l 113 -157 b 188 -231 113 -198 138 -222 z m 115 76 b 140 17 115 53 123 34 b 199 -7 156 1 175 -7 b 259 17 223 -7 243 1 b 283 76 275 34 283 53 l 283 938 b 258 997 283 961 275 980 b 199 1021 242 1013 222 1021 b 140 997 175 1021 156 1013 b 115 938 123 980 115 961 z "},"Ľ":{"ha":860,"x_min":0,"x_max":0,"o":"m 413 742 b 422 711 412 729 415 719 b 449 700 428 704 438 700 b 489 735 468 700 481 712 l 540 903 b 546 935 544 914 546 925 b 503 975 546 962 531 975 l 478 975 b 435 958 460 975 446 969 b 417 914 424 946 418 931 z m 125 86 b 150 25 125 62 133 42 b 211 0 167 8 187 0 l 736 0 b 791 23 757 0 776 8 b 814 78 806 38 814 56 b 791 133 814 99 806 117 b 736 156 776 148 757 156 l 296 156 l 296 894 b 272 955 296 919 288 939 b 211 979 255 971 235 979 b 150 955 187 979 167 971 b 125 894 133 939 125 919 z "},"ľ":{"ha":397,"x_min":0,"x_max":0,"o":"m 361 788 b 370 757 360 775 363 764 b 397 746 377 750 386 746 b 438 781 417 746 430 757 l 489 949 b 494 981 493 960 494 970 b 451 1021 494 1007 480 1021 l 426 1021 b 383 1003 409 1021 394 1015 b 365 960 372 992 366 977 z m 115 76 b 140 17 115 53 123 34 b 199 -7 156 1 175 -7 b 259 17 223 -7 243 1 b 283 76 275 34 283 53 l 283 938 b 258 997 283 961 275 980 b 199 1021 242 1013 222 1021 b 140 997 175 1021 156 1013 b 115 938 123 980 115 961 z "},"Ŀ":{"ha":860,"x_min":0,"x_max":0,"o":"m 125 86 b 150 25 125 62 133 42 b 211 0 167 8 187 0 l 736 0 b 791 23 757 0 776 8 b 814 78 806 38 814 56 b 791 133 814 99 806 117 b 736 156 776 148 757 156 l 296 156 l 296 894 b 272 955 296 919 288 939 b 211 979 255 971 235 979 b 150 955 187 979 167 971 b 125 894 133 939 125 919 z m 754 529 b 726 591 754 554 745 575 b 660 615 708 607 686 615 b 594 591 634 615 612 607 b 567 529 576 575 567 554 l 567 519 b 594 458 567 494 576 474 b 660 435 612 443 634 435 b 727 458 687 435 709 443 b 754 519 745 474 754 494 z "},"ŀ":{"ha":510,"x_min":0,"x_max":0,"o":"m 531 528 b 509 582 531 549 523 567 b 454 604 495 597 476 604 b 399 582 432 604 414 597 b 378 528 385 567 378 549 l 378 513 b 399 458 378 491 385 473 b 454 436 414 444 432 436 b 509 458 476 436 495 444 b 531 513 523 473 531 491 z m 115 76 b 140 17 115 53 123 34 b 199 -7 156 1 175 -7 b 259 17 223 -7 243 1 b 283 76 275 34 283 53 l 283 938 b 258 997 283 961 275 980 b 199 1021 242 1013 222 1021 b 140 997 175 1021 156 1013 b 115 938 123 980 115 961 z "},"Ł":{"ha":901,"x_min":0,"x_max":0,"o":"m 569 508 b 624 581 606 519 624 543 b 601 635 624 602 616 620 b 549 657 587 650 569 657 b 521 653 539 657 530 656 l 336 597 l 336 894 b 311 955 336 919 328 939 b 251 979 294 971 275 979 b 192 955 228 979 208 971 b 167 894 175 939 167 919 l 167 546 l 110 529 b 56 457 74 518 56 494 b 77 402 56 436 63 417 b 131 379 91 387 109 379 b 138 380 132 379 135 379 b 148 382 140 380 144 381 b 158 383 152 383 156 383 l 167 386 l 167 86 b 192 25 167 62 175 42 b 253 0 208 8 229 0 l 778 0 b 833 23 799 0 817 8 b 856 78 848 38 856 56 b 833 133 856 99 848 117 b 778 156 817 148 799 156 l 336 156 l 336 438 z "},"ł":{"ha":481,"x_min":0,"x_max":0,"o":"m 385 481 b 439 553 421 490 439 514 b 417 607 439 574 432 592 b 364 629 403 622 385 629 b 336 625 355 629 345 628 l 324 621 l 324 938 b 299 997 324 961 316 980 b 240 1021 283 1013 263 1021 b 181 997 217 1021 197 1013 b 157 938 165 980 157 961 l 157 571 b 96 553 134 564 113 558 b 42 481 60 542 42 518 b 63 426 42 459 49 441 b 117 404 78 412 95 404 b 144 408 126 404 135 406 l 157 411 l 157 76 b 181 17 157 53 165 34 b 240 -7 197 1 217 -7 b 299 17 263 -7 283 1 b 324 76 316 34 324 53 l 324 461 z "},"Ń":{"ha":1097,"x_min":0,"x_max":0,"o":"m 543 1046 b 642 1083 582 1046 615 1058 l 735 1172 b 758 1214 750 1186 758 1200 b 726 1251 758 1227 747 1239 b 658 1268 704 1262 681 1268 b 592 1228 631 1268 608 1255 l 513 1106 b 501 1075 505 1094 501 1084 b 543 1046 501 1056 515 1046 z m 125 76 b 150 17 125 53 133 34 b 210 -7 167 1 187 -7 b 269 17 233 -7 253 1 b 293 76 285 34 293 53 l 293 693 l 793 46 b 882 -6 820 12 850 -6 l 889 -6 b 948 19 912 -6 932 3 b 972 79 964 35 972 55 l 972 896 b 947 955 972 919 964 939 b 888 979 931 971 911 979 b 828 955 864 979 845 971 b 804 896 812 939 804 919 l 804 299 l 318 928 b 229 978 291 961 262 978 l 211 978 b 150 953 187 978 167 969 b 125 892 133 936 125 916 z "},"ń":{"ha":861,"x_min":0,"x_max":0,"o":"m 429 819 b 528 857 468 819 501 832 l 621 946 b 644 988 637 960 644 974 b 612 1024 644 1000 634 1013 b 544 1042 590 1036 568 1042 b 478 1001 517 1042 494 1028 l 399 879 b 388 849 391 868 388 858 b 429 819 388 829 401 819 z m 106 76 b 130 17 106 53 114 34 b 189 -7 146 1 166 -7 b 249 17 213 -7 233 1 b 274 76 266 34 274 53 l 274 414 b 319 547 274 470 289 515 b 439 596 350 580 390 596 b 555 549 489 596 528 580 b 596 417 582 518 596 474 l 596 76 b 620 17 596 53 604 34 b 681 -7 636 1 656 -7 b 740 17 705 -7 725 1 b 764 76 756 34 764 53 l 764 468 b 694 673 764 554 741 622 b 503 749 648 723 584 749 b 274 621 409 749 333 706 l 274 657 b 249 717 274 680 266 700 b 189 742 233 733 213 742 b 130 717 166 742 146 734 b 106 657 114 701 106 681 z "},"Ņ":{"ha":1097,"x_min":0,"x_max":0,"o":"m 536 -224 b 449 -312 538 -270 509 -300 b 419 -342 429 -317 419 -327 b 456 -371 419 -361 431 -371 b 575 -325 502 -371 542 -356 b 635 -175 615 -291 635 -241 l 635 -171 b 610 -100 635 -141 627 -118 b 546 -74 594 -82 573 -74 b 485 -94 521 -74 500 -81 b 461 -147 469 -108 461 -126 l 461 -150 b 536 -224 461 -191 486 -215 z m 125 76 b 150 17 125 53 133 34 b 210 -7 167 1 187 -7 b 269 17 233 -7 253 1 b 293 76 285 34 293 53 l 293 693 l 793 46 b 882 -6 820 12 850 -6 l 889 -6 b 948 19 912 -6 932 3 b 972 79 964 35 972 55 l 972 896 b 947 955 972 919 964 939 b 888 979 931 971 911 979 b 828 955 864 979 845 971 b 804 896 812 939 804 919 l 804 299 l 318 928 b 229 978 291 961 262 978 l 211 978 b 150 953 187 978 167 969 b 125 892 133 936 125 916 z "},"ņ":{"ha":861,"x_min":0,"x_max":0,"o":"m 422 -231 b 335 -319 424 -277 395 -306 b 306 -349 315 -323 306 -333 b 342 -378 306 -368 318 -378 b 461 -332 388 -378 428 -362 b 521 -182 501 -298 521 -248 l 521 -178 b 497 -107 521 -148 513 -125 b 432 -81 480 -89 459 -81 b 371 -101 407 -81 387 -87 b 347 -154 355 -115 347 -133 l 347 -157 b 422 -231 347 -198 372 -222 z m 106 76 b 130 17 106 53 114 34 b 189 -7 146 1 166 -7 b 249 17 213 -7 233 1 b 274 76 266 34 274 53 l 274 414 b 319 547 274 470 289 515 b 439 596 350 580 390 596 b 555 549 489 596 528 580 b 596 417 582 518 596 474 l 596 76 b 620 17 596 53 604 34 b 681 -7 636 1 656 -7 b 740 17 705 -7 725 1 b 764 76 756 34 764 53 l 764 468 b 694 673 764 554 741 622 b 503 749 648 723 584 749 b 274 621 409 749 333 706 l 274 657 b 249 717 274 680 266 700 b 189 742 233 733 213 742 b 130 717 166 742 146 734 b 106 657 114 701 106 681 z "},"Ň":{"ha":1097,"x_min":0,"x_max":0,"o":"m 550 1164 l 478 1226 b 375 1264 448 1251 414 1264 b 335 1236 348 1264 335 1255 b 351 1203 335 1229 340 1218 l 443 1088 b 524 1047 465 1061 492 1047 l 574 1047 b 654 1088 606 1047 633 1061 l 746 1203 b 763 1236 757 1218 763 1229 b 725 1264 763 1255 750 1264 b 622 1226 687 1264 653 1251 z m 125 76 b 150 17 125 53 133 34 b 210 -7 167 1 187 -7 b 269 17 233 -7 253 1 b 293 76 285 34 293 53 l 293 693 l 793 46 b 882 -6 820 12 850 -6 l 889 -6 b 948 19 912 -6 932 3 b 972 79 964 35 972 55 l 972 896 b 947 955 972 919 964 939 b 888 979 931 971 911 979 b 828 955 864 979 845 971 b 804 896 812 939 804 919 l 804 299 l 318 928 b 229 978 291 961 262 978 l 211 978 b 150 953 187 978 167 969 b 125 892 133 936 125 916 z "},"ň":{"ha":861,"x_min":0,"x_max":0,"o":"m 435 938 l 363 1000 b 260 1038 333 1025 299 1038 b 219 1010 233 1038 219 1028 b 236 976 219 1002 225 991 l 328 861 b 408 821 350 834 377 821 l 458 821 b 539 861 491 821 518 834 l 631 976 b 647 1010 642 991 647 1002 b 610 1038 647 1028 635 1038 b 507 1000 572 1038 538 1025 z m 106 76 b 130 17 106 53 114 34 b 189 -7 146 1 166 -7 b 249 17 213 -7 233 1 b 274 76 266 34 274 53 l 274 414 b 319 547 274 470 289 515 b 439 596 350 580 390 596 b 555 549 489 596 528 580 b 596 417 582 518 596 474 l 596 76 b 620 17 596 53 604 34 b 681 -7 636 1 656 -7 b 740 17 705 -7 725 1 b 764 76 756 34 764 53 l 764 468 b 694 673 764 554 741 622 b 503 749 648 723 584 749 b 274 621 409 749 333 706 l 274 657 b 249 717 274 680 266 700 b 189 742 233 733 213 742 b 130 717 166 742 146 734 b 106 657 114 701 106 681 z "},"Ō":{"ha":1181,"x_min":0,"x_max":0,"o":"m 775 1082 b 818 1100 792 1082 806 1088 b 836 1143 830 1112 836 1126 b 818 1186 836 1160 830 1174 b 775 1204 806 1198 792 1204 l 406 1204 b 363 1186 389 1204 375 1198 b 344 1143 350 1174 344 1160 b 363 1100 344 1126 350 1112 b 406 1082 375 1088 389 1082 z m 589 -17 b 954 131 736 -17 858 32 b 1099 486 1050 229 1099 347 l 1099 489 b 956 843 1099 628 1051 746 b 592 989 860 940 739 989 b 226 842 444 989 323 940 b 82 486 130 744 82 625 l 82 483 b 225 129 82 344 130 226 b 589 -17 320 32 442 -17 z m 592 142 b 355 242 496 142 417 175 b 261 486 292 308 261 390 l 261 489 b 353 733 261 585 292 666 b 589 832 415 799 494 832 b 826 731 684 832 763 798 b 919 486 888 664 919 582 l 919 483 b 827 240 919 387 889 306 b 592 142 766 175 687 142 z "},"ō":{"ha":913,"x_min":0,"x_max":0,"o":"m 640 842 b 683 860 657 842 671 848 b 701 903 695 872 701 886 b 683 946 701 919 695 934 b 640 964 671 958 657 964 l 271 964 b 228 946 254 964 240 958 b 210 903 216 934 210 919 b 228 860 210 886 216 872 b 271 842 240 848 254 842 z m 454 -17 b 735 95 566 -17 660 21 b 847 365 810 170 847 260 l 847 368 b 735 638 847 474 810 563 b 457 749 661 712 568 749 b 178 637 346 749 253 711 b 65 365 103 562 65 472 l 65 363 b 176 94 65 257 102 167 b 454 -17 250 20 343 -17 z m 457 131 b 297 199 393 131 340 153 b 233 365 255 245 233 300 l 233 368 b 294 534 233 434 254 489 b 454 601 335 579 388 601 b 615 533 519 601 573 578 b 679 365 658 487 679 431 l 679 363 b 618 198 679 298 659 243 b 457 131 577 153 524 131 z "},"Ŏ":{"ha":1181,"x_min":0,"x_max":0,"o":"m 589 -17 b 954 131 736 -17 858 32 b 1099 486 1050 229 1099 347 l 1099 489 b 956 843 1099 628 1051 746 b 592 989 860 940 739 989 b 226 842 444 989 323 940 b 82 486 130 744 82 625 l 82 483 b 225 129 82 344 130 226 b 589 -17 320 32 442 -17 z m 592 142 b 355 242 496 142 417 175 b 261 486 292 308 261 390 l 261 489 b 353 733 261 585 292 666 b 589 832 415 799 494 832 b 826 731 684 832 763 798 b 919 486 888 664 919 582 l 919 483 b 827 240 919 387 889 306 b 592 142 766 175 687 142 z m 590 1064 b 803 1175 690 1064 761 1101 b 814 1218 810 1190 814 1204 b 797 1260 814 1235 808 1249 b 756 1278 786 1272 772 1278 b 703 1246 732 1278 715 1267 b 590 1182 681 1203 643 1182 b 478 1246 539 1182 502 1203 b 425 1278 466 1267 448 1278 b 383 1260 408 1278 394 1272 b 367 1218 372 1249 367 1235 b 378 1175 367 1204 370 1190 b 590 1064 419 1101 490 1064 z "},"ŏ":{"ha":913,"x_min":0,"x_max":0,"o":"m 454 -17 b 735 95 566 -17 660 21 b 847 365 810 170 847 260 l 847 368 b 735 638 847 474 810 563 b 457 749 661 712 568 749 b 178 637 346 749 253 711 b 65 365 103 562 65 472 l 65 363 b 176 94 65 257 102 167 b 454 -17 250 20 343 -17 z m 457 131 b 297 199 393 131 340 153 b 233 365 255 245 233 300 l 233 368 b 294 534 233 434 254 489 b 454 601 335 579 388 601 b 615 533 519 601 573 578 b 679 365 658 487 679 431 l 679 363 b 618 198 679 298 659 243 b 457 131 577 153 524 131 z m 456 824 b 668 935 556 824 626 861 b 679 978 675 950 679 964 b 663 1020 679 994 674 1009 b 621 1038 651 1032 638 1038 b 568 1006 598 1038 580 1027 b 456 942 546 963 508 942 b 343 1006 405 942 367 963 b 290 1038 331 1027 313 1038 b 249 1020 274 1038 260 1032 b 232 978 238 1009 232 994 b 243 935 232 964 236 950 b 456 824 285 861 356 824 z "},"Ő":{"ha":1181,"x_min":0,"x_max":0,"o":"m 699 1060 b 794 1097 736 1060 768 1072 l 888 1186 b 911 1229 903 1202 911 1216 b 879 1265 911 1242 900 1254 b 814 1282 858 1276 836 1282 b 750 1242 787 1282 766 1269 l 669 1119 b 658 1089 662 1108 658 1098 b 699 1060 658 1069 672 1060 z m 444 1060 b 540 1097 482 1060 514 1072 l 633 1186 b 657 1229 649 1202 657 1216 b 625 1265 657 1242 646 1254 b 560 1282 604 1276 582 1282 b 496 1242 533 1282 512 1269 l 415 1119 b 404 1089 408 1108 404 1098 b 444 1060 404 1069 418 1060 z m 589 -17 b 954 131 736 -17 858 32 b 1099 486 1050 229 1099 347 l 1099 489 b 956 843 1099 628 1051 746 b 592 989 860 940 739 989 b 226 842 444 989 323 940 b 82 486 130 744 82 625 l 82 483 b 225 129 82 344 130 226 b 589 -17 320 32 442 -17 z m 592 142 b 355 242 496 142 417 175 b 261 486 292 308 261 390 l 261 489 b 353 733 261 585 292 666 b 589 832 415 799 494 832 b 826 731 684 832 763 798 b 919 486 888 664 919 582 l 919 483 b 827 240 919 387 889 306 b 592 142 766 175 687 142 z "},"ő":{"ha":913,"x_min":0,"x_max":0,"o":"m 565 819 b 661 857 602 819 634 832 l 754 946 b 778 989 770 962 778 976 b 746 1025 778 1002 767 1014 b 681 1042 725 1036 703 1042 b 617 1001 654 1042 632 1028 l 536 879 b 525 849 529 868 525 858 b 565 819 525 829 538 819 z m 311 819 b 407 857 349 819 381 832 l 500 946 b 524 989 516 962 524 976 b 492 1025 524 1002 513 1014 b 426 1042 470 1036 449 1042 b 363 1001 400 1042 378 1028 l 282 879 b 271 849 275 868 271 858 b 311 819 271 829 284 819 z m 454 -17 b 735 95 566 -17 660 21 b 847 365 810 170 847 260 l 847 368 b 735 638 847 474 810 563 b 457 749 661 712 568 749 b 178 637 346 749 253 711 b 65 365 103 562 65 472 l 65 363 b 176 94 65 257 102 167 b 454 -17 250 20 343 -17 z m 457 131 b 297 199 393 131 340 153 b 233 365 255 245 233 300 l 233 368 b 294 534 233 434 254 489 b 454 601 335 579 388 601 b 615 533 519 601 573 578 b 679 365 658 487 679 431 l 679 363 b 618 198 679 298 659 243 b 457 131 577 153 524 131 z "},"Œ":{"ha":1525,"x_min":0,"x_max":0,"o":"m 599 0 l 1378 0 b 1433 22 1399 0 1417 7 b 1456 76 1448 37 1456 55 b 1433 131 1456 98 1448 116 b 1378 153 1417 145 1399 153 l 921 153 l 921 414 l 1308 414 b 1363 436 1330 414 1348 421 b 1386 489 1378 451 1386 469 b 1363 544 1386 510 1378 528 b 1308 567 1348 559 1330 567 l 921 567 l 921 819 l 1371 819 b 1426 842 1392 819 1410 827 b 1449 896 1441 856 1449 875 b 1426 950 1449 917 1441 935 b 1371 972 1410 965 1392 972 l 599 972 b 227 833 448 972 324 926 b 82 486 130 741 82 625 l 82 483 b 226 138 82 344 130 229 b 599 0 323 46 447 0 z m 599 156 b 354 249 498 156 416 187 b 261 486 292 311 261 390 l 261 489 b 354 725 261 585 292 664 b 599 817 416 786 498 817 l 750 817 l 750 156 z "},"œ":{"ha":1444,"x_min":0,"x_max":0,"o":"m 836 418 b 899 558 844 475 865 522 b 1028 611 934 593 977 611 b 1156 558 1081 611 1124 593 b 1214 418 1188 522 1207 475 z m 453 131 b 296 199 390 131 338 153 b 233 365 254 245 233 300 l 233 368 b 294 533 233 433 253 488 b 450 601 334 579 386 601 b 607 533 513 601 565 578 b 669 365 649 487 669 431 l 669 363 b 610 198 669 298 650 243 b 453 131 570 153 518 131 z m 1310 81 b 1332 132 1325 94 1332 111 b 1313 181 1332 151 1326 168 b 1265 200 1301 194 1285 200 b 1222 185 1250 200 1235 195 b 1049 121 1170 142 1113 121 b 909 170 994 121 947 137 b 838 307 871 203 847 249 l 1297 307 b 1353 330 1319 307 1338 315 b 1376 388 1369 345 1376 364 b 1284 638 1376 481 1346 565 b 1029 749 1222 712 1138 749 b 867 708 970 749 916 735 b 746 597 818 681 777 644 b 622 708 714 644 673 681 b 453 749 570 735 514 749 b 178 636 344 749 253 711 b 65 365 103 561 65 471 l 65 363 b 176 94 65 258 102 169 b 446 -17 250 20 340 -17 b 617 25 508 -17 565 -3 b 744 138 670 53 712 90 b 874 24 778 89 821 52 b 1047 -17 926 -3 984 -17 b 1310 81 1150 -17 1238 16 z "},"Ŕ":{"ha":1004,"x_min":0,"x_max":0,"o":"m 125 78 b 150 17 125 54 133 34 b 211 -7 167 1 187 -7 b 272 17 235 -7 255 1 b 296 78 288 34 296 54 l 296 339 l 511 339 l 747 38 b 831 -7 769 8 797 -7 b 888 15 852 -7 871 0 b 913 72 904 30 913 49 b 885 138 913 93 903 114 l 699 372 b 860 477 767 394 821 428 b 919 663 900 526 919 588 l 919 665 b 839 875 919 750 893 819 b 558 972 772 940 679 972 l 211 972 b 150 947 187 972 167 964 b 125 886 133 931 125 910 z m 296 490 l 296 817 l 544 817 b 693 775 608 817 658 803 b 746 656 728 747 746 707 l 746 653 b 692 535 746 604 728 564 b 546 490 656 505 607 490 z m 507 1046 b 606 1083 546 1046 579 1058 l 699 1172 b 722 1214 714 1186 722 1200 b 690 1251 722 1227 711 1239 b 622 1268 668 1262 645 1268 b 556 1228 594 1268 572 1255 l 476 1106 b 465 1075 469 1094 465 1084 b 507 1046 465 1056 479 1046 z "},"ŕ":{"ha":574,"x_min":0,"x_max":0,"o":"m 306 819 b 404 857 344 819 377 832 l 497 946 b 521 988 513 960 521 974 b 488 1024 521 1000 510 1013 b 421 1042 466 1036 444 1042 b 354 1001 393 1042 371 1028 l 275 879 b 264 849 268 868 264 858 b 306 819 264 829 278 819 z m 106 76 b 130 17 106 53 114 34 b 189 -7 146 1 166 -7 b 249 17 212 -7 232 1 b 274 76 265 34 274 53 l 274 293 b 328 491 274 377 292 443 b 475 579 364 539 413 568 b 523 606 494 583 510 592 b 542 660 535 621 542 638 b 519 720 542 685 534 705 b 458 743 505 735 484 743 b 354 698 422 743 388 728 b 274 582 321 668 294 629 l 274 657 b 249 717 274 680 266 700 b 189 742 233 733 213 742 b 130 717 166 742 146 734 b 106 657 114 701 106 681 z "},"Ŗ":{"ha":1004,"x_min":0,"x_max":0,"o":"m 125 78 b 150 17 125 54 133 34 b 211 -7 167 1 187 -7 b 272 17 235 -7 255 1 b 296 78 288 34 296 54 l 296 339 l 511 339 l 747 38 b 831 -7 769 8 797 -7 b 888 15 852 -7 871 0 b 913 72 904 30 913 49 b 885 138 913 93 903 114 l 699 372 b 860 477 767 394 821 428 b 919 663 900 526 919 588 l 919 665 b 839 875 919 750 893 819 b 558 972 772 940 679 972 l 211 972 b 150 947 187 972 167 964 b 125 886 133 931 125 910 z m 296 490 l 296 817 l 544 817 b 693 775 608 817 658 803 b 746 656 728 747 746 707 l 746 653 b 692 535 746 604 728 564 b 546 490 656 505 607 490 z m 500 -224 b 413 -312 502 -270 473 -300 b 383 -342 393 -317 383 -327 b 419 -371 383 -361 395 -371 b 539 -325 466 -371 506 -356 b 599 -175 579 -291 599 -241 l 599 -171 b 574 -100 599 -141 591 -118 b 510 -74 558 -82 537 -74 b 449 -94 485 -74 464 -81 b 425 -147 433 -108 425 -126 l 425 -150 b 500 -224 425 -191 450 -215 z "},"ŗ":{"ha":574,"x_min":0,"x_max":0,"o":"m 188 -231 b 100 -319 189 -277 160 -306 b 71 -349 81 -323 71 -333 b 107 -378 71 -368 83 -378 b 226 -332 153 -378 193 -362 b 286 -182 266 -298 286 -248 l 286 -178 b 262 -107 286 -148 278 -125 b 197 -81 246 -89 224 -81 b 136 -101 172 -81 152 -87 b 113 -154 120 -115 113 -133 l 113 -157 b 188 -231 113 -198 138 -222 z m 106 76 b 130 17 106 53 114 34 b 189 -7 146 1 166 -7 b 249 17 212 -7 232 1 b 274 76 265 34 274 53 l 274 293 b 328 491 274 377 292 443 b 475 579 364 539 413 568 b 523 606 494 583 510 592 b 542 660 535 621 542 638 b 519 720 542 685 534 705 b 458 743 505 735 484 743 b 354 698 422 743 388 728 b 274 582 321 668 294 629 l 274 657 b 249 717 274 680 266 700 b 189 742 233 733 213 742 b 130 717 166 742 146 734 b 106 657 114 701 106 681 z "},"Ř":{"ha":1004,"x_min":0,"x_max":0,"o":"m 125 78 b 150 17 125 54 133 34 b 211 -7 167 1 187 -7 b 272 17 235 -7 255 1 b 296 78 288 34 296 54 l 296 339 l 511 339 l 747 38 b 831 -7 769 8 797 -7 b 888 15 852 -7 871 0 b 913 72 904 30 913 49 b 885 138 913 93 903 114 l 699 372 b 860 477 767 394 821 428 b 919 663 900 526 919 588 l 919 665 b 839 875 919 750 893 819 b 558 972 772 940 679 972 l 211 972 b 150 947 187 972 167 964 b 125 886 133 931 125 910 z m 296 490 l 296 817 l 544 817 b 693 775 608 817 658 803 b 746 656 728 747 746 707 l 746 653 b 692 535 746 604 728 564 b 546 490 656 505 607 490 z m 513 1164 l 440 1226 b 338 1264 411 1251 376 1264 b 297 1236 311 1264 297 1255 b 314 1203 297 1229 303 1218 l 406 1088 b 486 1047 428 1061 455 1047 l 536 1047 b 617 1088 569 1047 595 1061 l 708 1203 b 725 1236 719 1218 725 1229 b 688 1264 725 1255 713 1264 b 585 1226 650 1264 615 1251 z "},"ř":{"ha":574,"x_min":0,"x_max":0,"o":"m 313 938 l 240 1000 b 138 1038 211 1025 176 1038 b 97 1010 111 1038 97 1028 b 114 976 97 1002 103 991 l 206 861 b 286 821 228 834 255 821 l 336 821 b 417 861 369 821 395 834 l 508 976 b 525 1010 519 991 525 1002 b 488 1038 525 1028 513 1038 b 385 1000 450 1038 415 1025 z m 106 76 b 130 17 106 53 114 34 b 189 -7 146 1 166 -7 b 249 17 212 -7 232 1 b 274 76 265 34 274 53 l 274 293 b 328 491 274 377 292 443 b 475 579 364 539 413 568 b 523 606 494 583 510 592 b 542 660 535 621 542 638 b 519 720 542 685 534 705 b 458 743 505 735 484 743 b 354 698 422 743 388 728 b 274 582 321 668 294 629 l 274 657 b 249 717 274 680 266 700 b 189 742 233 733 213 742 b 130 717 166 742 146 734 b 106 657 114 701 106 681 z "},"Ś":{"ha":889,"x_min":0,"x_max":0,"o":"m 447 1060 b 546 1097 486 1060 519 1072 l 639 1186 b 663 1228 655 1200 663 1214 b 630 1265 663 1241 652 1253 b 563 1282 608 1276 586 1282 b 496 1242 535 1282 513 1269 l 417 1119 b 406 1089 409 1108 406 1098 b 447 1060 406 1069 419 1060 z m 465 -14 b 717 64 569 -14 653 12 b 813 276 781 116 813 187 l 813 279 b 738 460 813 357 788 417 b 501 564 688 503 609 538 b 316 628 409 586 347 608 b 269 717 285 649 269 679 l 269 719 b 313 802 269 753 284 780 b 428 835 341 824 380 835 b 651 761 501 835 575 810 b 696 749 665 753 680 749 b 753 772 718 749 737 756 b 776 828 769 787 776 806 b 739 896 776 859 764 882 b 431 986 648 956 545 986 b 192 908 333 986 254 960 b 99 704 130 855 99 788 l 99 701 b 119 588 99 658 105 620 b 183 507 132 556 154 529 b 283 453 213 485 246 467 b 422 411 320 439 367 425 b 597 349 509 391 568 370 b 642 263 627 327 642 299 l 642 260 b 595 172 642 224 626 194 b 469 138 564 149 522 138 b 197 238 372 138 281 171 b 147 253 183 248 167 253 b 90 230 125 253 106 245 b 67 174 75 215 67 196 b 100 108 67 146 78 124 b 465 -14 209 27 331 -14 z "},"ś":{"ha":696,"x_min":0,"x_max":0,"o":"m 347 819 b 446 857 386 819 419 832 l 539 946 b 563 988 555 960 563 974 b 530 1024 563 1000 552 1013 b 463 1042 508 1036 486 1042 b 396 1001 435 1042 413 1028 l 317 879 b 306 849 309 868 306 858 b 347 819 306 829 319 819 z m 357 -14 b 553 46 437 -14 502 6 b 629 217 604 86 629 143 l 629 219 b 610 303 629 251 623 279 b 553 364 597 327 578 347 b 483 403 529 381 506 394 b 401 433 461 413 434 423 b 388 438 399 434 394 436 b 274 483 337 454 299 469 b 236 538 249 496 236 514 l 236 540 b 264 592 236 562 245 579 b 339 613 282 606 307 613 b 511 563 389 613 446 596 b 544 554 522 557 533 554 b 594 574 564 554 580 561 b 614 622 607 587 614 603 b 574 686 614 651 600 672 b 343 746 499 726 422 746 b 156 685 268 746 206 725 b 82 522 107 644 82 590 l 82 519 b 101 432 82 486 88 457 b 157 370 113 407 132 386 b 228 332 182 354 206 341 b 311 304 250 323 278 313 b 328 299 315 303 320 301 b 475 201 426 269 475 237 l 475 199 b 445 141 475 175 465 155 b 361 119 425 127 397 119 b 150 190 291 119 220 143 b 114 200 139 197 127 200 b 65 180 94 200 78 193 b 46 132 52 166 46 150 b 78 74 46 104 56 85 b 357 -14 163 15 256 -14 z "},"Ş":{"ha":889,"x_min":0,"x_max":0,"o":"m 813 276 l 813 279 b 738 460 813 357 788 417 b 501 564 688 503 609 538 b 316 628 409 586 347 608 b 269 717 285 649 269 679 l 269 719 b 313 802 269 753 284 780 b 428 835 341 824 380 835 b 651 761 501 835 575 810 b 696 749 665 753 680 749 b 753 772 718 749 737 756 b 776 828 769 787 776 806 b 739 896 776 859 764 882 b 431 986 648 956 545 986 b 192 908 333 986 254 960 b 99 704 130 855 99 788 l 99 701 b 119 588 99 658 105 620 b 183 507 132 556 154 529 b 283 453 213 485 246 467 b 422 411 320 439 367 425 b 597 349 509 391 568 370 b 642 263 627 327 642 299 l 642 260 b 595 172 642 224 626 194 b 469 138 564 149 522 138 b 197 238 372 138 281 171 b 147 253 183 248 167 253 b 90 230 125 253 106 245 b 67 174 75 215 67 196 b 100 108 67 146 78 124 b 388 -8 185 44 281 5 l 306 -129 b 294 -161 298 -139 294 -150 b 329 -202 294 -175 306 -189 b 392 -222 352 -216 373 -222 b 446 -182 417 -222 435 -209 l 519 -11 b 733 78 608 -2 679 28 b 813 276 786 129 813 195 z "},"ş":{"ha":696,"x_min":0,"x_max":0,"o":"m 629 217 l 629 219 b 610 303 629 251 623 279 b 553 364 597 327 578 347 b 483 403 529 381 506 394 b 401 433 461 413 434 423 b 388 438 399 434 394 436 b 274 483 337 454 299 469 b 236 538 249 496 236 514 l 236 540 b 264 592 236 562 245 579 b 339 613 282 606 307 613 b 511 563 389 613 446 596 b 544 554 522 557 533 554 b 594 574 564 554 580 561 b 614 622 607 587 614 603 b 574 686 614 651 600 672 b 343 746 499 726 422 746 b 156 685 268 746 206 725 b 82 522 107 644 82 590 l 82 519 b 101 432 82 486 88 457 b 157 370 113 407 132 386 b 228 332 182 354 206 341 b 311 304 250 323 278 313 b 328 299 315 303 320 301 b 475 201 426 269 475 237 l 475 199 b 445 141 475 175 465 155 b 361 119 425 127 397 119 b 150 190 291 119 220 143 b 114 200 139 197 127 200 b 65 180 94 200 78 193 b 46 132 52 166 46 150 b 78 74 46 104 56 85 b 276 -7 140 31 206 4 l 193 -129 b 182 -161 186 -139 182 -150 b 217 -202 182 -175 194 -189 b 279 -222 240 -216 261 -222 b 333 -182 304 -222 322 -209 l 407 -11 b 568 60 474 -3 527 21 b 629 217 609 99 629 151 z "},"Š":{"ha":889,"x_min":0,"x_max":0,"o":"m 453 1178 l 381 1240 b 278 1278 351 1265 317 1278 b 238 1250 251 1278 238 1269 b 254 1217 238 1243 243 1231 l 346 1101 b 426 1061 368 1075 395 1061 l 476 1061 b 557 1101 509 1061 536 1075 l 649 1217 b 665 1250 660 1231 665 1243 b 628 1278 665 1269 653 1278 b 525 1240 590 1278 556 1265 z m 465 -14 b 717 64 569 -14 653 12 b 813 276 781 116 813 187 l 813 279 b 738 460 813 357 788 417 b 501 564 688 503 609 538 b 316 628 409 586 347 608 b 269 717 285 649 269 679 l 269 719 b 313 802 269 753 284 780 b 428 835 341 824 380 835 b 651 761 501 835 575 810 b 696 749 665 753 680 749 b 753 772 718 749 737 756 b 776 828 769 787 776 806 b 739 896 776 859 764 882 b 431 986 648 956 545 986 b 192 908 333 986 254 960 b 99 704 130 855 99 788 l 99 701 b 119 588 99 658 105 620 b 183 507 132 556 154 529 b 283 453 213 485 246 467 b 422 411 320 439 367 425 b 597 349 509 391 568 370 b 642 263 627 327 642 299 l 642 260 b 595 172 642 224 626 194 b 469 138 564 149 522 138 b 197 238 372 138 281 171 b 147 253 183 248 167 253 b 90 230 125 253 106 245 b 67 174 75 215 67 196 b 100 108 67 146 78 124 b 465 -14 209 27 331 -14 z "},"š":{"ha":696,"x_min":0,"x_max":0,"o":"m 353 938 l 281 1000 b 178 1038 251 1025 217 1038 b 138 1010 151 1038 138 1028 b 154 976 138 1002 143 991 l 246 861 b 326 821 268 834 295 821 l 376 821 b 457 861 409 821 436 834 l 549 976 b 565 1010 560 991 565 1002 b 528 1038 565 1028 553 1038 b 425 1000 490 1038 456 1025 z m 357 -14 b 553 46 437 -14 502 6 b 629 217 604 86 629 143 l 629 219 b 610 303 629 251 623 279 b 553 364 597 327 578 347 b 483 403 529 381 506 394 b 401 433 461 413 434 423 b 388 438 399 434 394 436 b 274 483 337 454 299 469 b 236 538 249 496 236 514 l 236 540 b 264 592 236 562 245 579 b 339 613 282 606 307 613 b 511 563 389 613 446 596 b 544 554 522 557 533 554 b 594 574 564 554 580 561 b 614 622 607 587 614 603 b 574 686 614 651 600 672 b 343 746 499 726 422 746 b 156 685 268 746 206 725 b 82 522 107 644 82 590 l 82 519 b 101 432 82 486 88 457 b 157 370 113 407 132 386 b 228 332 182 354 206 341 b 311 304 250 323 278 313 b 328 299 315 303 320 301 b 475 201 426 269 475 237 l 475 199 b 445 141 475 175 465 155 b 361 119 425 127 397 119 b 150 190 291 119 220 143 b 114 200 139 197 127 200 b 65 180 94 200 78 193 b 46 132 52 166 46 150 b 78 74 46 104 56 85 b 357 -14 163 15 256 -14 z "},"Ţ":{"ha":900,"x_min":0,"x_max":0,"o":"m 438 -231 b 350 -319 439 -277 410 -306 b 321 -349 331 -323 321 -333 b 357 -378 321 -368 333 -378 b 476 -332 403 -378 443 -362 b 536 -182 516 -298 536 -248 l 536 -178 b 512 -107 536 -148 528 -125 b 447 -81 496 -89 474 -81 b 386 -101 422 -81 402 -87 b 363 -154 370 -115 363 -133 l 363 -157 b 438 -231 363 -198 388 -222 z m 364 78 b 389 18 364 55 372 35 b 450 -7 406 1 426 -7 b 511 18 474 -7 494 1 b 536 78 528 35 536 55 l 536 814 l 774 814 b 828 838 795 814 813 822 b 851 893 844 853 851 872 b 828 949 851 914 844 933 b 774 972 813 964 795 972 l 128 972 b 72 949 106 972 87 964 b 49 893 56 933 49 914 b 72 838 49 872 56 853 b 128 814 87 822 106 814 l 364 814 z "},"ţ":{"ha":571,"x_min":0,"x_max":0,"o":"m 299 -231 b 211 -319 300 -277 271 -306 b 182 -349 192 -323 182 -333 b 218 -378 182 -368 194 -378 b 338 -332 264 -378 304 -362 b 397 -182 377 -298 397 -248 l 397 -178 b 373 -107 397 -148 389 -125 b 308 -81 357 -89 335 -81 b 247 -101 283 -81 263 -87 b 224 -154 231 -115 224 -133 l 224 -157 b 299 -231 224 -198 249 -222 z m 351 -12 b 467 7 391 -12 430 -6 b 511 72 496 19 511 41 b 490 122 511 92 504 108 b 440 142 476 135 460 142 b 424 140 439 142 434 141 b 399 138 415 138 406 138 b 308 229 338 138 308 168 l 308 589 l 440 589 b 492 610 461 589 478 596 b 514 661 507 624 514 641 b 492 713 514 681 507 699 b 440 733 478 726 461 733 l 308 733 l 308 858 b 284 917 308 881 300 901 b 225 942 268 934 248 942 b 165 917 202 942 182 934 b 140 858 149 901 140 881 l 140 733 l 113 733 b 61 713 92 733 75 726 b 40 661 47 699 40 681 b 61 610 40 641 47 624 b 113 589 75 596 92 589 l 140 589 l 140 203 b 351 -12 140 59 211 -12 z "},"Ť":{"ha":900,"x_min":0,"x_max":0,"o":"m 451 1164 l 379 1226 b 276 1264 350 1251 315 1264 b 236 1236 250 1264 236 1255 b 253 1203 236 1229 242 1218 l 344 1088 b 425 1047 367 1061 394 1047 l 475 1047 b 556 1088 507 1047 534 1061 l 647 1203 b 664 1236 658 1218 664 1229 b 626 1264 664 1255 651 1264 b 524 1226 588 1264 554 1251 z m 364 78 b 389 18 364 55 372 35 b 450 -7 406 1 426 -7 b 511 18 474 -7 494 1 b 536 78 528 35 536 55 l 536 814 l 774 814 b 828 838 795 814 813 822 b 851 893 844 853 851 872 b 828 949 851 914 844 933 b 774 972 813 964 795 972 l 128 972 b 72 949 106 972 87 964 b 49 893 56 933 49 914 b 72 838 49 872 56 853 b 128 814 87 822 106 814 l 364 814 z "},"ť":{"ha":571,"x_min":0,"x_max":0,"o":"m 424 850 b 433 819 423 837 426 827 b 460 808 440 812 449 808 b 500 843 479 808 493 820 l 551 1011 b 557 1043 555 1022 557 1033 b 514 1083 557 1070 543 1083 l 489 1083 b 446 1066 471 1083 457 1078 b 428 1022 435 1054 429 1040 z m 351 -12 b 467 7 391 -12 430 -6 b 511 72 496 19 511 41 b 490 122 511 92 504 108 b 440 142 476 135 460 142 b 424 140 439 142 434 141 b 399 138 415 138 406 138 b 308 229 338 138 308 168 l 308 589 l 440 589 b 492 610 461 589 478 596 b 514 661 507 624 514 641 b 492 713 514 681 507 699 b 440 733 478 726 461 733 l 308 733 l 308 858 b 284 917 308 881 300 901 b 225 942 268 934 248 942 b 165 917 202 942 182 934 b 140 858 149 901 140 881 l 140 733 l 113 733 b 61 713 92 733 75 726 b 40 661 47 699 40 681 b 61 610 40 641 47 624 b 113 589 75 596 92 589 l 140 589 l 140 203 b 351 -12 140 59 211 -12 z "},"Ū":{"ha":1051,"x_min":0,"x_max":0,"o":"m 524 -15 b 831 97 654 -15 756 22 b 942 421 905 171 942 279 l 942 894 b 917 955 942 919 933 939 b 857 979 900 971 880 979 b 796 955 833 979 813 971 b 771 894 779 939 771 919 l 771 413 b 706 212 771 325 749 258 b 526 143 663 166 603 143 b 345 215 449 143 388 167 b 281 419 302 262 281 331 l 281 894 b 256 955 281 919 272 939 b 196 979 239 971 219 979 b 135 955 172 979 151 971 b 110 894 118 939 110 919 l 110 413 b 220 94 110 274 147 168 b 524 -15 294 21 395 -15 z m 710 1068 b 753 1086 726 1068 741 1074 b 771 1129 765 1098 771 1113 b 753 1172 771 1146 765 1160 b 710 1190 741 1184 726 1190 l 340 1190 b 297 1172 324 1190 309 1184 b 279 1129 285 1160 279 1146 b 297 1086 279 1113 285 1098 b 340 1068 309 1074 324 1068 z "},"ū":{"ha":861,"x_min":0,"x_max":0,"o":"m 757 657 b 732 717 757 680 749 700 b 672 742 715 733 695 742 b 612 717 648 742 628 733 b 588 657 596 700 588 680 l 588 319 b 542 187 588 263 572 219 b 422 139 511 155 471 139 b 306 185 372 139 334 154 b 265 317 279 216 265 260 l 265 657 b 241 717 265 680 257 700 b 181 742 225 733 205 742 b 122 717 157 742 138 733 b 97 657 105 700 97 680 l 97 267 b 167 61 97 181 120 112 b 358 -15 213 10 277 -15 b 588 114 453 -15 529 28 l 588 76 b 613 17 588 53 596 34 b 672 -7 629 1 649 -7 b 732 17 695 -7 715 1 b 757 76 749 34 757 53 z m 610 842 b 653 860 626 842 641 848 b 671 903 665 872 671 886 b 653 946 671 919 665 934 b 610 964 641 958 626 964 l 240 964 b 197 946 224 964 209 958 b 179 903 185 934 179 919 b 197 860 179 886 185 872 b 240 842 209 848 224 842 z "},"Ŭ":{"ha":1051,"x_min":0,"x_max":0,"o":"m 524 -15 b 831 97 654 -15 756 22 b 942 421 905 171 942 279 l 942 894 b 917 955 942 919 933 939 b 857 979 900 971 880 979 b 796 955 833 979 813 971 b 771 894 779 939 771 919 l 771 413 b 706 212 771 325 749 258 b 526 143 663 166 603 143 b 345 215 449 143 388 167 b 281 419 302 262 281 331 l 281 894 b 256 955 281 919 272 939 b 196 979 239 971 219 979 b 135 955 172 979 151 971 b 110 894 118 939 110 919 l 110 413 b 220 94 110 274 147 168 b 524 -15 294 21 395 -15 z m 525 1044 b 738 1156 625 1044 696 1081 b 749 1199 745 1170 749 1185 b 732 1241 749 1215 743 1229 b 690 1258 721 1253 707 1258 b 638 1226 667 1258 650 1248 b 525 1163 615 1184 578 1163 b 413 1226 474 1163 437 1184 b 360 1258 400 1248 383 1258 b 318 1241 343 1258 329 1253 b 301 1199 307 1229 301 1215 b 313 1156 301 1185 305 1170 b 525 1044 354 1081 425 1044 z "},"ŭ":{"ha":861,"x_min":0,"x_max":0,"o":"m 757 657 b 732 717 757 680 749 700 b 672 742 715 733 695 742 b 612 717 648 742 628 733 b 588 657 596 700 588 680 l 588 319 b 542 187 588 263 572 219 b 422 139 511 155 471 139 b 306 185 372 139 334 154 b 265 317 279 216 265 260 l 265 657 b 241 717 265 680 257 700 b 181 742 225 733 205 742 b 122 717 157 742 138 733 b 97 657 105 700 97 680 l 97 267 b 167 61 97 181 120 112 b 358 -15 213 10 277 -15 b 588 114 453 -15 529 28 l 588 76 b 613 17 588 53 596 34 b 672 -7 629 1 649 -7 b 732 17 695 -7 715 1 b 757 76 749 34 757 53 z m 425 824 b 638 935 525 824 596 861 b 649 978 645 950 649 964 b 632 1020 649 994 643 1009 b 590 1038 621 1032 607 1038 b 538 1006 567 1038 550 1027 b 425 942 515 963 478 942 b 313 1006 374 942 337 963 b 260 1038 300 1027 283 1038 b 218 1020 243 1038 229 1032 b 201 978 207 1009 201 994 b 213 935 201 964 205 950 b 425 824 254 861 325 824 z "},"Ů":{"ha":1051,"x_min":0,"x_max":0,"o":"m 525 1031 b 635 1076 567 1031 603 1046 b 683 1182 667 1106 683 1141 l 683 1185 b 635 1292 683 1226 667 1262 b 525 1336 603 1321 567 1336 b 415 1292 483 1336 447 1321 b 367 1185 383 1262 367 1226 l 367 1182 b 415 1076 367 1141 383 1106 b 525 1031 447 1046 483 1031 z m 525 1097 b 465 1122 502 1097 482 1106 b 439 1182 447 1139 439 1159 l 439 1185 b 465 1244 439 1208 447 1228 b 525 1269 482 1261 502 1269 b 585 1244 548 1269 568 1261 b 611 1185 603 1228 611 1208 l 611 1182 b 585 1122 611 1159 603 1139 b 525 1097 568 1106 548 1097 z m 524 -15 b 831 97 654 -15 756 22 b 942 421 905 171 942 279 l 942 894 b 917 955 942 919 933 939 b 857 979 900 971 880 979 b 796 955 833 979 813 971 b 771 894 779 939 771 919 l 771 413 b 706 212 771 325 749 258 b 526 143 663 166 603 143 b 345 215 449 143 388 167 b 281 419 302 262 281 331 l 281 894 b 256 955 281 919 272 939 b 196 979 239 971 219 979 b 135 955 172 979 151 971 b 110 894 118 939 110 919 l 110 413 b 220 94 110 274 147 168 b 524 -15 294 21 395 -15 z "},"ů":{"ha":861,"x_min":0,"x_max":0,"o":"m 425 822 b 535 867 467 822 503 837 b 583 974 567 897 583 933 l 583 976 b 535 1083 583 1018 567 1054 b 425 1128 503 1113 467 1128 b 315 1083 383 1128 347 1113 b 267 976 283 1054 267 1018 l 267 974 b 315 867 267 933 283 897 b 425 822 347 837 383 822 z m 425 889 b 365 914 402 889 382 897 b 339 974 347 931 339 950 l 339 976 b 365 1036 339 1000 347 1019 b 425 1061 382 1053 402 1061 b 485 1036 448 1061 468 1053 b 511 976 503 1019 511 1000 l 511 974 b 485 914 511 950 503 931 b 425 889 468 897 448 889 z m 757 657 b 732 717 757 680 749 700 b 672 742 715 733 695 742 b 612 717 648 742 628 733 b 588 657 596 700 588 680 l 588 319 b 542 187 588 263 572 219 b 422 139 511 155 471 139 b 306 185 372 139 334 154 b 265 317 279 216 265 260 l 265 657 b 241 717 265 680 257 700 b 181 742 225 733 205 742 b 122 717 157 742 138 733 b 97 657 105 700 97 680 l 97 267 b 167 61 97 181 120 112 b 358 -15 213 10 277 -15 b 588 114 453 -15 529 28 l 588 76 b 613 17 588 53 596 34 b 672 -7 629 1 649 -7 b 732 17 695 -7 715 1 b 757 76 749 34 757 53 z "},"Ű":{"ha":1051,"x_min":0,"x_max":0,"o":"m 524 -15 b 831 97 654 -15 756 22 b 942 421 905 171 942 279 l 942 894 b 917 955 942 919 933 939 b 857 979 900 971 880 979 b 796 955 833 979 813 971 b 771 894 779 939 771 919 l 771 413 b 706 212 771 325 749 258 b 526 143 663 166 603 143 b 345 215 449 143 388 167 b 281 419 302 262 281 331 l 281 894 b 256 955 281 919 272 939 b 196 979 239 971 219 979 b 135 955 172 979 151 971 b 110 894 118 939 110 919 l 110 413 b 220 94 110 274 147 168 b 524 -15 294 21 395 -15 z m 635 1046 b 731 1083 672 1046 704 1058 l 824 1172 b 847 1215 839 1188 847 1202 b 815 1251 847 1228 837 1240 b 750 1268 794 1263 772 1268 b 686 1228 723 1268 702 1255 l 606 1106 b 594 1075 598 1094 594 1084 b 635 1046 594 1056 608 1046 z m 381 1046 b 476 1083 419 1046 450 1058 l 569 1172 b 593 1215 585 1188 593 1202 b 561 1251 593 1228 582 1240 b 496 1268 540 1263 518 1268 b 432 1228 469 1268 448 1255 l 351 1106 b 340 1075 344 1094 340 1084 b 381 1046 340 1056 354 1046 z "},"ű":{"ha":861,"x_min":0,"x_max":0,"o":"m 757 657 b 732 717 757 680 749 700 b 672 742 715 733 695 742 b 612 717 648 742 628 733 b 588 657 596 700 588 680 l 588 319 b 542 187 588 263 572 219 b 422 139 511 155 471 139 b 306 185 372 139 334 154 b 265 317 279 216 265 260 l 265 657 b 241 717 265 680 257 700 b 181 742 225 733 205 742 b 122 717 157 742 138 733 b 97 657 105 700 97 680 l 97 267 b 167 61 97 181 120 112 b 358 -15 213 10 277 -15 b 588 114 453 -15 529 28 l 588 76 b 613 17 588 53 596 34 b 672 -7 629 1 649 -7 b 732 17 695 -7 715 1 b 757 76 749 34 757 53 z m 535 819 b 631 857 572 819 604 832 l 724 946 b 747 989 739 962 747 976 b 715 1025 747 1002 737 1014 b 650 1042 694 1036 672 1042 b 586 1001 623 1042 602 1028 l 506 879 b 494 849 498 868 494 858 b 535 819 494 829 508 819 z m 281 819 b 376 857 319 819 350 832 l 469 946 b 493 989 485 962 493 976 b 461 1025 493 1002 482 1014 b 396 1042 440 1036 418 1042 b 332 1001 369 1042 348 1028 l 251 879 b 240 849 244 868 240 858 b 281 819 240 829 254 819 z "},"Ų":{"ha":1051,"x_min":0,"x_max":0,"o":"m 408 -114 b 461 -201 408 -153 426 -182 b 588 -231 496 -221 538 -231 b 643 -187 625 -231 643 -216 b 597 -144 643 -166 628 -152 b 536 -87 556 -134 536 -115 b 569 -12 536 -62 547 -37 b 843 110 686 -4 777 37 b 942 421 909 184 942 288 l 942 894 b 917 955 942 919 933 939 b 857 979 900 971 880 979 b 796 955 833 979 813 971 b 771 894 779 939 771 919 l 771 413 b 706 212 771 325 749 258 b 526 143 663 166 603 143 b 345 215 449 143 388 167 b 281 419 302 262 281 331 l 281 894 b 256 955 281 919 272 939 b 196 979 239 971 219 979 b 135 955 172 979 151 971 b 110 894 118 939 110 919 l 110 413 b 201 117 110 288 140 189 b 454 -11 261 44 346 2 b 408 -114 424 -46 408 -81 z "},"ų":{"ha":861,"x_min":0,"x_max":0,"o":"m 757 657 b 732 717 757 680 749 700 b 672 742 715 733 695 742 b 612 717 648 742 628 733 b 588 657 596 700 588 680 l 588 319 b 542 187 588 263 572 219 b 422 139 511 155 471 139 b 306 185 372 139 334 154 b 265 317 279 216 265 260 l 265 657 b 241 717 265 680 257 700 b 181 742 225 733 205 742 b 122 717 157 742 138 733 b 97 657 105 700 97 680 l 97 267 b 167 61 97 181 120 112 b 358 -15 213 10 277 -15 b 588 114 453 -15 529 28 l 588 108 b 595 56 588 94 590 76 b 614 15 600 35 606 22 b 540 -118 565 -29 540 -74 b 592 -202 540 -155 558 -183 b 718 -231 627 -221 669 -231 b 774 -187 755 -231 774 -216 b 728 -144 774 -166 758 -152 b 668 -89 688 -134 668 -116 b 724 6 668 -62 687 -31 b 757 72 746 27 757 49 z "}}}
